%TF.GenerationSoftware,KiCad,Pcbnew,(6.0.2-0)*%
%TF.CreationDate,2022-05-28T22:41:11-04:00*%
%TF.ProjectId,memory-phone-pcb,6d656d6f-7279-42d7-9068-6f6e652d7063,rev?*%
%TF.SameCoordinates,Original*%
%TF.FileFunction,Copper,L1,Top*%
%TF.FilePolarity,Positive*%
%FSLAX46Y46*%
G04 Gerber Fmt 4.6, Leading zero omitted, Abs format (unit mm)*
G04 Created by KiCad (PCBNEW (6.0.2-0)) date 2022-05-28 22:41:11*
%MOMM*%
%LPD*%
G01*
G04 APERTURE LIST*
G04 Aperture macros list*
%AMRoundRect*
0 Rectangle with rounded corners*
0 $1 Rounding radius*
0 $2 $3 $4 $5 $6 $7 $8 $9 X,Y pos of 4 corners*
0 Add a 4 corners polygon primitive as box body*
4,1,4,$2,$3,$4,$5,$6,$7,$8,$9,$2,$3,0*
0 Add four circle primitives for the rounded corners*
1,1,$1+$1,$2,$3*
1,1,$1+$1,$4,$5*
1,1,$1+$1,$6,$7*
1,1,$1+$1,$8,$9*
0 Add four rect primitives between the rounded corners*
20,1,$1+$1,$2,$3,$4,$5,0*
20,1,$1+$1,$4,$5,$6,$7,0*
20,1,$1+$1,$6,$7,$8,$9,0*
20,1,$1+$1,$8,$9,$2,$3,0*%
G04 Aperture macros list end*
%TA.AperFunction,ComponentPad*%
%ADD10O,1.700000X1.700000*%
%TD*%
%TA.AperFunction,SMDPad,CuDef*%
%ADD11R,1.700000X3.500000*%
%TD*%
%TA.AperFunction,ComponentPad*%
%ADD12R,1.700000X1.700000*%
%TD*%
%TA.AperFunction,SMDPad,CuDef*%
%ADD13R,3.500000X1.700000*%
%TD*%
%TA.AperFunction,SMDPad,CuDef*%
%ADD14RoundRect,0.237500X0.237500X-0.300000X0.237500X0.300000X-0.237500X0.300000X-0.237500X-0.300000X0*%
%TD*%
%TA.AperFunction,SMDPad,CuDef*%
%ADD15RoundRect,0.237500X0.237500X-0.250000X0.237500X0.250000X-0.237500X0.250000X-0.237500X-0.250000X0*%
%TD*%
%TA.AperFunction,SMDPad,CuDef*%
%ADD16RoundRect,0.150000X-0.512500X-0.150000X0.512500X-0.150000X0.512500X0.150000X-0.512500X0.150000X0*%
%TD*%
%TA.AperFunction,SMDPad,CuDef*%
%ADD17RoundRect,0.150000X0.587500X0.150000X-0.587500X0.150000X-0.587500X-0.150000X0.587500X-0.150000X0*%
%TD*%
%TA.AperFunction,SMDPad,CuDef*%
%ADD18RoundRect,0.237500X0.300000X0.237500X-0.300000X0.237500X-0.300000X-0.237500X0.300000X-0.237500X0*%
%TD*%
%TA.AperFunction,SMDPad,CuDef*%
%ADD19RoundRect,0.237500X-0.250000X-0.237500X0.250000X-0.237500X0.250000X0.237500X-0.250000X0.237500X0*%
%TD*%
%TA.AperFunction,SMDPad,CuDef*%
%ADD20RoundRect,0.150000X0.512500X0.150000X-0.512500X0.150000X-0.512500X-0.150000X0.512500X-0.150000X0*%
%TD*%
%TA.AperFunction,SMDPad,CuDef*%
%ADD21RoundRect,0.237500X0.250000X0.237500X-0.250000X0.237500X-0.250000X-0.237500X0.250000X-0.237500X0*%
%TD*%
%TA.AperFunction,SMDPad,CuDef*%
%ADD22R,0.762000X1.803400*%
%TD*%
%TA.AperFunction,SMDPad,CuDef*%
%ADD23R,1.498600X1.498600*%
%TD*%
%TA.AperFunction,SMDPad,CuDef*%
%ADD24R,1.549400X0.838200*%
%TD*%
%TA.AperFunction,SMDPad,CuDef*%
%ADD25R,1.549400X1.041400*%
%TD*%
%TA.AperFunction,SMDPad,CuDef*%
%ADD26R,1.041400X1.549400*%
%TD*%
%TA.AperFunction,SMDPad,CuDef*%
%ADD27RoundRect,0.300000X-0.300000X-0.300000X0.300000X-0.300000X0.300000X0.300000X-0.300000X0.300000X0*%
%TD*%
%TA.AperFunction,SMDPad,CuDef*%
%ADD28RoundRect,0.375000X-0.425000X-0.375000X0.425000X-0.375000X0.425000X0.375000X-0.425000X0.375000X0*%
%TD*%
%TA.AperFunction,SMDPad,CuDef*%
%ADD29RoundRect,0.237500X-0.237500X0.250000X-0.237500X-0.250000X0.237500X-0.250000X0.237500X0.250000X0*%
%TD*%
%TA.AperFunction,SMDPad,CuDef*%
%ADD30RoundRect,0.237500X-0.300000X-0.237500X0.300000X-0.237500X0.300000X0.237500X-0.300000X0.237500X0*%
%TD*%
%TA.AperFunction,SMDPad,CuDef*%
%ADD31R,1.560000X0.650000*%
%TD*%
%TA.AperFunction,ViaPad*%
%ADD32C,0.800000*%
%TD*%
%TA.AperFunction,Conductor*%
%ADD33C,0.200000*%
%TD*%
%TA.AperFunction,Conductor*%
%ADD34C,0.508000*%
%TD*%
G04 APERTURE END LIST*
D10*
%TO.P,U4,1,GPIO0*%
%TO.N,unconnected-(U4-Pad1)*%
X119888000Y-128524000D03*
D11*
X119888000Y-127624000D03*
D10*
%TO.P,U4,2,GPIO1*%
%TO.N,unconnected-(U4-Pad2)*%
X117348000Y-128524000D03*
D11*
X117348000Y-127624000D03*
%TO.P,U4,3,GND*%
%TO.N,GND*%
X114808000Y-127624000D03*
D12*
X114808000Y-128524000D03*
D11*
%TO.P,U4,4,GPIO2*%
%TO.N,unconnected-(U4-Pad4)*%
X112268000Y-127624000D03*
D10*
X112268000Y-128524000D03*
%TO.P,U4,5,GPIO3*%
%TO.N,unconnected-(U4-Pad5)*%
X109728000Y-128524000D03*
D11*
X109728000Y-127624000D03*
D10*
%TO.P,U4,6,GPIO4*%
%TO.N,unconnected-(U4-Pad6)*%
X107188000Y-128524000D03*
D11*
X107188000Y-127624000D03*
%TO.P,U4,7,GPIO5*%
%TO.N,unconnected-(U4-Pad7)*%
X104648000Y-127624000D03*
D10*
X104648000Y-128524000D03*
D11*
%TO.P,U4,8,GND*%
%TO.N,GND*%
X102108000Y-127624000D03*
D12*
X102108000Y-128524000D03*
D11*
%TO.P,U4,9,GPIO6*%
%TO.N,unconnected-(U4-Pad9)*%
X99568000Y-127624000D03*
D10*
X99568000Y-128524000D03*
D11*
%TO.P,U4,10,GPIO7*%
%TO.N,unconnected-(U4-Pad10)*%
X97028000Y-127624000D03*
D10*
X97028000Y-128524000D03*
D11*
%TO.P,U4,11,GPIO8*%
%TO.N,unconnected-(U4-Pad11)*%
X94488000Y-127624000D03*
D10*
X94488000Y-128524000D03*
%TO.P,U4,12,GPIO9*%
%TO.N,unconnected-(U4-Pad12)*%
X91948000Y-128524000D03*
D11*
X91948000Y-127624000D03*
D12*
%TO.P,U4,13,GND*%
%TO.N,GND*%
X89408000Y-128524000D03*
D11*
X89408000Y-127624000D03*
D10*
%TO.P,U4,14,GPIO10*%
%TO.N,unconnected-(U4-Pad14)*%
X86868000Y-128524000D03*
D11*
X86868000Y-127624000D03*
%TO.P,U4,15,GPIO11*%
%TO.N,unconnected-(U4-Pad15)*%
X84328000Y-127624000D03*
D10*
X84328000Y-128524000D03*
%TO.P,U4,16,GPIO12*%
%TO.N,unconnected-(U4-Pad16)*%
X81788000Y-128524000D03*
D11*
X81788000Y-127624000D03*
D10*
%TO.P,U4,17,GPIO13*%
%TO.N,unconnected-(U4-Pad17)*%
X79248000Y-128524000D03*
D11*
X79248000Y-127624000D03*
%TO.P,U4,18,GND*%
%TO.N,GND*%
X76708000Y-127624000D03*
D12*
X76708000Y-128524000D03*
D10*
%TO.P,U4,19,GPIO14*%
%TO.N,/DIAL*%
X74168000Y-128524000D03*
D11*
X74168000Y-127624000D03*
%TO.P,U4,20,GPIO15*%
%TO.N,/HANG_UP*%
X71628000Y-127624000D03*
D10*
X71628000Y-128524000D03*
%TO.P,U4,21,GPIO16*%
%TO.N,/SD_SDO*%
X71628000Y-146304000D03*
D11*
X71628000Y-147204000D03*
%TO.P,U4,22,GPIO17*%
%TO.N,/SD_CSn*%
X74168000Y-147204000D03*
D10*
X74168000Y-146304000D03*
D11*
%TO.P,U4,23,GND*%
%TO.N,GND*%
X76708000Y-147204000D03*
D12*
X76708000Y-146304000D03*
D10*
%TO.P,U4,24,GPIO18*%
%TO.N,/SD_SCK*%
X79248000Y-146304000D03*
D11*
X79248000Y-147204000D03*
D10*
%TO.P,U4,25,GPIO19*%
%TO.N,/SD_SDI*%
X81788000Y-146304000D03*
D11*
X81788000Y-147204000D03*
%TO.P,U4,26,GPIO20*%
%TO.N,unconnected-(U4-Pad26)*%
X84328000Y-147204000D03*
D10*
X84328000Y-146304000D03*
%TO.P,U4,27,GPIO21*%
%TO.N,unconnected-(U4-Pad27)*%
X86868000Y-146304000D03*
D11*
X86868000Y-147204000D03*
D12*
%TO.P,U4,28,GND*%
%TO.N,GND*%
X89408000Y-146304000D03*
D11*
X89408000Y-147204000D03*
%TO.P,U4,29,GPIO22*%
%TO.N,/HANDSET_PWM_OUT*%
X91948000Y-147204000D03*
D10*
X91948000Y-146304000D03*
%TO.P,U4,30,RUN*%
%TO.N,unconnected-(U4-Pad30)*%
X94488000Y-146304000D03*
D11*
X94488000Y-147204000D03*
D10*
%TO.P,U4,31,GPIO26_ADC0*%
%TO.N,/HANDSET_ADC_IN*%
X97028000Y-146304000D03*
D11*
X97028000Y-147204000D03*
%TO.P,U4,32,GPIO27_ADC1*%
%TO.N,unconnected-(U4-Pad32)*%
X99568000Y-147204000D03*
D10*
X99568000Y-146304000D03*
D12*
%TO.P,U4,33,AGND*%
%TO.N,unconnected-(U4-Pad33)*%
X102108000Y-146304000D03*
D11*
X102108000Y-147204000D03*
%TO.P,U4,34,GPIO28_ADC2*%
%TO.N,unconnected-(U4-Pad34)*%
X104648000Y-147204000D03*
D10*
X104648000Y-146304000D03*
D11*
%TO.P,U4,35,ADC_VREF*%
%TO.N,/ADC_VREF*%
X107188000Y-147204000D03*
D10*
X107188000Y-146304000D03*
%TO.P,U4,36,3V3*%
%TO.N,+3V3*%
X109728000Y-146304000D03*
D11*
X109728000Y-147204000D03*
%TO.P,U4,37,3V3_EN*%
%TO.N,unconnected-(U4-Pad37)*%
X112268000Y-147204000D03*
D10*
X112268000Y-146304000D03*
D12*
%TO.P,U4,38,GND*%
%TO.N,GND*%
X114808000Y-146304000D03*
D11*
X114808000Y-147204000D03*
%TO.P,U4,39,VSYS*%
%TO.N,unconnected-(U4-Pad39)*%
X117348000Y-147204000D03*
D10*
X117348000Y-146304000D03*
%TO.P,U4,40,VBUS*%
%TO.N,+5V*%
X119888000Y-146304000D03*
D11*
X119888000Y-147204000D03*
D10*
%TO.P,U4,41,SWCLK*%
%TO.N,unconnected-(U4-Pad41)*%
X71858000Y-134874000D03*
D13*
X70958000Y-134874000D03*
%TO.P,U4,42,GND*%
%TO.N,unconnected-(U4-Pad42)*%
X70958000Y-137414000D03*
D12*
X71858000Y-137414000D03*
D10*
%TO.P,U4,43,SWDIO*%
%TO.N,unconnected-(U4-Pad43)*%
X71858000Y-139954000D03*
D13*
X70958000Y-139954000D03*
%TD*%
D14*
%TO.P,C3,1*%
%TO.N,GND*%
X58339289Y-135147789D03*
%TO.P,C3,2*%
%TO.N,+3V3*%
X58339289Y-133422789D03*
%TD*%
%TO.P,C4,1*%
%TO.N,GND*%
X69088000Y-78205500D03*
%TO.P,C4,2*%
%TO.N,+3V3*%
X69088000Y-76480500D03*
%TD*%
D15*
%TO.P,R2,1*%
%TO.N,+3V3*%
X61387289Y-135197789D03*
%TO.P,R2,2*%
%TO.N,/SD_CSn*%
X61387289Y-133372789D03*
%TD*%
D16*
%TO.P,U3,1,VIN*%
%TO.N,+3V3*%
X52072750Y-63566000D03*
%TO.P,U3,2,GND*%
%TO.N,GND*%
X52072750Y-64516000D03*
%TO.P,U3,3,ON/~{OFF}*%
%TO.N,+3V3*%
X52072750Y-65466000D03*
%TO.P,U3,4,BP*%
%TO.N,Net-(C7-Pad2)*%
X54347750Y-65466000D03*
%TO.P,U3,5,VOUT*%
%TO.N,+1V5*%
X54347750Y-63566000D03*
%TD*%
D17*
%TO.P,U5,1,K*%
%TO.N,/ADC_VREF*%
X65834500Y-144333000D03*
%TO.P,U5,2,A*%
%TO.N,GND*%
X65834500Y-142433000D03*
%TO.P,U5,3*%
%TO.N,N/C*%
X63959500Y-143383000D03*
%TD*%
D18*
%TO.P,C2,1*%
%TO.N,Net-(C2-Pad1)*%
X66521500Y-71501000D03*
%TO.P,C2,2*%
%TO.N,/HANDSET_SPEAKER_OUT*%
X64796500Y-71501000D03*
%TD*%
D14*
%TO.P,C6,1*%
%TO.N,GND*%
X49527250Y-65378500D03*
%TO.P,C6,2*%
%TO.N,+3V3*%
X49527250Y-63653500D03*
%TD*%
D19*
%TO.P,R5,1*%
%TO.N,/HANDSET_SPEAKER_OUT*%
X64746500Y-73533000D03*
%TO.P,R5,2*%
%TO.N,Net-(R5-Pad2)*%
X66571500Y-73533000D03*
%TD*%
D20*
%TO.P,U1,1*%
%TO.N,/HANDSET_ADC_IN*%
X60441000Y-65527000D03*
%TO.P,U1,2,V-*%
%TO.N,GND*%
X60441000Y-64577000D03*
%TO.P,U1,3,+*%
%TO.N,/HANDSET_MIC_IN*%
X60441000Y-63627000D03*
%TO.P,U1,4,-*%
%TO.N,/HANDSET_ADC_IN*%
X58166000Y-63627000D03*
%TO.P,U1,5,V+*%
%TO.N,+3V3*%
X58166000Y-65527000D03*
%TD*%
D15*
%TO.P,R3,1*%
%TO.N,+3V3*%
X59863289Y-135197789D03*
%TO.P,R3,2*%
%TO.N,/SD_SDI*%
X59863289Y-133372789D03*
%TD*%
D21*
%TO.P,R9,1*%
%TO.N,+3V3*%
X80899000Y-69078000D03*
%TO.P,R9,2*%
%TO.N,/DIAL*%
X79074000Y-69078000D03*
%TD*%
D22*
%TO.P,J3,1,1*%
%TO.N,unconnected-(J3-Pad1)*%
X61636001Y-130665990D03*
%TO.P,J3,2,2*%
%TO.N,/SD_CSn*%
X60536000Y-130665990D03*
%TO.P,J3,3,3*%
%TO.N,/SD_SDI*%
X59436000Y-130665990D03*
%TO.P,J3,4,4*%
%TO.N,+3V3*%
X58336000Y-130665990D03*
%TO.P,J3,5,5*%
%TO.N,Net-(J3-Pad5)*%
X57236002Y-130665990D03*
%TO.P,J3,6,6*%
%TO.N,GND*%
X56136002Y-130665990D03*
%TO.P,J3,7,7*%
%TO.N,/SD_SDO*%
X55036001Y-130665990D03*
%TO.P,J3,8,8*%
%TO.N,unconnected-(J3-Pad8)*%
X53936001Y-130665990D03*
D23*
%TO.P,J3,9,GND*%
%TO.N,GND*%
X52460289Y-130513590D03*
%TO.P,J3,10,GND*%
X63710289Y-130513590D03*
D24*
%TO.P,J3,11,GND*%
X52130081Y-123688991D03*
%TO.P,J3,12,GND*%
X64040497Y-123038990D03*
D25*
%TO.P,J3,13,GND*%
X52485605Y-121934989D03*
D26*
%TO.P,J3,14,GND*%
X63639583Y-120613991D03*
%TD*%
D27*
%TO.P,RV1,1,1*%
%TO.N,+3V3*%
X63751000Y-66316000D03*
D28*
%TO.P,RV1,2,2*%
X65151000Y-63066000D03*
D27*
%TO.P,RV1,3,3*%
%TO.N,Net-(C1-Pad1)*%
X66551000Y-66316000D03*
%TD*%
D29*
%TO.P,R1,1*%
%TO.N,Net-(J3-Pad5)*%
X56815289Y-133372789D03*
%TO.P,R1,2*%
%TO.N,/SD_SCK*%
X56815289Y-135197789D03*
%TD*%
D15*
%TO.P,R4,1*%
%TO.N,+3V3*%
X55291289Y-135197789D03*
%TO.P,R4,2*%
%TO.N,/SD_SCK*%
X55291289Y-133372789D03*
%TD*%
D14*
%TO.P,C8,1*%
%TO.N,GND*%
X56258250Y-65378500D03*
%TO.P,C8,2*%
%TO.N,+1V5*%
X56258250Y-63653500D03*
%TD*%
D18*
%TO.P,C1,1*%
%TO.N,Net-(C1-Pad1)*%
X66521500Y-68326000D03*
%TO.P,C1,2*%
%TO.N,/HANDSET_MIC_IN*%
X64796500Y-68326000D03*
%TD*%
D30*
%TO.P,C7,1*%
%TO.N,GND*%
X52347750Y-67056000D03*
%TO.P,C7,2*%
%TO.N,Net-(C7-Pad2)*%
X54072750Y-67056000D03*
%TD*%
D12*
%TO.P,J2,1,Pin_1*%
%TO.N,/HANG_UP*%
X76327000Y-64008000D03*
D10*
%TO.P,J2,2,Pin_2*%
%TO.N,GND*%
X76327000Y-66548000D03*
%TO.P,J2,3,Pin_3*%
%TO.N,/DIAL*%
X76327000Y-69088000D03*
%TO.P,J2,4,Pin_4*%
%TO.N,GND*%
X76327000Y-71628000D03*
%TD*%
D31*
%TO.P,U2,1,~{OE}*%
%TO.N,GND*%
X64309000Y-76520000D03*
%TO.P,U2,2,A*%
%TO.N,/HANDSET_PWM_OUT*%
X64309000Y-77470000D03*
%TO.P,U2,3,GND*%
%TO.N,GND*%
X64309000Y-78420000D03*
%TO.P,U2,4,Y*%
%TO.N,Net-(R5-Pad2)*%
X67009000Y-78420000D03*
%TO.P,U2,5,VCC*%
%TO.N,+3V3*%
X67009000Y-76520000D03*
%TD*%
D18*
%TO.P,C5,1*%
%TO.N,GND*%
X59912000Y-67244000D03*
%TO.P,C5,2*%
%TO.N,+3V3*%
X58187000Y-67244000D03*
%TD*%
D19*
%TO.P,R7,1*%
%TO.N,+1V5*%
X56110500Y-61849000D03*
%TO.P,R7,2*%
%TO.N,/HANDSET_MIC_IN*%
X57935500Y-61849000D03*
%TD*%
D12*
%TO.P,J1,1,Pin_1*%
%TO.N,Net-(C1-Pad1)*%
X71120000Y-64008000D03*
D10*
%TO.P,J1,2,Pin_2*%
%TO.N,GND*%
X71120000Y-66548000D03*
%TO.P,J1,3,Pin_3*%
%TO.N,Net-(C2-Pad1)*%
X71120000Y-69088000D03*
%TO.P,J1,4,Pin_4*%
%TO.N,GND*%
X71120000Y-71628000D03*
%TD*%
D15*
%TO.P,R6,1*%
%TO.N,+3V3*%
X53767289Y-135197789D03*
%TO.P,R6,2*%
%TO.N,/SD_SDO*%
X53767289Y-133372789D03*
%TD*%
D21*
%TO.P,R8,1*%
%TO.N,+3V3*%
X80922500Y-64008000D03*
%TO.P,R8,2*%
%TO.N,/HANG_UP*%
X79097500Y-64008000D03*
%TD*%
D32*
%TO.N,GND*%
X50673000Y-123698000D03*
X65532000Y-123063000D03*
X59817000Y-68580000D03*
X65786000Y-141478000D03*
X51054000Y-121920000D03*
X58293000Y-135890000D03*
X62738000Y-78359000D03*
X62738000Y-76454000D03*
X70180878Y-78181878D03*
X56007000Y-132080000D03*
X52324000Y-68326000D03*
X64897000Y-120650000D03*
X63627000Y-131953000D03*
X49530000Y-66421000D03*
X61402000Y-64577000D03*
X50800000Y-130429000D03*
X56261000Y-66421000D03*
%TO.N,+3V3*%
X65024000Y-147320000D03*
X66675000Y-148844000D03*
X56890500Y-67244000D03*
X64262000Y-146558000D03*
X65786000Y-148082000D03*
%TO.N,/SD_SDI*%
X74798787Y-133884025D03*
X59436000Y-128651000D03*
%TO.N,/SD_SCK*%
X78632884Y-138283116D03*
X56815289Y-137714289D03*
%TO.N,/HANDSET_ADC_IN*%
X53594000Y-78486000D03*
X61087000Y-69469000D03*
%TO.N,/SD_SDO*%
X66675000Y-134874000D03*
X55245000Y-128397000D03*
%TD*%
D33*
%TO.N,Net-(C1-Pad1)*%
X66521500Y-66345500D02*
X66551000Y-66316000D01*
X66551000Y-66316000D02*
X68859000Y-64008000D01*
X68859000Y-64008000D02*
X71120000Y-64008000D01*
X66551000Y-66316000D02*
X66656000Y-66421000D01*
X66521500Y-68326000D02*
X66521500Y-66345500D01*
%TO.N,/HANDSET_MIC_IN*%
X61849000Y-63627000D02*
X61849000Y-63373000D01*
X62101501Y-63879501D02*
X61849000Y-63627000D01*
X61849000Y-63373000D02*
X61849000Y-62357000D01*
X61849000Y-62357000D02*
X61341000Y-61849000D01*
X62101501Y-67308501D02*
X62101501Y-63879501D01*
X60441000Y-63627000D02*
X61849000Y-63627000D01*
X63119000Y-68326000D02*
X62101501Y-67308501D01*
X61341000Y-61849000D02*
X57935500Y-61849000D01*
X64796500Y-68326000D02*
X63119000Y-68326000D01*
%TO.N,Net-(C2-Pad1)*%
X66521500Y-71400500D02*
X68834000Y-69088000D01*
X68834000Y-69088000D02*
X71120000Y-69088000D01*
X66521500Y-71501000D02*
X66521500Y-71400500D01*
%TO.N,/HANDSET_SPEAKER_OUT*%
X64746500Y-73533000D02*
X64746500Y-71551000D01*
X64746500Y-71551000D02*
X64796500Y-71501000D01*
%TO.N,GND*%
X49527250Y-65378500D02*
X49527250Y-66418250D01*
X56258250Y-66418250D02*
X56261000Y-66421000D01*
X64309000Y-78420000D02*
X62799000Y-78420000D01*
X64040497Y-123038990D02*
X65507990Y-123038990D01*
X56136002Y-130665990D02*
X56136002Y-131950998D01*
D34*
X65834500Y-142433000D02*
X65834500Y-141526500D01*
D33*
X60441000Y-64577000D02*
X61402000Y-64577000D01*
X50682009Y-123688991D02*
X50673000Y-123698000D01*
X58339289Y-135147789D02*
X58339289Y-135843711D01*
X56136002Y-131950998D02*
X56007000Y-132080000D01*
X63710289Y-130513590D02*
X63710289Y-131869711D01*
X59912000Y-68485000D02*
X59817000Y-68580000D01*
X70157256Y-78205500D02*
X70180878Y-78181878D01*
D34*
X65834500Y-141526500D02*
X65786000Y-141478000D01*
D33*
X51051250Y-64516000D02*
X52072750Y-64516000D01*
X65507990Y-123038990D02*
X65532000Y-123063000D01*
X59912000Y-67244000D02*
X59912000Y-68485000D01*
X63639583Y-120613991D02*
X64860991Y-120613991D01*
X52347750Y-68302250D02*
X52324000Y-68326000D01*
X49527250Y-66418250D02*
X49530000Y-66421000D01*
X50884590Y-130513590D02*
X50800000Y-130429000D01*
X52130081Y-123688991D02*
X50682009Y-123688991D01*
X62799000Y-78420000D02*
X62738000Y-78359000D01*
X64309000Y-76520000D02*
X62804000Y-76520000D01*
X69088000Y-78205500D02*
X70157256Y-78205500D01*
X63710289Y-131869711D02*
X63627000Y-131953000D01*
X52460289Y-130513590D02*
X50884590Y-130513590D01*
X61468000Y-64643000D02*
X61402000Y-64577000D01*
X50188750Y-65378500D02*
X51051250Y-64516000D01*
X64860991Y-120613991D02*
X64897000Y-120650000D01*
X62804000Y-76520000D02*
X62738000Y-76454000D01*
X51068989Y-121934989D02*
X51054000Y-121920000D01*
X52485605Y-121934989D02*
X51068989Y-121934989D01*
X49527250Y-65378500D02*
X50188750Y-65378500D01*
X58339289Y-135843711D02*
X58293000Y-135890000D01*
X56258250Y-65378500D02*
X56258250Y-66418250D01*
X52347750Y-67056000D02*
X52347750Y-68302250D01*
%TO.N,+3V3*%
X52998245Y-63566000D02*
X52072750Y-63566000D01*
X50516750Y-63653500D02*
X50604250Y-63566000D01*
X69048500Y-76520000D02*
X69088000Y-76480500D01*
X67009000Y-76520000D02*
X69048500Y-76520000D01*
X58166000Y-65527000D02*
X58166000Y-67223000D01*
X58339289Y-133422789D02*
X58336000Y-133419500D01*
X49527250Y-63653500D02*
X50516750Y-63653500D01*
X52072750Y-65466000D02*
X52998245Y-65466000D01*
X52998245Y-65466000D02*
X53658501Y-64805744D01*
X58187000Y-67244000D02*
X56890500Y-67244000D01*
X53658501Y-64805744D02*
X53658501Y-64226256D01*
X58166000Y-67223000D02*
X58187000Y-67244000D01*
X53658501Y-64226256D02*
X52998245Y-63566000D01*
X50604250Y-63566000D02*
X52072750Y-63566000D01*
X58336000Y-133419500D02*
X58336000Y-130665990D01*
%TO.N,Net-(C7-Pad2)*%
X54072750Y-65741000D02*
X54347750Y-65466000D01*
X54072750Y-67056000D02*
X54072750Y-65741000D01*
%TO.N,+1V5*%
X56170750Y-63566000D02*
X56258250Y-63653500D01*
X56258250Y-63653500D02*
X56258250Y-62862250D01*
X54347750Y-63566000D02*
X56170750Y-63566000D01*
X56258250Y-62862250D02*
X56110500Y-62714500D01*
X56110500Y-62714500D02*
X56110500Y-61849000D01*
%TO.N,/HANG_UP*%
X52451000Y-83775507D02*
X52451000Y-117094000D01*
X75277000Y-64008000D02*
X73133489Y-66151511D01*
X63881000Y-128524000D02*
X71628000Y-128524000D01*
X71646510Y-78397484D02*
X66268487Y-83775507D01*
X76327000Y-64008000D02*
X75277000Y-64008000D01*
X73133489Y-76783504D02*
X71646510Y-78270483D01*
X76327000Y-64008000D02*
X79097500Y-64008000D01*
X52451000Y-117094000D02*
X63881000Y-128524000D01*
X71646510Y-78270483D02*
X71646510Y-78397484D01*
X71628000Y-128524000D02*
X71628000Y-126707986D01*
X66268487Y-83775507D02*
X52451000Y-83775507D01*
X73133489Y-66151511D02*
X73133489Y-76783504D01*
%TO.N,/DIAL*%
X52959000Y-84918507D02*
X52959000Y-116967000D01*
X79064000Y-69088000D02*
X79074000Y-69078000D01*
X52959000Y-116967000D02*
X63881000Y-127889000D01*
X70767446Y-79841541D02*
X65690480Y-84918507D01*
X74168000Y-126964978D02*
X74168000Y-128524000D01*
X70894444Y-79841542D02*
X70767446Y-79841541D01*
X65690480Y-84918507D02*
X52959000Y-84918507D01*
X68326000Y-127889000D02*
X70640511Y-125574489D01*
X74168000Y-126873000D02*
X74168000Y-128524000D01*
X73533000Y-77202986D02*
X70894444Y-79841542D01*
X63881000Y-127889000D02*
X68326000Y-127889000D01*
X72777511Y-125574489D02*
X74168000Y-126964978D01*
X70640511Y-125574489D02*
X72777511Y-125574489D01*
X76327000Y-69088000D02*
X79064000Y-69088000D01*
X73533000Y-71882000D02*
X73533000Y-77202986D01*
X76327000Y-69088000D02*
X73533000Y-71882000D01*
%TO.N,/SD_CSn*%
X74168000Y-134242483D02*
X73275517Y-133350000D01*
X60536000Y-131529000D02*
X61387289Y-132380289D01*
X61387289Y-132380289D02*
X61387289Y-133372789D01*
X73275517Y-133350000D02*
X61410078Y-133350000D01*
X60536000Y-130665990D02*
X60536000Y-131529000D01*
X74168000Y-146304000D02*
X74168000Y-134242483D01*
X61410078Y-133350000D02*
X61387289Y-133372789D01*
%TO.N,/SD_SDI*%
X75223037Y-133884025D02*
X74798787Y-133884025D01*
X59436000Y-130665990D02*
X59436000Y-131953000D01*
X81788000Y-146304000D02*
X81788000Y-140448987D01*
X59436000Y-131953000D02*
X59863289Y-132380289D01*
X59436000Y-128651000D02*
X59436000Y-130665990D01*
X81788000Y-140448987D02*
X75223037Y-133884025D01*
X59863289Y-132380289D02*
X59863289Y-133372789D01*
%TO.N,Net-(J3-Pad5)*%
X56815289Y-132761289D02*
X57236002Y-132340576D01*
X56815289Y-133372789D02*
X56815289Y-132761289D01*
X57236002Y-132340576D02*
X57236002Y-130665990D01*
%TO.N,/SD_SCK*%
X79248000Y-146304000D02*
X79248000Y-138898232D01*
X79248000Y-146304000D02*
X79248000Y-147863022D01*
X56815289Y-134896789D02*
X56815289Y-135197789D01*
X79248000Y-138898232D02*
X78632884Y-138283116D01*
X55291289Y-133372789D02*
X56815289Y-134896789D01*
X56815289Y-137714289D02*
X56815289Y-135197789D01*
%TO.N,Net-(R5-Pad2)*%
X68834000Y-73533000D02*
X66571500Y-73533000D01*
X67009000Y-78420000D02*
X67631520Y-79042520D01*
X67631520Y-79042520D02*
X70309480Y-79042520D01*
X71755000Y-76454000D02*
X68834000Y-73533000D01*
X66571500Y-73533000D02*
X66548000Y-73556500D01*
X70309480Y-79042520D02*
X71755000Y-77597000D01*
X66554000Y-78420000D02*
X67009000Y-78420000D01*
X71755000Y-77597000D02*
X71755000Y-76454000D01*
%TO.N,/HANDSET_ADC_IN*%
X97028000Y-146304000D02*
X81915000Y-131191000D01*
X59182000Y-64135000D02*
X58674000Y-63627000D01*
X58674000Y-63627000D02*
X58166000Y-63627000D01*
X63715516Y-128923510D02*
X63481489Y-128689482D01*
X51816000Y-83394507D02*
X51816000Y-80264000D01*
X51816000Y-80264000D02*
X53594000Y-78486000D01*
X60441000Y-66283000D02*
X60441000Y-65527000D01*
X52114493Y-118237000D02*
X51816000Y-117938507D01*
X67056000Y-131191000D02*
X64788511Y-128923511D01*
X81915000Y-131191000D02*
X67056000Y-131191000D01*
X60441000Y-65527000D02*
X59685000Y-65527000D01*
X61087000Y-69469000D02*
X61087000Y-66929000D01*
X53029006Y-118237000D02*
X52114493Y-118237000D01*
X63481489Y-128689482D02*
X53029006Y-118237000D01*
X61087000Y-66929000D02*
X60441000Y-66283000D01*
X59182000Y-65024000D02*
X59182000Y-64135000D01*
X51816000Y-117938507D02*
X51816000Y-83394507D01*
X59685000Y-65527000D02*
X59182000Y-65024000D01*
X64788511Y-128923511D02*
X63715516Y-128923510D01*
%TO.N,/HANDSET_PWM_OUT*%
X51054000Y-79978520D02*
X53562520Y-77470000D01*
X51930500Y-118618000D02*
X51352493Y-118618000D01*
X91948000Y-146304000D02*
X77635484Y-131991484D01*
X77635484Y-131991484D02*
X67234496Y-131991484D01*
X64566034Y-129323022D02*
X63550034Y-129323022D01*
X52863523Y-118636511D02*
X51949009Y-118636510D01*
X67234496Y-131991484D02*
X64566034Y-129323022D01*
X51949009Y-118636510D02*
X51930500Y-118618000D01*
X63550034Y-129323022D02*
X52863523Y-118636511D01*
X51054000Y-118319507D02*
X51054000Y-79978520D01*
X53562520Y-77470000D02*
X64309000Y-77470000D01*
X51352493Y-118618000D02*
X51054000Y-118319507D01*
%TO.N,/ADC_VREF*%
X107188000Y-147955000D02*
X107188000Y-146304000D01*
X66990000Y-144333000D02*
X67437000Y-144780000D01*
X105889489Y-149253511D02*
X107188000Y-147955000D01*
X67437000Y-147574000D02*
X69088000Y-149225000D01*
X65834500Y-144333000D02*
X66990000Y-144333000D01*
X70507000Y-149253511D02*
X105889489Y-149253511D01*
X69088000Y-149225000D02*
X70478489Y-149225000D01*
X67437000Y-144780000D02*
X67437000Y-147574000D01*
X70478489Y-149225000D02*
X70507000Y-149253511D01*
%TO.N,/SD_SDO*%
X55036001Y-131873577D02*
X55036001Y-130665990D01*
X71628000Y-146304000D02*
X66675000Y-141351000D01*
X53767289Y-133142289D02*
X55036001Y-131873577D01*
X55245000Y-128397000D02*
X55036001Y-128605999D01*
X53767289Y-133372789D02*
X53767289Y-133142289D01*
X66675000Y-141351000D02*
X66675000Y-134874000D01*
X55036001Y-128605999D02*
X55036001Y-130665990D01*
%TD*%
%TA.AperFunction,Conductor*%
%TO.N,+3V3*%
G36*
X82934121Y-58528002D02*
G01*
X82980614Y-58581658D01*
X82992000Y-58634000D01*
X82992000Y-85366000D01*
X82971998Y-85434121D01*
X82918342Y-85480614D01*
X82866000Y-85492000D01*
X66281726Y-85492000D01*
X66213605Y-85471998D01*
X66167112Y-85418342D01*
X66157008Y-85348068D01*
X66186502Y-85283488D01*
X66192631Y-85276905D01*
X71005844Y-80463692D01*
X71053578Y-80435063D01*
X71053295Y-80434380D01*
X71058976Y-80432027D01*
X71058982Y-80432025D01*
X71137665Y-80399433D01*
X71201320Y-80373066D01*
X71296516Y-80300019D01*
X71296518Y-80300017D01*
X71328428Y-80275532D01*
X71347899Y-80250158D01*
X71358757Y-80237778D01*
X73929234Y-77667301D01*
X73941625Y-77656434D01*
X73960437Y-77641999D01*
X73966987Y-77636973D01*
X73991474Y-77605061D01*
X73991478Y-77605057D01*
X74064524Y-77509862D01*
X74125838Y-77361837D01*
X74146751Y-77202986D01*
X74142578Y-77171287D01*
X74141500Y-77154842D01*
X74141500Y-72186239D01*
X74161502Y-72118118D01*
X74178405Y-72097144D01*
X74750092Y-71525457D01*
X74812404Y-71491431D01*
X74883219Y-71496496D01*
X74940055Y-71539043D01*
X74964978Y-71607298D01*
X74977110Y-71817715D01*
X74978247Y-71822761D01*
X74978248Y-71822767D01*
X74993872Y-71892093D01*
X75026222Y-72035639D01*
X75064461Y-72129811D01*
X75105566Y-72231040D01*
X75110266Y-72242616D01*
X75136934Y-72286134D01*
X75221490Y-72424117D01*
X75226987Y-72433088D01*
X75373250Y-72601938D01*
X75545126Y-72744632D01*
X75738000Y-72857338D01*
X75946692Y-72937030D01*
X75951760Y-72938061D01*
X75951763Y-72938062D01*
X76059017Y-72959883D01*
X76165597Y-72981567D01*
X76170772Y-72981757D01*
X76170774Y-72981757D01*
X76383673Y-72989564D01*
X76383677Y-72989564D01*
X76388837Y-72989753D01*
X76393957Y-72989097D01*
X76393959Y-72989097D01*
X76605288Y-72962025D01*
X76605289Y-72962025D01*
X76610416Y-72961368D01*
X76653467Y-72948452D01*
X76819429Y-72898661D01*
X76819434Y-72898659D01*
X76824384Y-72897174D01*
X77024994Y-72798896D01*
X77206860Y-72669173D01*
X77260876Y-72615346D01*
X77361435Y-72515137D01*
X77365096Y-72511489D01*
X77384490Y-72484500D01*
X77492435Y-72334277D01*
X77492436Y-72334276D01*
X77495453Y-72330077D01*
X77499071Y-72322758D01*
X77592136Y-72134453D01*
X77592137Y-72134451D01*
X77594430Y-72129811D01*
X77659370Y-71916069D01*
X77688529Y-71694590D01*
X77690156Y-71628000D01*
X77671852Y-71405361D01*
X77617431Y-71188702D01*
X77528354Y-70983840D01*
X77407014Y-70796277D01*
X77256670Y-70631051D01*
X77252619Y-70627852D01*
X77252615Y-70627848D01*
X77085414Y-70495800D01*
X77085410Y-70495798D01*
X77081359Y-70492598D01*
X77040053Y-70469796D01*
X76990084Y-70419364D01*
X76975312Y-70349921D01*
X77000428Y-70283516D01*
X77027780Y-70256909D01*
X77071603Y-70225650D01*
X77206860Y-70129173D01*
X77365096Y-69971489D01*
X77416924Y-69899363D01*
X77492435Y-69794277D01*
X77492436Y-69794276D01*
X77495453Y-69790077D01*
X77507019Y-69766675D01*
X77555132Y-69714467D01*
X77619977Y-69696500D01*
X78112253Y-69696500D01*
X78180374Y-69716502D01*
X78219397Y-69756196D01*
X78235384Y-69782031D01*
X78240566Y-69787204D01*
X78353316Y-69899758D01*
X78353321Y-69899762D01*
X78358497Y-69904929D01*
X78506580Y-69996209D01*
X78671691Y-70050974D01*
X78678527Y-70051674D01*
X78678530Y-70051675D01*
X78725870Y-70056525D01*
X78774428Y-70061500D01*
X79373572Y-70061500D01*
X79376818Y-70061163D01*
X79376822Y-70061163D01*
X79470735Y-70051419D01*
X79470739Y-70051418D01*
X79477593Y-70050707D01*
X79484129Y-70048526D01*
X79484131Y-70048526D01*
X79628903Y-70000226D01*
X79642607Y-69995654D01*
X79790531Y-69904116D01*
X79897601Y-69796859D01*
X79959882Y-69762780D01*
X80030702Y-69767783D01*
X80075791Y-69796704D01*
X80178629Y-69899363D01*
X80190040Y-69908375D01*
X80325563Y-69991912D01*
X80338741Y-69998056D01*
X80490266Y-70048315D01*
X80503632Y-70051181D01*
X80596270Y-70060672D01*
X80602685Y-70061000D01*
X80626885Y-70061000D01*
X80642124Y-70056525D01*
X80643329Y-70055135D01*
X80645000Y-70047452D01*
X80645000Y-70042885D01*
X81153000Y-70042885D01*
X81157475Y-70058124D01*
X81158865Y-70059329D01*
X81166548Y-70061000D01*
X81195266Y-70061000D01*
X81201782Y-70060663D01*
X81295632Y-70050925D01*
X81309028Y-70048032D01*
X81460453Y-69997512D01*
X81473615Y-69991347D01*
X81608992Y-69907574D01*
X81620390Y-69898540D01*
X81732863Y-69785871D01*
X81741875Y-69774460D01*
X81825412Y-69638937D01*
X81831556Y-69625759D01*
X81881815Y-69474234D01*
X81884681Y-69460868D01*
X81894172Y-69368230D01*
X81894500Y-69361815D01*
X81894500Y-69350115D01*
X81890025Y-69334876D01*
X81888635Y-69333671D01*
X81880952Y-69332000D01*
X81171115Y-69332000D01*
X81155876Y-69336475D01*
X81154671Y-69337865D01*
X81153000Y-69345548D01*
X81153000Y-70042885D01*
X80645000Y-70042885D01*
X80645000Y-68805885D01*
X81153000Y-68805885D01*
X81157475Y-68821124D01*
X81158865Y-68822329D01*
X81166548Y-68824000D01*
X81876385Y-68824000D01*
X81891624Y-68819525D01*
X81892829Y-68818135D01*
X81894500Y-68810452D01*
X81894500Y-68794234D01*
X81894163Y-68787718D01*
X81884425Y-68693868D01*
X81881532Y-68680472D01*
X81831012Y-68529047D01*
X81824847Y-68515885D01*
X81741074Y-68380508D01*
X81732040Y-68369110D01*
X81619371Y-68256637D01*
X81607960Y-68247625D01*
X81472437Y-68164088D01*
X81459259Y-68157944D01*
X81307734Y-68107685D01*
X81294368Y-68104819D01*
X81201730Y-68095328D01*
X81195315Y-68095000D01*
X81171115Y-68095000D01*
X81155876Y-68099475D01*
X81154671Y-68100865D01*
X81153000Y-68108548D01*
X81153000Y-68805885D01*
X80645000Y-68805885D01*
X80645000Y-68113115D01*
X80640525Y-68097876D01*
X80639135Y-68096671D01*
X80631452Y-68095000D01*
X80602734Y-68095000D01*
X80596218Y-68095337D01*
X80502368Y-68105075D01*
X80488972Y-68107968D01*
X80337547Y-68158488D01*
X80324385Y-68164653D01*
X80189008Y-68248426D01*
X80177610Y-68257460D01*
X80076107Y-68359140D01*
X80013824Y-68393219D01*
X79943004Y-68388216D01*
X79897916Y-68359295D01*
X79871140Y-68332565D01*
X79789503Y-68251071D01*
X79740938Y-68221135D01*
X79647650Y-68163631D01*
X79647648Y-68163630D01*
X79641420Y-68159791D01*
X79476309Y-68105026D01*
X79469473Y-68104326D01*
X79469470Y-68104325D01*
X79417974Y-68099049D01*
X79373572Y-68094500D01*
X78774428Y-68094500D01*
X78771182Y-68094837D01*
X78771178Y-68094837D01*
X78677265Y-68104581D01*
X78677261Y-68104582D01*
X78670407Y-68105293D01*
X78663871Y-68107474D01*
X78663869Y-68107474D01*
X78578151Y-68136072D01*
X78505393Y-68160346D01*
X78357469Y-68251884D01*
X78352296Y-68257066D01*
X78239742Y-68369816D01*
X78239738Y-68369821D01*
X78234571Y-68374997D01*
X78230729Y-68381229D01*
X78230728Y-68381231D01*
X78207066Y-68419617D01*
X78154294Y-68467110D01*
X78099807Y-68479500D01*
X77619978Y-68479500D01*
X77551857Y-68459498D01*
X77514186Y-68421940D01*
X77509490Y-68414680D01*
X77447873Y-68319435D01*
X77409822Y-68260617D01*
X77409820Y-68260614D01*
X77407014Y-68256277D01*
X77256670Y-68091051D01*
X77252619Y-68087852D01*
X77252615Y-68087848D01*
X77085414Y-67955800D01*
X77085410Y-67955798D01*
X77081359Y-67952598D01*
X77040053Y-67929796D01*
X76990084Y-67879364D01*
X76975312Y-67809921D01*
X77000428Y-67743516D01*
X77027780Y-67716909D01*
X77078690Y-67680595D01*
X77206860Y-67589173D01*
X77219294Y-67576783D01*
X77292467Y-67503865D01*
X77365096Y-67431489D01*
X77370478Y-67424000D01*
X77492435Y-67254277D01*
X77492436Y-67254276D01*
X77495453Y-67250077D01*
X77512887Y-67214803D01*
X77592136Y-67054453D01*
X77592137Y-67054451D01*
X77594430Y-67049811D01*
X77659370Y-66836069D01*
X77688529Y-66614590D01*
X77688611Y-66611240D01*
X77690074Y-66551365D01*
X77690074Y-66551361D01*
X77690156Y-66548000D01*
X77671852Y-66325361D01*
X77617431Y-66108702D01*
X77528354Y-65903840D01*
X77469255Y-65812487D01*
X77409822Y-65720617D01*
X77409820Y-65720614D01*
X77407014Y-65716277D01*
X77390441Y-65698063D01*
X77259798Y-65554488D01*
X77228746Y-65490642D01*
X77237141Y-65420143D01*
X77282317Y-65365375D01*
X77308761Y-65351706D01*
X77415297Y-65311767D01*
X77423705Y-65308615D01*
X77540261Y-65221261D01*
X77627615Y-65104705D01*
X77678745Y-64968316D01*
X77685500Y-64906134D01*
X77685500Y-64742500D01*
X77705502Y-64674379D01*
X77759158Y-64627886D01*
X77811500Y-64616500D01*
X78129564Y-64616500D01*
X78197685Y-64636502D01*
X78236708Y-64676197D01*
X78255030Y-64705805D01*
X78255036Y-64705812D01*
X78258884Y-64712031D01*
X78264062Y-64717200D01*
X78376816Y-64829758D01*
X78376821Y-64829762D01*
X78381997Y-64834929D01*
X78388227Y-64838769D01*
X78388228Y-64838770D01*
X78519464Y-64919665D01*
X78530080Y-64926209D01*
X78695191Y-64980974D01*
X78702027Y-64981674D01*
X78702030Y-64981675D01*
X78749370Y-64986525D01*
X78797928Y-64991500D01*
X79397072Y-64991500D01*
X79400318Y-64991163D01*
X79400322Y-64991163D01*
X79494235Y-64981419D01*
X79494239Y-64981418D01*
X79501093Y-64980707D01*
X79507629Y-64978526D01*
X79507631Y-64978526D01*
X79654276Y-64929601D01*
X79666107Y-64925654D01*
X79814031Y-64834116D01*
X79921101Y-64726859D01*
X79983382Y-64692780D01*
X80054202Y-64697783D01*
X80099291Y-64726704D01*
X80202129Y-64829363D01*
X80213540Y-64838375D01*
X80349063Y-64921912D01*
X80362241Y-64928056D01*
X80513766Y-64978315D01*
X80527132Y-64981181D01*
X80619770Y-64990672D01*
X80626185Y-64991000D01*
X80650385Y-64991000D01*
X80665624Y-64986525D01*
X80666829Y-64985135D01*
X80668500Y-64977452D01*
X80668500Y-64972885D01*
X81176500Y-64972885D01*
X81180975Y-64988124D01*
X81182365Y-64989329D01*
X81190048Y-64991000D01*
X81218766Y-64991000D01*
X81225282Y-64990663D01*
X81319132Y-64980925D01*
X81332528Y-64978032D01*
X81483953Y-64927512D01*
X81497115Y-64921347D01*
X81632492Y-64837574D01*
X81643890Y-64828540D01*
X81756363Y-64715871D01*
X81765375Y-64704460D01*
X81848912Y-64568937D01*
X81855056Y-64555759D01*
X81905315Y-64404234D01*
X81908181Y-64390868D01*
X81917672Y-64298230D01*
X81918000Y-64291815D01*
X81918000Y-64280115D01*
X81913525Y-64264876D01*
X81912135Y-64263671D01*
X81904452Y-64262000D01*
X81194615Y-64262000D01*
X81179376Y-64266475D01*
X81178171Y-64267865D01*
X81176500Y-64275548D01*
X81176500Y-64972885D01*
X80668500Y-64972885D01*
X80668500Y-63735885D01*
X81176500Y-63735885D01*
X81180975Y-63751124D01*
X81182365Y-63752329D01*
X81190048Y-63754000D01*
X81899885Y-63754000D01*
X81915124Y-63749525D01*
X81916329Y-63748135D01*
X81918000Y-63740452D01*
X81918000Y-63724234D01*
X81917663Y-63717718D01*
X81907925Y-63623868D01*
X81905032Y-63610472D01*
X81854512Y-63459047D01*
X81848347Y-63445885D01*
X81764574Y-63310508D01*
X81755540Y-63299110D01*
X81642871Y-63186637D01*
X81631460Y-63177625D01*
X81495937Y-63094088D01*
X81482759Y-63087944D01*
X81331234Y-63037685D01*
X81317868Y-63034819D01*
X81225230Y-63025328D01*
X81218815Y-63025000D01*
X81194615Y-63025000D01*
X81179376Y-63029475D01*
X81178171Y-63030865D01*
X81176500Y-63038548D01*
X81176500Y-63735885D01*
X80668500Y-63735885D01*
X80668500Y-63043115D01*
X80664025Y-63027876D01*
X80662635Y-63026671D01*
X80654952Y-63025000D01*
X80626234Y-63025000D01*
X80619718Y-63025337D01*
X80525868Y-63035075D01*
X80512472Y-63037968D01*
X80361047Y-63088488D01*
X80347885Y-63094653D01*
X80212508Y-63178426D01*
X80201110Y-63187460D01*
X80099607Y-63289140D01*
X80037324Y-63323219D01*
X79966504Y-63318216D01*
X79921416Y-63289295D01*
X79905594Y-63273500D01*
X79813003Y-63181071D01*
X79806772Y-63177230D01*
X79671150Y-63093631D01*
X79671148Y-63093630D01*
X79664920Y-63089791D01*
X79499809Y-63035026D01*
X79492973Y-63034326D01*
X79492970Y-63034325D01*
X79439871Y-63028885D01*
X79397072Y-63024500D01*
X78797928Y-63024500D01*
X78794682Y-63024837D01*
X78794678Y-63024837D01*
X78700765Y-63034581D01*
X78700761Y-63034582D01*
X78693907Y-63035293D01*
X78687371Y-63037474D01*
X78687369Y-63037474D01*
X78554605Y-63081768D01*
X78528893Y-63090346D01*
X78380969Y-63181884D01*
X78375796Y-63187066D01*
X78263242Y-63299816D01*
X78263238Y-63299821D01*
X78258071Y-63304997D01*
X78254229Y-63311229D01*
X78254228Y-63311231D01*
X78236730Y-63339617D01*
X78183957Y-63387110D01*
X78129471Y-63399500D01*
X77811500Y-63399500D01*
X77743379Y-63379498D01*
X77696886Y-63325842D01*
X77685500Y-63273500D01*
X77685500Y-63109866D01*
X77678745Y-63047684D01*
X77627615Y-62911295D01*
X77540261Y-62794739D01*
X77423705Y-62707385D01*
X77287316Y-62656255D01*
X77225134Y-62649500D01*
X75428866Y-62649500D01*
X75366684Y-62656255D01*
X75230295Y-62707385D01*
X75113739Y-62794739D01*
X75026385Y-62911295D01*
X74975255Y-63047684D01*
X74968500Y-63109866D01*
X74968500Y-63415586D01*
X74948498Y-63483707D01*
X74919204Y-63515549D01*
X74874928Y-63549523D01*
X74874925Y-63549526D01*
X74843013Y-63574013D01*
X74837983Y-63580568D01*
X74823548Y-63599379D01*
X74812681Y-63611770D01*
X72737255Y-65687196D01*
X72724864Y-65698063D01*
X72699502Y-65717524D01*
X72675015Y-65749436D01*
X72675012Y-65749439D01*
X72675006Y-65749447D01*
X72607844Y-65836974D01*
X72601965Y-65844635D01*
X72590718Y-65871788D01*
X72566099Y-65931223D01*
X72521551Y-65986504D01*
X72454187Y-66008925D01*
X72385396Y-65991367D01*
X72334142Y-65933250D01*
X72321354Y-65903840D01*
X72262255Y-65812487D01*
X72202822Y-65720617D01*
X72202820Y-65720614D01*
X72200014Y-65716277D01*
X72183441Y-65698063D01*
X72052798Y-65554488D01*
X72021746Y-65490642D01*
X72030141Y-65420143D01*
X72075317Y-65365375D01*
X72101761Y-65351706D01*
X72208297Y-65311767D01*
X72216705Y-65308615D01*
X72333261Y-65221261D01*
X72420615Y-65104705D01*
X72471745Y-64968316D01*
X72478500Y-64906134D01*
X72478500Y-63109866D01*
X72471745Y-63047684D01*
X72420615Y-62911295D01*
X72333261Y-62794739D01*
X72216705Y-62707385D01*
X72080316Y-62656255D01*
X72018134Y-62649500D01*
X70221866Y-62649500D01*
X70159684Y-62656255D01*
X70023295Y-62707385D01*
X69906739Y-62794739D01*
X69819385Y-62911295D01*
X69768255Y-63047684D01*
X69761500Y-63109866D01*
X69761500Y-63273500D01*
X69741498Y-63341621D01*
X69687842Y-63388114D01*
X69635500Y-63399500D01*
X68907136Y-63399500D01*
X68890693Y-63398422D01*
X68859000Y-63394250D01*
X68850811Y-63395328D01*
X68819126Y-63399499D01*
X68819117Y-63399500D01*
X68819115Y-63399500D01*
X68819109Y-63399501D01*
X68819107Y-63399501D01*
X68719543Y-63412609D01*
X68708336Y-63414084D01*
X68708334Y-63414085D01*
X68700149Y-63415162D01*
X68552124Y-63476476D01*
X68545573Y-63481503D01*
X68545571Y-63481504D01*
X68471768Y-63538136D01*
X68425013Y-63574013D01*
X68419987Y-63580563D01*
X68405548Y-63599380D01*
X68394681Y-63611771D01*
X66835856Y-65170595D01*
X66773544Y-65204621D01*
X66746761Y-65207500D01*
X66162272Y-65207500D01*
X66157485Y-65207776D01*
X66152289Y-65208976D01*
X66152286Y-65208976D01*
X66075767Y-65226642D01*
X65980748Y-65248579D01*
X65817443Y-65327524D01*
X65675687Y-65440687D01*
X65562524Y-65582443D01*
X65483579Y-65745748D01*
X65481995Y-65752609D01*
X65447081Y-65903840D01*
X65442776Y-65922485D01*
X65442500Y-65927272D01*
X65442500Y-66704728D01*
X65442776Y-66709515D01*
X65443976Y-66714711D01*
X65443976Y-66714714D01*
X65463269Y-66798279D01*
X65483579Y-66886252D01*
X65562524Y-67049557D01*
X65675687Y-67191313D01*
X65681190Y-67195706D01*
X65788333Y-67281238D01*
X65829092Y-67339369D01*
X65831952Y-67410308D01*
X65796006Y-67471532D01*
X65776034Y-67486848D01*
X65754969Y-67499884D01*
X65748077Y-67506788D01*
X65746613Y-67507589D01*
X65744062Y-67509611D01*
X65743716Y-67509174D01*
X65685796Y-67540866D01*
X65614976Y-67535863D01*
X65569890Y-67506944D01*
X65567184Y-67504243D01*
X65562003Y-67499071D01*
X65555772Y-67495230D01*
X65420150Y-67411631D01*
X65420148Y-67411630D01*
X65413920Y-67407791D01*
X65248809Y-67353026D01*
X65241973Y-67352326D01*
X65241970Y-67352325D01*
X65190474Y-67347049D01*
X65146072Y-67342500D01*
X64766793Y-67342500D01*
X64698672Y-67322498D01*
X64652179Y-67268842D01*
X64642075Y-67198568D01*
X64668321Y-67137891D01*
X64734657Y-67054793D01*
X64742118Y-67042945D01*
X64814880Y-66892430D01*
X64819532Y-66879220D01*
X64857523Y-66714658D01*
X64858946Y-66704723D01*
X64859000Y-66702847D01*
X64859000Y-66588115D01*
X64854525Y-66572876D01*
X64853135Y-66571671D01*
X64845452Y-66570000D01*
X64023115Y-66570000D01*
X64007876Y-66574475D01*
X64006671Y-66575865D01*
X64005000Y-66583548D01*
X64005000Y-67405882D01*
X64010962Y-67426186D01*
X64010962Y-67497182D01*
X63979239Y-67550702D01*
X63907071Y-67622997D01*
X63903229Y-67629229D01*
X63903228Y-67629231D01*
X63885730Y-67657617D01*
X63832957Y-67705110D01*
X63778471Y-67717500D01*
X63423239Y-67717500D01*
X63355118Y-67697498D01*
X63334144Y-67680595D01*
X63292644Y-67639095D01*
X63258618Y-67576783D01*
X63263683Y-67505968D01*
X63306230Y-67449132D01*
X63372750Y-67424321D01*
X63381739Y-67424000D01*
X63478885Y-67424000D01*
X63494124Y-67419525D01*
X63495329Y-67418135D01*
X63497000Y-67410452D01*
X63497000Y-66043885D01*
X64005000Y-66043885D01*
X64009475Y-66059124D01*
X64010865Y-66060329D01*
X64018548Y-66062000D01*
X64840884Y-66062000D01*
X64856123Y-66057525D01*
X64857328Y-66056135D01*
X64858999Y-66048452D01*
X64858999Y-65929123D01*
X64858946Y-65927286D01*
X64857523Y-65917343D01*
X64819532Y-65752780D01*
X64814880Y-65739570D01*
X64742118Y-65589055D01*
X64734657Y-65577207D01*
X64630347Y-65446540D01*
X64620460Y-65436653D01*
X64489793Y-65332343D01*
X64477945Y-65324882D01*
X64327430Y-65252120D01*
X64314220Y-65247468D01*
X64149658Y-65209477D01*
X64139723Y-65208054D01*
X64137847Y-65208000D01*
X64023115Y-65208000D01*
X64007876Y-65212475D01*
X64006671Y-65213865D01*
X64005000Y-65221548D01*
X64005000Y-66043885D01*
X63497000Y-66043885D01*
X63497000Y-65226116D01*
X63492525Y-65210877D01*
X63491135Y-65209672D01*
X63483452Y-65208001D01*
X63364123Y-65208001D01*
X63362286Y-65208054D01*
X63352343Y-65209477D01*
X63187780Y-65247468D01*
X63174570Y-65252120D01*
X63024055Y-65324882D01*
X63012201Y-65332347D01*
X62914610Y-65410253D01*
X62848894Y-65437121D01*
X62779084Y-65424194D01*
X62727345Y-65375577D01*
X62710001Y-65311782D01*
X62710001Y-63927637D01*
X62711079Y-63911191D01*
X62714173Y-63887689D01*
X62715251Y-63879501D01*
X62710001Y-63839623D01*
X62710001Y-63839616D01*
X62698573Y-63752813D01*
X62695417Y-63728839D01*
X62694339Y-63720651D01*
X62633025Y-63572626D01*
X62615298Y-63549523D01*
X62589228Y-63515549D01*
X62577554Y-63500335D01*
X63843000Y-63500335D01*
X63843193Y-63505261D01*
X63848614Y-63574140D01*
X63850561Y-63585467D01*
X63895401Y-63752813D01*
X63900102Y-63765059D01*
X63978378Y-63918682D01*
X63985530Y-63929696D01*
X64094034Y-64063689D01*
X64103311Y-64072966D01*
X64237304Y-64181470D01*
X64248318Y-64188622D01*
X64401941Y-64266898D01*
X64414187Y-64271599D01*
X64581533Y-64316439D01*
X64592860Y-64318386D01*
X64661739Y-64323807D01*
X64666665Y-64324000D01*
X64878885Y-64324000D01*
X64894124Y-64319525D01*
X64895329Y-64318135D01*
X64897000Y-64310452D01*
X64897000Y-64305885D01*
X65405000Y-64305885D01*
X65409475Y-64321124D01*
X65410865Y-64322329D01*
X65418548Y-64324000D01*
X65635335Y-64324000D01*
X65640261Y-64323807D01*
X65709140Y-64318386D01*
X65720467Y-64316439D01*
X65887813Y-64271599D01*
X65900059Y-64266898D01*
X66053682Y-64188622D01*
X66064696Y-64181470D01*
X66198689Y-64072966D01*
X66207966Y-64063689D01*
X66316470Y-63929696D01*
X66323622Y-63918682D01*
X66401898Y-63765059D01*
X66406599Y-63752813D01*
X66451439Y-63585467D01*
X66453386Y-63574140D01*
X66458807Y-63505261D01*
X66459000Y-63500335D01*
X66459000Y-63338115D01*
X66454525Y-63322876D01*
X66453135Y-63321671D01*
X66445452Y-63320000D01*
X65423115Y-63320000D01*
X65407876Y-63324475D01*
X65406671Y-63325865D01*
X65405000Y-63333548D01*
X65405000Y-64305885D01*
X64897000Y-64305885D01*
X64897000Y-63338115D01*
X64892525Y-63322876D01*
X64891135Y-63321671D01*
X64883452Y-63320000D01*
X63861115Y-63320000D01*
X63845876Y-63324475D01*
X63844671Y-63325865D01*
X63843000Y-63333548D01*
X63843000Y-63500335D01*
X62577554Y-63500335D01*
X62573191Y-63494649D01*
X62559978Y-63477429D01*
X62559966Y-63477414D01*
X62545872Y-63459047D01*
X62535488Y-63445514D01*
X62528933Y-63440484D01*
X62510122Y-63426049D01*
X62497731Y-63415182D01*
X62494405Y-63411856D01*
X62460379Y-63349544D01*
X62457500Y-63322761D01*
X62457500Y-62793885D01*
X63843000Y-62793885D01*
X63847475Y-62809124D01*
X63848865Y-62810329D01*
X63856548Y-62812000D01*
X64878885Y-62812000D01*
X64894124Y-62807525D01*
X64895329Y-62806135D01*
X64897000Y-62798452D01*
X64897000Y-62793885D01*
X65405000Y-62793885D01*
X65409475Y-62809124D01*
X65410865Y-62810329D01*
X65418548Y-62812000D01*
X66440885Y-62812000D01*
X66456124Y-62807525D01*
X66457329Y-62806135D01*
X66459000Y-62798452D01*
X66459000Y-62631666D01*
X66458807Y-62626739D01*
X66453386Y-62557860D01*
X66451439Y-62546533D01*
X66406599Y-62379187D01*
X66401898Y-62366941D01*
X66323622Y-62213318D01*
X66316470Y-62202304D01*
X66207966Y-62068311D01*
X66198689Y-62059034D01*
X66064696Y-61950530D01*
X66053682Y-61943378D01*
X65900059Y-61865102D01*
X65887813Y-61860401D01*
X65720467Y-61815561D01*
X65709140Y-61813614D01*
X65640261Y-61808193D01*
X65635334Y-61808000D01*
X65423115Y-61808000D01*
X65407876Y-61812475D01*
X65406671Y-61813865D01*
X65405000Y-61821548D01*
X65405000Y-62793885D01*
X64897000Y-62793885D01*
X64897000Y-61826115D01*
X64892525Y-61810876D01*
X64891135Y-61809671D01*
X64883452Y-61808000D01*
X64666666Y-61808000D01*
X64661739Y-61808193D01*
X64592860Y-61813614D01*
X64581533Y-61815561D01*
X64414187Y-61860401D01*
X64401941Y-61865102D01*
X64248318Y-61943378D01*
X64237304Y-61950530D01*
X64103311Y-62059034D01*
X64094034Y-62068311D01*
X63985530Y-62202304D01*
X63978378Y-62213318D01*
X63900102Y-62366941D01*
X63895401Y-62379187D01*
X63850561Y-62546533D01*
X63848614Y-62557860D01*
X63843193Y-62626739D01*
X63843000Y-62631666D01*
X63843000Y-62793885D01*
X62457500Y-62793885D01*
X62457500Y-62405136D01*
X62458578Y-62388690D01*
X62461672Y-62365188D01*
X62462750Y-62357000D01*
X62457500Y-62317122D01*
X62457500Y-62317115D01*
X62441838Y-62198150D01*
X62380524Y-62050125D01*
X62348085Y-62007850D01*
X62307477Y-61954928D01*
X62307474Y-61954925D01*
X62298614Y-61943378D01*
X62288016Y-61929566D01*
X62288013Y-61929563D01*
X62282987Y-61923013D01*
X62276432Y-61917983D01*
X62257621Y-61903548D01*
X62245230Y-61892681D01*
X61805315Y-61452766D01*
X61794448Y-61440375D01*
X61780013Y-61421563D01*
X61774987Y-61415013D01*
X61743075Y-61390526D01*
X61743072Y-61390523D01*
X61647876Y-61317476D01*
X61499851Y-61256162D01*
X61491664Y-61255084D01*
X61491663Y-61255084D01*
X61480458Y-61253609D01*
X61449262Y-61249502D01*
X61380885Y-61240500D01*
X61380882Y-61240500D01*
X61380874Y-61240499D01*
X61349189Y-61236328D01*
X61341000Y-61235250D01*
X61309307Y-61239422D01*
X61292864Y-61240500D01*
X58903436Y-61240500D01*
X58835315Y-61220498D01*
X58796292Y-61180803D01*
X58777970Y-61151195D01*
X58777964Y-61151188D01*
X58774116Y-61144969D01*
X58759062Y-61129941D01*
X58656184Y-61027242D01*
X58656179Y-61027238D01*
X58651003Y-61022071D01*
X58502920Y-60930791D01*
X58337809Y-60876026D01*
X58330973Y-60875326D01*
X58330970Y-60875325D01*
X58279474Y-60870049D01*
X58235072Y-60865500D01*
X57635928Y-60865500D01*
X57632682Y-60865837D01*
X57632678Y-60865837D01*
X57538765Y-60875581D01*
X57538761Y-60875582D01*
X57531907Y-60876293D01*
X57525371Y-60878474D01*
X57525369Y-60878474D01*
X57392605Y-60922768D01*
X57366893Y-60931346D01*
X57218969Y-61022884D01*
X57213796Y-61028066D01*
X57112253Y-61129786D01*
X57049970Y-61163865D01*
X56979150Y-61158862D01*
X56934063Y-61129941D01*
X56831188Y-61027246D01*
X56831183Y-61027242D01*
X56826003Y-61022071D01*
X56677920Y-60930791D01*
X56512809Y-60876026D01*
X56505973Y-60875326D01*
X56505970Y-60875325D01*
X56454474Y-60870049D01*
X56410072Y-60865500D01*
X55810928Y-60865500D01*
X55807682Y-60865837D01*
X55807678Y-60865837D01*
X55713765Y-60875581D01*
X55713761Y-60875582D01*
X55706907Y-60876293D01*
X55700371Y-60878474D01*
X55700369Y-60878474D01*
X55567605Y-60922768D01*
X55541893Y-60931346D01*
X55393969Y-61022884D01*
X55388796Y-61028066D01*
X55276242Y-61140816D01*
X55276238Y-61140821D01*
X55271071Y-61145997D01*
X55267231Y-61152227D01*
X55267230Y-61152228D01*
X55203829Y-61255084D01*
X55179791Y-61294080D01*
X55125026Y-61459191D01*
X55114500Y-61561928D01*
X55114500Y-62136072D01*
X55114837Y-62139318D01*
X55114837Y-62139322D01*
X55122515Y-62213318D01*
X55125293Y-62240093D01*
X55127474Y-62246629D01*
X55127474Y-62246631D01*
X55164296Y-62357000D01*
X55180346Y-62405107D01*
X55271884Y-62553031D01*
X55394997Y-62675929D01*
X55399949Y-62678981D01*
X55400838Y-62680236D01*
X55406864Y-62683245D01*
X55412960Y-62687002D01*
X55460457Y-62739771D01*
X55471886Y-62809841D01*
X55443617Y-62874967D01*
X55436029Y-62883281D01*
X55435483Y-62883828D01*
X55373202Y-62917910D01*
X55302382Y-62912910D01*
X55270897Y-62895387D01*
X55267057Y-62891547D01*
X55262772Y-62889013D01*
X55262177Y-62888189D01*
X55257358Y-62885811D01*
X55151546Y-62823234D01*
X55123851Y-62806855D01*
X55116240Y-62804644D01*
X55116238Y-62804643D01*
X55031972Y-62780162D01*
X54964081Y-62760438D01*
X54957676Y-62759934D01*
X54957671Y-62759933D01*
X54929208Y-62757693D01*
X54929200Y-62757693D01*
X54926752Y-62757500D01*
X53768748Y-62757500D01*
X53766300Y-62757693D01*
X53766292Y-62757693D01*
X53737829Y-62759933D01*
X53737824Y-62759934D01*
X53731419Y-62760438D01*
X53663528Y-62780162D01*
X53579262Y-62804643D01*
X53579260Y-62804644D01*
X53571649Y-62806855D01*
X53546991Y-62821438D01*
X53435270Y-62887509D01*
X53435267Y-62887511D01*
X53428443Y-62891547D01*
X53310797Y-63009193D01*
X53308357Y-63013319D01*
X53251930Y-63054066D01*
X53181038Y-63057914D01*
X53119319Y-63022825D01*
X53110373Y-63012500D01*
X53103698Y-63003895D01*
X52997354Y-62897551D01*
X52984928Y-62887911D01*
X52855471Y-62811352D01*
X52841040Y-62805107D01*
X52695185Y-62762731D01*
X52682583Y-62760430D01*
X52654166Y-62758193D01*
X52649236Y-62758000D01*
X52344865Y-62758000D01*
X52329626Y-62762475D01*
X52328421Y-62763865D01*
X52326750Y-62771548D01*
X52326750Y-63581500D01*
X52306748Y-63649621D01*
X52253092Y-63696114D01*
X52200750Y-63707500D01*
X51493748Y-63707500D01*
X51491300Y-63707693D01*
X51491292Y-63707693D01*
X51462829Y-63709933D01*
X51462824Y-63709934D01*
X51456419Y-63710438D01*
X51393082Y-63728839D01*
X51304262Y-63754643D01*
X51304260Y-63754644D01*
X51296649Y-63756855D01*
X51289822Y-63760892D01*
X51289823Y-63760892D01*
X51219547Y-63802453D01*
X51155408Y-63820000D01*
X50923372Y-63820000D01*
X50909843Y-63823973D01*
X50905994Y-63850741D01*
X50876501Y-63915322D01*
X50829492Y-63949219D01*
X50805688Y-63959079D01*
X50744374Y-63984476D01*
X50712952Y-64008587D01*
X50646735Y-64034187D01*
X50577186Y-64019923D01*
X50526390Y-63970322D01*
X50518965Y-63941938D01*
X50515354Y-63942998D01*
X50505775Y-63910376D01*
X50504385Y-63909171D01*
X50496702Y-63907500D01*
X48562365Y-63907500D01*
X48547126Y-63911975D01*
X48545921Y-63913365D01*
X48544250Y-63921048D01*
X48544250Y-63999766D01*
X48544587Y-64006282D01*
X48554325Y-64100132D01*
X48557218Y-64113528D01*
X48607738Y-64264953D01*
X48613903Y-64278115D01*
X48697676Y-64413492D01*
X48706714Y-64424894D01*
X48708389Y-64426567D01*
X48709169Y-64427993D01*
X48711257Y-64430627D01*
X48710806Y-64430984D01*
X48742469Y-64488849D01*
X48737466Y-64559669D01*
X48708549Y-64604754D01*
X48708225Y-64605079D01*
X48700321Y-64612997D01*
X48696481Y-64619227D01*
X48696480Y-64619228D01*
X48613540Y-64753782D01*
X48609041Y-64761080D01*
X48554276Y-64926191D01*
X48553576Y-64933027D01*
X48553575Y-64933030D01*
X48548668Y-64980925D01*
X48543750Y-65028928D01*
X48543750Y-65728072D01*
X48544087Y-65731318D01*
X48544087Y-65731322D01*
X48552509Y-65812487D01*
X48554543Y-65832093D01*
X48556724Y-65838629D01*
X48556724Y-65838631D01*
X48584700Y-65922485D01*
X48609596Y-65997107D01*
X48643455Y-66051823D01*
X48646315Y-66056444D01*
X48665153Y-66124896D01*
X48659004Y-66161684D01*
X48638499Y-66224789D01*
X48638498Y-66224793D01*
X48636458Y-66231072D01*
X48635768Y-66237638D01*
X48635767Y-66237642D01*
X48624959Y-66340480D01*
X48616496Y-66421000D01*
X48617186Y-66427565D01*
X48632459Y-66572876D01*
X48636458Y-66610928D01*
X48695473Y-66792556D01*
X48790960Y-66957944D01*
X48795378Y-66962851D01*
X48795379Y-66962852D01*
X48873677Y-67049811D01*
X48918747Y-67099866D01*
X49073248Y-67212118D01*
X49079276Y-67214802D01*
X49079278Y-67214803D01*
X49241681Y-67287109D01*
X49247712Y-67289794D01*
X49341113Y-67309647D01*
X49428056Y-67328128D01*
X49428061Y-67328128D01*
X49434513Y-67329500D01*
X49625487Y-67329500D01*
X49631939Y-67328128D01*
X49631944Y-67328128D01*
X49718887Y-67309647D01*
X49812288Y-67289794D01*
X49818319Y-67287109D01*
X49980722Y-67214803D01*
X49980724Y-67214802D01*
X49986752Y-67212118D01*
X50141253Y-67099866D01*
X50186323Y-67049811D01*
X50264621Y-66962852D01*
X50264622Y-66962851D01*
X50269040Y-66957944D01*
X50364527Y-66792556D01*
X50423542Y-66610928D01*
X50427542Y-66572876D01*
X50442814Y-66427565D01*
X50443504Y-66421000D01*
X50435041Y-66340480D01*
X50424233Y-66237642D01*
X50424232Y-66237638D01*
X50423542Y-66231072D01*
X50421502Y-66224793D01*
X50421501Y-66224789D01*
X50399086Y-66155806D01*
X50397058Y-66084838D01*
X50411660Y-66050752D01*
X50441618Y-66002152D01*
X50441620Y-66002149D01*
X50445459Y-65995920D01*
X50454365Y-65969069D01*
X50497254Y-65908775D01*
X50590822Y-65836977D01*
X50590825Y-65836974D01*
X50598859Y-65830809D01*
X50622737Y-65812487D01*
X50627767Y-65805932D01*
X50642202Y-65787121D01*
X50653069Y-65774730D01*
X50710153Y-65717646D01*
X50772465Y-65683620D01*
X50843280Y-65688685D01*
X50900116Y-65731232D01*
X50920245Y-65771588D01*
X50949356Y-65871788D01*
X50955602Y-65886221D01*
X51032161Y-66015678D01*
X51041801Y-66028104D01*
X51148146Y-66134449D01*
X51160572Y-66144089D01*
X51290029Y-66220648D01*
X51304462Y-66226894D01*
X51341902Y-66237771D01*
X51401737Y-66275984D01*
X51431415Y-66340480D01*
X51421512Y-66410782D01*
X51414009Y-66424884D01*
X51371614Y-66493662D01*
X51367041Y-66501080D01*
X51312276Y-66666191D01*
X51311576Y-66673027D01*
X51311575Y-66673030D01*
X51306299Y-66724526D01*
X51301750Y-66768928D01*
X51301750Y-67343072D01*
X51302087Y-67346318D01*
X51302087Y-67346322D01*
X51310374Y-67426186D01*
X51312543Y-67447093D01*
X51314724Y-67453629D01*
X51314724Y-67453631D01*
X51342159Y-67535863D01*
X51367596Y-67612107D01*
X51459134Y-67760031D01*
X51481099Y-67781957D01*
X51515179Y-67844238D01*
X51510177Y-67915059D01*
X51501205Y-67934124D01*
X51489473Y-67954444D01*
X51430458Y-68136072D01*
X51429768Y-68142633D01*
X51429768Y-68142635D01*
X51411186Y-68319435D01*
X51410496Y-68326000D01*
X51411186Y-68332565D01*
X51428608Y-68498322D01*
X51430458Y-68515928D01*
X51489473Y-68697556D01*
X51584960Y-68862944D01*
X51589378Y-68867851D01*
X51589379Y-68867852D01*
X51708325Y-68999955D01*
X51712747Y-69004866D01*
X51783182Y-69056040D01*
X51859012Y-69111134D01*
X51867248Y-69117118D01*
X51873276Y-69119802D01*
X51873278Y-69119803D01*
X51954509Y-69155969D01*
X52041712Y-69194794D01*
X52135113Y-69214647D01*
X52222056Y-69233128D01*
X52222061Y-69233128D01*
X52228513Y-69234500D01*
X52419487Y-69234500D01*
X52425939Y-69233128D01*
X52425944Y-69233128D01*
X52512887Y-69214647D01*
X52606288Y-69194794D01*
X52693491Y-69155969D01*
X52774722Y-69119803D01*
X52774724Y-69119802D01*
X52780752Y-69117118D01*
X52788989Y-69111134D01*
X52864818Y-69056040D01*
X52935253Y-69004866D01*
X52939675Y-68999955D01*
X53058621Y-68867852D01*
X53058622Y-68867851D01*
X53063040Y-68862944D01*
X53158527Y-68697556D01*
X53217542Y-68515928D01*
X53219393Y-68498322D01*
X53236814Y-68332565D01*
X53237504Y-68326000D01*
X53236814Y-68319435D01*
X53218232Y-68142635D01*
X53218232Y-68142633D01*
X53217542Y-68136072D01*
X53208410Y-68107968D01*
X53198194Y-68076524D01*
X53196167Y-68005556D01*
X53232829Y-67944758D01*
X53296542Y-67913433D01*
X53367076Y-67921527D01*
X53384144Y-67930329D01*
X53449098Y-67970368D01*
X53449101Y-67970369D01*
X53455330Y-67974209D01*
X53620441Y-68028974D01*
X53627277Y-68029674D01*
X53627280Y-68029675D01*
X53678776Y-68034951D01*
X53723178Y-68039500D01*
X54422322Y-68039500D01*
X54425568Y-68039163D01*
X54425572Y-68039163D01*
X54519485Y-68029419D01*
X54519489Y-68029418D01*
X54526343Y-68028707D01*
X54532879Y-68026526D01*
X54532881Y-68026526D01*
X54677899Y-67978144D01*
X54691357Y-67973654D01*
X54839281Y-67882116D01*
X54844454Y-67876934D01*
X54957008Y-67764184D01*
X54957012Y-67764179D01*
X54962179Y-67759003D01*
X54966020Y-67752772D01*
X55049619Y-67617150D01*
X55049620Y-67617148D01*
X55053459Y-67610920D01*
X55081040Y-67527766D01*
X57141500Y-67527766D01*
X57141837Y-67534282D01*
X57151575Y-67628132D01*
X57154468Y-67641528D01*
X57204988Y-67792953D01*
X57211153Y-67806115D01*
X57294926Y-67941492D01*
X57303960Y-67952890D01*
X57416629Y-68065363D01*
X57428040Y-68074375D01*
X57563563Y-68157912D01*
X57576741Y-68164056D01*
X57728266Y-68214315D01*
X57741632Y-68217181D01*
X57834270Y-68226672D01*
X57840685Y-68227000D01*
X57914885Y-68227000D01*
X57930124Y-68222525D01*
X57931329Y-68221135D01*
X57933000Y-68213452D01*
X57933000Y-67516115D01*
X57928525Y-67500876D01*
X57927135Y-67499671D01*
X57919452Y-67498000D01*
X57159615Y-67498000D01*
X57144376Y-67502475D01*
X57143171Y-67503865D01*
X57141500Y-67511548D01*
X57141500Y-67527766D01*
X55081040Y-67527766D01*
X55108224Y-67445809D01*
X55109318Y-67435137D01*
X55115049Y-67379192D01*
X55118750Y-67343072D01*
X55118750Y-66768928D01*
X55116036Y-66742767D01*
X55108669Y-66671765D01*
X55108668Y-66671761D01*
X55107957Y-66664907D01*
X55052904Y-66499893D01*
X55006877Y-66425514D01*
X54988039Y-66357062D01*
X55009200Y-66289292D01*
X55063641Y-66243721D01*
X55078868Y-66238214D01*
X55116238Y-66227357D01*
X55116240Y-66227356D01*
X55123851Y-66225145D01*
X55168633Y-66198661D01*
X55237449Y-66181201D01*
X55304780Y-66203718D01*
X55349250Y-66259062D01*
X55358082Y-66320283D01*
X55347496Y-66421000D01*
X55348186Y-66427565D01*
X55363459Y-66572876D01*
X55367458Y-66610928D01*
X55426473Y-66792556D01*
X55521960Y-66957944D01*
X55526378Y-66962851D01*
X55526379Y-66962852D01*
X55604677Y-67049811D01*
X55649747Y-67099866D01*
X55804248Y-67212118D01*
X55810276Y-67214802D01*
X55810278Y-67214803D01*
X55972681Y-67287109D01*
X55978712Y-67289794D01*
X56072113Y-67309647D01*
X56159056Y-67328128D01*
X56159061Y-67328128D01*
X56165513Y-67329500D01*
X56356487Y-67329500D01*
X56362939Y-67328128D01*
X56362944Y-67328128D01*
X56449887Y-67309647D01*
X56543288Y-67289794D01*
X56549319Y-67287109D01*
X56711722Y-67214803D01*
X56711724Y-67214802D01*
X56717752Y-67212118D01*
X56872253Y-67099866D01*
X56923265Y-67043212D01*
X56966519Y-66995173D01*
X57026965Y-66957933D01*
X57097949Y-66959285D01*
X57142667Y-66984258D01*
X57147365Y-66988329D01*
X57155048Y-66990000D01*
X57914885Y-66990000D01*
X57930124Y-66985525D01*
X57931329Y-66984135D01*
X57933000Y-66976452D01*
X57933000Y-66393115D01*
X57918470Y-66343631D01*
X57917099Y-66341497D01*
X57912000Y-66306014D01*
X57912000Y-64737116D01*
X57907525Y-64721877D01*
X57906135Y-64720672D01*
X57898452Y-64719001D01*
X57589517Y-64719001D01*
X57584580Y-64719195D01*
X57556164Y-64721430D01*
X57543569Y-64723730D01*
X57397710Y-64766107D01*
X57383279Y-64772352D01*
X57343405Y-64795933D01*
X57274588Y-64813392D01*
X57207257Y-64790875D01*
X57172125Y-64753786D01*
X57084366Y-64611969D01*
X57077462Y-64605077D01*
X57076661Y-64603613D01*
X57074639Y-64601062D01*
X57075076Y-64600716D01*
X57043384Y-64542796D01*
X57048387Y-64471976D01*
X57077306Y-64426890D01*
X57080007Y-64424184D01*
X57085179Y-64419003D01*
X57116515Y-64368167D01*
X57169286Y-64320675D01*
X57239358Y-64309251D01*
X57287911Y-64325829D01*
X57389899Y-64386145D01*
X57397510Y-64388356D01*
X57397512Y-64388357D01*
X57449731Y-64403528D01*
X57549669Y-64432562D01*
X57556074Y-64433066D01*
X57556079Y-64433067D01*
X57584542Y-64435307D01*
X57584550Y-64435307D01*
X57586998Y-64435500D01*
X58447500Y-64435500D01*
X58515621Y-64455502D01*
X58562114Y-64509158D01*
X58573500Y-64561500D01*
X58573500Y-64593000D01*
X58553498Y-64661121D01*
X58499842Y-64707614D01*
X58447500Y-64719000D01*
X58438115Y-64719000D01*
X58422876Y-64723475D01*
X58421671Y-64724865D01*
X58420000Y-64732548D01*
X58420000Y-66202885D01*
X58434530Y-66252369D01*
X58435901Y-66254503D01*
X58441000Y-66289986D01*
X58441000Y-68208885D01*
X58445475Y-68224124D01*
X58446865Y-68225329D01*
X58454548Y-68227000D01*
X58533266Y-68227000D01*
X58539782Y-68226663D01*
X58633632Y-68216925D01*
X58647028Y-68214032D01*
X58784347Y-68168219D01*
X58855297Y-68165635D01*
X58916381Y-68201819D01*
X58948205Y-68265283D01*
X58944056Y-68326678D01*
X58923458Y-68390072D01*
X58922768Y-68396633D01*
X58922768Y-68396635D01*
X58915361Y-68467110D01*
X58903496Y-68580000D01*
X58904186Y-68586565D01*
X58919748Y-68734625D01*
X58923458Y-68769928D01*
X58982473Y-68951556D01*
X59077960Y-69116944D01*
X59082378Y-69121851D01*
X59082379Y-69121852D01*
X59113098Y-69155969D01*
X59205747Y-69258866D01*
X59304843Y-69330864D01*
X59347444Y-69361815D01*
X59360248Y-69371118D01*
X59366276Y-69373802D01*
X59366278Y-69373803D01*
X59528681Y-69446109D01*
X59534712Y-69448794D01*
X59598888Y-69462435D01*
X59715056Y-69487128D01*
X59715061Y-69487128D01*
X59721513Y-69488500D01*
X59912487Y-69488500D01*
X59918939Y-69487128D01*
X59918944Y-69487128D01*
X60032917Y-69462902D01*
X60103708Y-69468304D01*
X60160341Y-69511121D01*
X60184424Y-69572978D01*
X60189972Y-69625759D01*
X60193458Y-69658928D01*
X60252473Y-69840556D01*
X60347960Y-70005944D01*
X60352378Y-70010851D01*
X60352379Y-70010852D01*
X60397679Y-70061163D01*
X60475747Y-70147866D01*
X60630248Y-70260118D01*
X60636276Y-70262802D01*
X60636278Y-70262803D01*
X60798681Y-70335109D01*
X60804712Y-70337794D01*
X60895746Y-70357144D01*
X60985056Y-70376128D01*
X60985061Y-70376128D01*
X60991513Y-70377500D01*
X61182487Y-70377500D01*
X61188939Y-70376128D01*
X61188944Y-70376128D01*
X61278254Y-70357144D01*
X61369288Y-70337794D01*
X61375319Y-70335109D01*
X61537722Y-70262803D01*
X61537724Y-70262802D01*
X61543752Y-70260118D01*
X61698253Y-70147866D01*
X61776321Y-70061163D01*
X61821621Y-70010852D01*
X61821622Y-70010851D01*
X61826040Y-70005944D01*
X61921527Y-69840556D01*
X61980542Y-69658928D01*
X61987807Y-69589811D01*
X61999814Y-69475565D01*
X62000504Y-69469000D01*
X61998982Y-69454521D01*
X61981232Y-69285635D01*
X61981232Y-69285633D01*
X61980542Y-69279072D01*
X61921527Y-69097444D01*
X61916075Y-69088000D01*
X61868077Y-69004866D01*
X61826040Y-68932056D01*
X61815109Y-68919916D01*
X61727864Y-68823020D01*
X61697146Y-68759013D01*
X61695500Y-68738710D01*
X61695500Y-68067239D01*
X61715502Y-67999118D01*
X61769158Y-67952625D01*
X61839432Y-67942521D01*
X61904012Y-67972015D01*
X61910595Y-67978144D01*
X62654685Y-68722234D01*
X62665552Y-68734625D01*
X62685013Y-68759987D01*
X62691563Y-68765013D01*
X62716921Y-68784471D01*
X62716937Y-68784485D01*
X62760791Y-68818135D01*
X62812124Y-68857524D01*
X62960149Y-68918838D01*
X62968336Y-68919916D01*
X62968337Y-68919916D01*
X62979542Y-68921391D01*
X63010738Y-68925498D01*
X63079115Y-68934500D01*
X63079118Y-68934500D01*
X63079126Y-68934501D01*
X63110811Y-68938672D01*
X63119000Y-68939750D01*
X63150693Y-68935578D01*
X63167136Y-68934500D01*
X63778564Y-68934500D01*
X63846685Y-68954502D01*
X63885708Y-68994197D01*
X63904030Y-69023805D01*
X63904036Y-69023812D01*
X63907884Y-69030031D01*
X63913062Y-69035200D01*
X64025816Y-69147758D01*
X64025821Y-69147762D01*
X64030997Y-69152929D01*
X64179080Y-69244209D01*
X64344191Y-69298974D01*
X64351027Y-69299674D01*
X64351030Y-69299675D01*
X64402526Y-69304951D01*
X64446928Y-69309500D01*
X65146072Y-69309500D01*
X65149318Y-69309163D01*
X65149322Y-69309163D01*
X65243235Y-69299419D01*
X65243239Y-69299418D01*
X65250093Y-69298707D01*
X65256629Y-69296526D01*
X65256631Y-69296526D01*
X65389395Y-69252232D01*
X65415107Y-69243654D01*
X65498403Y-69192109D01*
X65556805Y-69155969D01*
X65556806Y-69155968D01*
X65563031Y-69152116D01*
X65569923Y-69145212D01*
X65571387Y-69144411D01*
X65573938Y-69142389D01*
X65574284Y-69142826D01*
X65632204Y-69111134D01*
X65703024Y-69116137D01*
X65748110Y-69145056D01*
X65750616Y-69147557D01*
X65755997Y-69152929D01*
X65904080Y-69244209D01*
X66069191Y-69298974D01*
X66076027Y-69299674D01*
X66076030Y-69299675D01*
X66127526Y-69304951D01*
X66171928Y-69309500D01*
X66871072Y-69309500D01*
X66874318Y-69309163D01*
X66874322Y-69309163D01*
X66968235Y-69299419D01*
X66968239Y-69299418D01*
X66975093Y-69298707D01*
X66981629Y-69296526D01*
X66981631Y-69296526D01*
X67114395Y-69252232D01*
X67140107Y-69243654D01*
X67288031Y-69152116D01*
X67328850Y-69111226D01*
X67405758Y-69034184D01*
X67405762Y-69034179D01*
X67410929Y-69029003D01*
X67432384Y-68994197D01*
X67498369Y-68887150D01*
X67498370Y-68887148D01*
X67502209Y-68880920D01*
X67556974Y-68715809D01*
X67560595Y-68680472D01*
X67563821Y-68648984D01*
X67567500Y-68613072D01*
X67567500Y-68038928D01*
X67566540Y-68029675D01*
X67557419Y-67941765D01*
X67557418Y-67941761D01*
X67556707Y-67934907D01*
X67540381Y-67885970D01*
X67503972Y-67776841D01*
X67501654Y-67769893D01*
X67410116Y-67621969D01*
X67384062Y-67595960D01*
X67292180Y-67504239D01*
X67287003Y-67499071D01*
X67285712Y-67498275D01*
X67246027Y-67442304D01*
X67242795Y-67371381D01*
X67278420Y-67309969D01*
X67286573Y-67302867D01*
X67420810Y-67195706D01*
X67426313Y-67191313D01*
X67539476Y-67049557D01*
X67618421Y-66886252D01*
X67638731Y-66798279D01*
X67658024Y-66714714D01*
X67658024Y-66714711D01*
X67659224Y-66709515D01*
X67659500Y-66704728D01*
X67659500Y-66120239D01*
X67679502Y-66052118D01*
X67696405Y-66031144D01*
X69074143Y-64653405D01*
X69136455Y-64619380D01*
X69163238Y-64616500D01*
X69635500Y-64616500D01*
X69703621Y-64636502D01*
X69750114Y-64690158D01*
X69761500Y-64742500D01*
X69761500Y-64906134D01*
X69768255Y-64968316D01*
X69819385Y-65104705D01*
X69906739Y-65221261D01*
X70023295Y-65308615D01*
X70031704Y-65311767D01*
X70031705Y-65311768D01*
X70140451Y-65352535D01*
X70197216Y-65395176D01*
X70221916Y-65461738D01*
X70206709Y-65531087D01*
X70187316Y-65557568D01*
X70060629Y-65690138D01*
X70057715Y-65694410D01*
X70057714Y-65694411D01*
X70005068Y-65771588D01*
X69934743Y-65874680D01*
X69919007Y-65908580D01*
X69849870Y-66057525D01*
X69840688Y-66077305D01*
X69780989Y-66292570D01*
X69757251Y-66514695D01*
X69757548Y-66519848D01*
X69757548Y-66519851D01*
X69763202Y-66617908D01*
X69770110Y-66737715D01*
X69771247Y-66742761D01*
X69771248Y-66742767D01*
X69782469Y-66792556D01*
X69819222Y-66955639D01*
X69903266Y-67162616D01*
X69933601Y-67212118D01*
X70015810Y-67346271D01*
X70019987Y-67353088D01*
X70166250Y-67521938D01*
X70338126Y-67664632D01*
X70365444Y-67680595D01*
X70411445Y-67707476D01*
X70460169Y-67759114D01*
X70473240Y-67828897D01*
X70446509Y-67894669D01*
X70406055Y-67928027D01*
X70393607Y-67934507D01*
X70389474Y-67937610D01*
X70389471Y-67937612D01*
X70219100Y-68065530D01*
X70214965Y-68068635D01*
X70176823Y-68108548D01*
X70065225Y-68225329D01*
X70060629Y-68230138D01*
X70057715Y-68234410D01*
X70057714Y-68234411D01*
X70042260Y-68257066D01*
X69934743Y-68414680D01*
X69933945Y-68416400D01*
X69883589Y-68465088D01*
X69825074Y-68479500D01*
X68882136Y-68479500D01*
X68865693Y-68478422D01*
X68834000Y-68474250D01*
X68825811Y-68475328D01*
X68794126Y-68479499D01*
X68794117Y-68479500D01*
X68794115Y-68479500D01*
X68794109Y-68479501D01*
X68794107Y-68479501D01*
X68694543Y-68492609D01*
X68683336Y-68494084D01*
X68683334Y-68494085D01*
X68675149Y-68495162D01*
X68527124Y-68556476D01*
X68481305Y-68591634D01*
X68431937Y-68629515D01*
X68431921Y-68629529D01*
X68406566Y-68648984D01*
X68406563Y-68648987D01*
X68400013Y-68654013D01*
X68394983Y-68660568D01*
X68380548Y-68679379D01*
X68369681Y-68691770D01*
X66580856Y-70480595D01*
X66518544Y-70514621D01*
X66491761Y-70517500D01*
X66171928Y-70517500D01*
X66168682Y-70517837D01*
X66168678Y-70517837D01*
X66074765Y-70527581D01*
X66074761Y-70527582D01*
X66067907Y-70528293D01*
X66061371Y-70530474D01*
X66061369Y-70530474D01*
X65928605Y-70574768D01*
X65902893Y-70583346D01*
X65896661Y-70587202D01*
X65896662Y-70587202D01*
X65762490Y-70670230D01*
X65754969Y-70674884D01*
X65748077Y-70681788D01*
X65746613Y-70682589D01*
X65744062Y-70684611D01*
X65743716Y-70684174D01*
X65685796Y-70715866D01*
X65614976Y-70710863D01*
X65569890Y-70681944D01*
X65567184Y-70679243D01*
X65562003Y-70674071D01*
X65555772Y-70670230D01*
X65420150Y-70586631D01*
X65420148Y-70586630D01*
X65413920Y-70582791D01*
X65248809Y-70528026D01*
X65241973Y-70527326D01*
X65241970Y-70527325D01*
X65190474Y-70522049D01*
X65146072Y-70517500D01*
X64446928Y-70517500D01*
X64443682Y-70517837D01*
X64443678Y-70517837D01*
X64349765Y-70527581D01*
X64349761Y-70527582D01*
X64342907Y-70528293D01*
X64336371Y-70530474D01*
X64336369Y-70530474D01*
X64203605Y-70574768D01*
X64177893Y-70583346D01*
X64029969Y-70674884D01*
X64024796Y-70680066D01*
X63912242Y-70792816D01*
X63912238Y-70792821D01*
X63907071Y-70797997D01*
X63903231Y-70804227D01*
X63903230Y-70804228D01*
X63898155Y-70812462D01*
X63815791Y-70946080D01*
X63761026Y-71111191D01*
X63750500Y-71213928D01*
X63750500Y-71788072D01*
X63750837Y-71791318D01*
X63750837Y-71791322D01*
X63753576Y-71817715D01*
X63761293Y-71892093D01*
X63763474Y-71898629D01*
X63763474Y-71898631D01*
X63769292Y-71916069D01*
X63816346Y-72057107D01*
X63907884Y-72205031D01*
X63913066Y-72210204D01*
X64025816Y-72322758D01*
X64025821Y-72322762D01*
X64030997Y-72327929D01*
X64037228Y-72331770D01*
X64037231Y-72331772D01*
X64078117Y-72356975D01*
X64125610Y-72409747D01*
X64138000Y-72464234D01*
X64138000Y-72569830D01*
X64117998Y-72637951D01*
X64078303Y-72676974D01*
X64029969Y-72706884D01*
X64024796Y-72712066D01*
X63912242Y-72824816D01*
X63912238Y-72824821D01*
X63907071Y-72829997D01*
X63903231Y-72836227D01*
X63903230Y-72836228D01*
X63839829Y-72939084D01*
X63815791Y-72978080D01*
X63761026Y-73143191D01*
X63750500Y-73245928D01*
X63750500Y-73820072D01*
X63761293Y-73924093D01*
X63816346Y-74089107D01*
X63907884Y-74237031D01*
X63913066Y-74242204D01*
X64025816Y-74354758D01*
X64025821Y-74354762D01*
X64030997Y-74359929D01*
X64179080Y-74451209D01*
X64344191Y-74505974D01*
X64351027Y-74506674D01*
X64351030Y-74506675D01*
X64402526Y-74511951D01*
X64446928Y-74516500D01*
X65046072Y-74516500D01*
X65049318Y-74516163D01*
X65049322Y-74516163D01*
X65143235Y-74506419D01*
X65143239Y-74506418D01*
X65150093Y-74505707D01*
X65156629Y-74503526D01*
X65156631Y-74503526D01*
X65289395Y-74459232D01*
X65315107Y-74450654D01*
X65463031Y-74359116D01*
X65468204Y-74353934D01*
X65569747Y-74252214D01*
X65632030Y-74218135D01*
X65702850Y-74223138D01*
X65747937Y-74252059D01*
X65850812Y-74354754D01*
X65850817Y-74354758D01*
X65855997Y-74359929D01*
X66004080Y-74451209D01*
X66169191Y-74505974D01*
X66176027Y-74506674D01*
X66176030Y-74506675D01*
X66227526Y-74511951D01*
X66271928Y-74516500D01*
X66871072Y-74516500D01*
X66874318Y-74516163D01*
X66874322Y-74516163D01*
X66968235Y-74506419D01*
X66968239Y-74506418D01*
X66975093Y-74505707D01*
X66981629Y-74503526D01*
X66981631Y-74503526D01*
X67114395Y-74459232D01*
X67140107Y-74450654D01*
X67288031Y-74359116D01*
X67293204Y-74353934D01*
X67405758Y-74241184D01*
X67405762Y-74241179D01*
X67410929Y-74236003D01*
X67414772Y-74229769D01*
X67432270Y-74201383D01*
X67485043Y-74153890D01*
X67539529Y-74141500D01*
X68529761Y-74141500D01*
X68597882Y-74161502D01*
X68618856Y-74178405D01*
X69712428Y-75271977D01*
X69746454Y-75334289D01*
X69741389Y-75405104D01*
X69698842Y-75461940D01*
X69632322Y-75486751D01*
X69583666Y-75480665D01*
X69484234Y-75447685D01*
X69470868Y-75444819D01*
X69378230Y-75435328D01*
X69371815Y-75435000D01*
X69360115Y-75435000D01*
X69344876Y-75439475D01*
X69343671Y-75440865D01*
X69342000Y-75448548D01*
X69342000Y-76208385D01*
X69346475Y-76223624D01*
X69347865Y-76224829D01*
X69355548Y-76226500D01*
X70052885Y-76226500D01*
X70068124Y-76222025D01*
X70069329Y-76220635D01*
X70071000Y-76212952D01*
X70071000Y-76134234D01*
X70070663Y-76127718D01*
X70060925Y-76033868D01*
X70058032Y-76020472D01*
X70025338Y-75922477D01*
X70022754Y-75851528D01*
X70058937Y-75790444D01*
X70122402Y-75758619D01*
X70192997Y-75766158D01*
X70233957Y-75793506D01*
X71109595Y-76669144D01*
X71143621Y-76731456D01*
X71146500Y-76758239D01*
X71146500Y-77292761D01*
X71126498Y-77360882D01*
X71109595Y-77381856D01*
X70979028Y-77512423D01*
X70916716Y-77546449D01*
X70845901Y-77541384D01*
X70802117Y-77511601D01*
X70801455Y-77512337D01*
X70796553Y-77507924D01*
X70792131Y-77503012D01*
X70637630Y-77390760D01*
X70631602Y-77388076D01*
X70631600Y-77388075D01*
X70469197Y-77315769D01*
X70469196Y-77315769D01*
X70463166Y-77313084D01*
X70353568Y-77289788D01*
X70282822Y-77274750D01*
X70282817Y-77274750D01*
X70276365Y-77273378D01*
X70120680Y-77273378D01*
X70052559Y-77253376D01*
X70006066Y-77199720D01*
X69995962Y-77129446D01*
X70006485Y-77094128D01*
X70008058Y-77090755D01*
X70058315Y-76939234D01*
X70061181Y-76925868D01*
X70070672Y-76833230D01*
X70071000Y-76826815D01*
X70071000Y-76752615D01*
X70066525Y-76737376D01*
X70065135Y-76736171D01*
X70057452Y-76734500D01*
X68355115Y-76734500D01*
X68329133Y-76742129D01*
X68287483Y-76768896D01*
X68251984Y-76774000D01*
X66881000Y-76774000D01*
X66812879Y-76753998D01*
X66766386Y-76700342D01*
X66755000Y-76648000D01*
X66755000Y-76247885D01*
X67263000Y-76247885D01*
X67267475Y-76263124D01*
X67268865Y-76264329D01*
X67276548Y-76266000D01*
X68046885Y-76266000D01*
X68072867Y-76258371D01*
X68114517Y-76231604D01*
X68150016Y-76226500D01*
X68815885Y-76226500D01*
X68831124Y-76222025D01*
X68832329Y-76220635D01*
X68834000Y-76212952D01*
X68834000Y-75453115D01*
X68829525Y-75437876D01*
X68828135Y-75436671D01*
X68820452Y-75435000D01*
X68804234Y-75435000D01*
X68797718Y-75435337D01*
X68703868Y-75445075D01*
X68690472Y-75447968D01*
X68539047Y-75498488D01*
X68525885Y-75504653D01*
X68390508Y-75588426D01*
X68379110Y-75597460D01*
X68266637Y-75710129D01*
X68257627Y-75721537D01*
X68250012Y-75733892D01*
X68197240Y-75781386D01*
X68127169Y-75792810D01*
X68067188Y-75768604D01*
X68042652Y-75750216D01*
X68027054Y-75741676D01*
X67906606Y-75696522D01*
X67891351Y-75692895D01*
X67840486Y-75687369D01*
X67833672Y-75687000D01*
X67281115Y-75687000D01*
X67265876Y-75691475D01*
X67264671Y-75692865D01*
X67263000Y-75700548D01*
X67263000Y-76247885D01*
X66755000Y-76247885D01*
X66755000Y-75705116D01*
X66750525Y-75689877D01*
X66749135Y-75688672D01*
X66741452Y-75687001D01*
X66184331Y-75687001D01*
X66177510Y-75687371D01*
X66126648Y-75692895D01*
X66111396Y-75696521D01*
X65990946Y-75741676D01*
X65975351Y-75750214D01*
X65873276Y-75826715D01*
X65860715Y-75839276D01*
X65784214Y-75941351D01*
X65771366Y-75964818D01*
X65769111Y-75963583D01*
X65734608Y-76009514D01*
X65668046Y-76034214D01*
X65598697Y-76019007D01*
X65548579Y-75968721D01*
X65544718Y-75960266D01*
X65542767Y-75956702D01*
X65539615Y-75948295D01*
X65452261Y-75831739D01*
X65335705Y-75744385D01*
X65199316Y-75693255D01*
X65137134Y-75686500D01*
X63480866Y-75686500D01*
X63418684Y-75693255D01*
X63411289Y-75696027D01*
X63411282Y-75696029D01*
X63362006Y-75714502D01*
X63291199Y-75719685D01*
X63243717Y-75698457D01*
X63221063Y-75681998D01*
X63194752Y-75662882D01*
X63188724Y-75660198D01*
X63188722Y-75660197D01*
X63026319Y-75587891D01*
X63026318Y-75587891D01*
X63020288Y-75585206D01*
X62926887Y-75565353D01*
X62839944Y-75546872D01*
X62839939Y-75546872D01*
X62833487Y-75545500D01*
X62642513Y-75545500D01*
X62636061Y-75546872D01*
X62636056Y-75546872D01*
X62549113Y-75565353D01*
X62455712Y-75585206D01*
X62449682Y-75587891D01*
X62449681Y-75587891D01*
X62287278Y-75660197D01*
X62287276Y-75660198D01*
X62281248Y-75662882D01*
X62275907Y-75666762D01*
X62275906Y-75666763D01*
X62248051Y-75687001D01*
X62126747Y-75775134D01*
X62122326Y-75780044D01*
X62122325Y-75780045D01*
X62057962Y-75851528D01*
X61998960Y-75917056D01*
X61903473Y-76082444D01*
X61844458Y-76264072D01*
X61843768Y-76270633D01*
X61843768Y-76270635D01*
X61825186Y-76447435D01*
X61824496Y-76454000D01*
X61825186Y-76460565D01*
X61828688Y-76493880D01*
X61844458Y-76643928D01*
X61861561Y-76696565D01*
X61863589Y-76767530D01*
X61826927Y-76828329D01*
X61763215Y-76859654D01*
X61741728Y-76861500D01*
X53610656Y-76861500D01*
X53594213Y-76860422D01*
X53562520Y-76856250D01*
X53554331Y-76857328D01*
X53522646Y-76861499D01*
X53522637Y-76861500D01*
X53522635Y-76861500D01*
X53522629Y-76861501D01*
X53522627Y-76861501D01*
X53423063Y-76874609D01*
X53411856Y-76876084D01*
X53411854Y-76876085D01*
X53403669Y-76877162D01*
X53255644Y-76938476D01*
X53249093Y-76943503D01*
X53249091Y-76943504D01*
X53181981Y-76995000D01*
X53160448Y-77011523D01*
X53160445Y-77011526D01*
X53128533Y-77036013D01*
X53123503Y-77042568D01*
X53109068Y-77061379D01*
X53098201Y-77073770D01*
X50657766Y-79514205D01*
X50645375Y-79525072D01*
X50620013Y-79544533D01*
X50595526Y-79576445D01*
X50595523Y-79576448D01*
X50522476Y-79671644D01*
X50519316Y-79679274D01*
X50517898Y-79682697D01*
X50471401Y-79794952D01*
X50461162Y-79819670D01*
X50445500Y-79938635D01*
X50445500Y-79938640D01*
X50440250Y-79978520D01*
X50441328Y-79986708D01*
X50444422Y-80010210D01*
X50445500Y-80026656D01*
X50445500Y-118271371D01*
X50444422Y-118287814D01*
X50440250Y-118319507D01*
X50445500Y-118359387D01*
X50445500Y-118359392D01*
X50447225Y-118372494D01*
X50461162Y-118478358D01*
X50522476Y-118626383D01*
X50527503Y-118632934D01*
X50527504Y-118632936D01*
X50595520Y-118721576D01*
X50595526Y-118721582D01*
X50620013Y-118753494D01*
X50626568Y-118758524D01*
X50645379Y-118772959D01*
X50657770Y-118783826D01*
X50888178Y-119014234D01*
X50899045Y-119026625D01*
X50918506Y-119051987D01*
X50925056Y-119057013D01*
X50950414Y-119076471D01*
X50950430Y-119076485D01*
X50999798Y-119114366D01*
X51045617Y-119149524D01*
X51193642Y-119210838D01*
X51201829Y-119211916D01*
X51201830Y-119211916D01*
X51213035Y-119213391D01*
X51244231Y-119217498D01*
X51312608Y-119226500D01*
X51312611Y-119226500D01*
X51312619Y-119226501D01*
X51344304Y-119230672D01*
X51352493Y-119231750D01*
X51384186Y-119227578D01*
X51400629Y-119226500D01*
X51765486Y-119226500D01*
X51790041Y-119229947D01*
X51790142Y-119229343D01*
X51790148Y-119229344D01*
X51790047Y-119229948D01*
X51790078Y-119229952D01*
X51790158Y-119229348D01*
X51903538Y-119244275D01*
X51903541Y-119244276D01*
X51903541Y-119244275D01*
X51948992Y-119250260D01*
X51957175Y-119249183D01*
X51957176Y-119249183D01*
X51980696Y-119246087D01*
X51997139Y-119245010D01*
X52073952Y-119245010D01*
X52559284Y-119245011D01*
X52627405Y-119265013D01*
X52648379Y-119281916D01*
X62594415Y-129227952D01*
X62628441Y-129290264D01*
X62623376Y-129361079D01*
X62597708Y-129401016D01*
X62597727Y-129401030D01*
X62592341Y-129408217D01*
X62592340Y-129408218D01*
X62589820Y-129411580D01*
X62586479Y-129414078D01*
X62585992Y-129414565D01*
X62585922Y-129414495D01*
X62532960Y-129454095D01*
X62462142Y-129459119D01*
X62399849Y-129425059D01*
X62388170Y-129411580D01*
X62385645Y-129408211D01*
X62385643Y-129408209D01*
X62380262Y-129401029D01*
X62263706Y-129313675D01*
X62127317Y-129262545D01*
X62065135Y-129255790D01*
X61206867Y-129255790D01*
X61144685Y-129262545D01*
X61135968Y-129265813D01*
X61130230Y-129267964D01*
X61059423Y-129273147D01*
X61041775Y-129267966D01*
X61027316Y-129262545D01*
X61019468Y-129261692D01*
X61019466Y-129261692D01*
X60968531Y-129256159D01*
X60965134Y-129255790D01*
X60354107Y-129255790D01*
X60285986Y-129235788D01*
X60239493Y-129182132D01*
X60229389Y-129111858D01*
X60244986Y-129066793D01*
X60270527Y-129022556D01*
X60329542Y-128840928D01*
X60335799Y-128781401D01*
X60348814Y-128657565D01*
X60349504Y-128651000D01*
X60329542Y-128461072D01*
X60270527Y-128279444D01*
X60175040Y-128114056D01*
X60095254Y-128025444D01*
X60051675Y-127977045D01*
X60051674Y-127977044D01*
X60047253Y-127972134D01*
X59892752Y-127859882D01*
X59886724Y-127857198D01*
X59886722Y-127857197D01*
X59724319Y-127784891D01*
X59724318Y-127784891D01*
X59718288Y-127782206D01*
X59624887Y-127762353D01*
X59537944Y-127743872D01*
X59537939Y-127743872D01*
X59531487Y-127742500D01*
X59340513Y-127742500D01*
X59334061Y-127743872D01*
X59334056Y-127743872D01*
X59247113Y-127762353D01*
X59153712Y-127782206D01*
X59147682Y-127784891D01*
X59147681Y-127784891D01*
X58985278Y-127857197D01*
X58985276Y-127857198D01*
X58979248Y-127859882D01*
X58824747Y-127972134D01*
X58820326Y-127977044D01*
X58820325Y-127977045D01*
X58776747Y-128025444D01*
X58696960Y-128114056D01*
X58601473Y-128279444D01*
X58542458Y-128461072D01*
X58522496Y-128651000D01*
X58523186Y-128657565D01*
X58536202Y-128781401D01*
X58542458Y-128840928D01*
X58601473Y-129022556D01*
X58604775Y-129028276D01*
X58604779Y-129028284D01*
X58637710Y-129085322D01*
X58654448Y-129154317D01*
X58631227Y-129221409D01*
X58616929Y-129232653D01*
X58617104Y-129232804D01*
X58591671Y-129262155D01*
X58590000Y-129269838D01*
X58590000Y-129533115D01*
X58581982Y-129577345D01*
X58553255Y-129653974D01*
X58546500Y-129716156D01*
X58546500Y-131615824D01*
X58553255Y-131678006D01*
X58581982Y-131754635D01*
X58590000Y-131798865D01*
X58590000Y-132057574D01*
X58594475Y-132072813D01*
X58595865Y-132074018D01*
X58603548Y-132075689D01*
X58743993Y-132075689D01*
X58812114Y-132095691D01*
X58860401Y-132153470D01*
X58888418Y-132221108D01*
X58896007Y-132291698D01*
X58864228Y-132355185D01*
X58803169Y-132391412D01*
X58742706Y-132389282D01*
X58742249Y-132391416D01*
X58722157Y-132387108D01*
X58629519Y-132377617D01*
X58623104Y-132377289D01*
X58611404Y-132377289D01*
X58596165Y-132381764D01*
X58594960Y-132383154D01*
X58593289Y-132390837D01*
X58593289Y-133550789D01*
X58573287Y-133618910D01*
X58519631Y-133665403D01*
X58467289Y-133676789D01*
X58211289Y-133676789D01*
X58143168Y-133656787D01*
X58096675Y-133603131D01*
X58085289Y-133550789D01*
X58085289Y-132395404D01*
X58080814Y-132380165D01*
X58079424Y-132378960D01*
X58071741Y-132377289D01*
X58055523Y-132377289D01*
X58049009Y-132377626D01*
X57983507Y-132384423D01*
X57913685Y-132371559D01*
X57861903Y-132322988D01*
X57844502Y-132259096D01*
X57844502Y-132201690D01*
X57864504Y-132133569D01*
X57918160Y-132087076D01*
X57970502Y-132075690D01*
X58063885Y-132075690D01*
X58079124Y-132071215D01*
X58080329Y-132069825D01*
X58082000Y-132062142D01*
X58082000Y-131798870D01*
X58090018Y-131754640D01*
X58090020Y-131754635D01*
X58118747Y-131678006D01*
X58125502Y-131615824D01*
X58125502Y-129716156D01*
X58118747Y-129653974D01*
X58090018Y-129577339D01*
X58082000Y-129533110D01*
X58082000Y-129274406D01*
X58077525Y-129259167D01*
X58076135Y-129257962D01*
X58068452Y-129256291D01*
X57910331Y-129256291D01*
X57903510Y-129256661D01*
X57852650Y-129262185D01*
X57837390Y-129265813D01*
X57830939Y-129268231D01*
X57760131Y-129273412D01*
X57742487Y-129268231D01*
X57734715Y-129265318D01*
X57727318Y-129262545D01*
X57719470Y-129261692D01*
X57719468Y-129261692D01*
X57668533Y-129256159D01*
X57665136Y-129255790D01*
X56806868Y-129255790D01*
X56744686Y-129262545D01*
X56730233Y-129267963D01*
X56659428Y-129273148D01*
X56641775Y-129267965D01*
X56627318Y-129262545D01*
X56565136Y-129255790D01*
X55977249Y-129255790D01*
X55909128Y-129235788D01*
X55862635Y-129182132D01*
X55852531Y-129111858D01*
X55883613Y-129045480D01*
X55979621Y-128938852D01*
X55979622Y-128938851D01*
X55984040Y-128933944D01*
X56079527Y-128768556D01*
X56138542Y-128586928D01*
X56158504Y-128397000D01*
X56138542Y-128207072D01*
X56079527Y-128025444D01*
X55984040Y-127860056D01*
X55856253Y-127718134D01*
X55701752Y-127605882D01*
X55695724Y-127603198D01*
X55695722Y-127603197D01*
X55533319Y-127530891D01*
X55533318Y-127530891D01*
X55527288Y-127528206D01*
X55433887Y-127508353D01*
X55346944Y-127489872D01*
X55346939Y-127489872D01*
X55340487Y-127488500D01*
X55149513Y-127488500D01*
X55143061Y-127489872D01*
X55143056Y-127489872D01*
X55056113Y-127508353D01*
X54962712Y-127528206D01*
X54956682Y-127530891D01*
X54956681Y-127530891D01*
X54794278Y-127603197D01*
X54794276Y-127603198D01*
X54788248Y-127605882D01*
X54633747Y-127718134D01*
X54505960Y-127860056D01*
X54410473Y-128025444D01*
X54351458Y-128207072D01*
X54331496Y-128397000D01*
X54351458Y-128586928D01*
X54410473Y-128768556D01*
X54413772Y-128774271D01*
X54416461Y-128780310D01*
X54414011Y-128781401D01*
X54427501Y-128831812D01*
X54427501Y-129129790D01*
X54407499Y-129197911D01*
X54353843Y-129244404D01*
X54301501Y-129255790D01*
X53506867Y-129255790D01*
X53444685Y-129262545D01*
X53429518Y-129268231D01*
X53426525Y-129269353D01*
X53355718Y-129274536D01*
X53338065Y-129269353D01*
X53335072Y-129268231D01*
X53319905Y-129262545D01*
X53257723Y-129255790D01*
X51662855Y-129255790D01*
X51600673Y-129262545D01*
X51464284Y-129313675D01*
X51347728Y-129401029D01*
X51260374Y-129517585D01*
X51260353Y-129517570D01*
X51213359Y-129564461D01*
X51143968Y-129579476D01*
X51101847Y-129568914D01*
X51088324Y-129562893D01*
X51088321Y-129562892D01*
X51082288Y-129560206D01*
X51040660Y-129551358D01*
X50901944Y-129521872D01*
X50901939Y-129521872D01*
X50895487Y-129520500D01*
X50704513Y-129520500D01*
X50698061Y-129521872D01*
X50698056Y-129521872D01*
X50645164Y-129533115D01*
X50517712Y-129560206D01*
X50511682Y-129562891D01*
X50511681Y-129562891D01*
X50349278Y-129635197D01*
X50349276Y-129635198D01*
X50343248Y-129637882D01*
X50337907Y-129641762D01*
X50337906Y-129641763D01*
X50287843Y-129678136D01*
X50188747Y-129750134D01*
X50184326Y-129755044D01*
X50184325Y-129755045D01*
X50069897Y-129882131D01*
X50060960Y-129892056D01*
X49965473Y-130057444D01*
X49906458Y-130239072D01*
X49886496Y-130429000D01*
X49887186Y-130435565D01*
X49904608Y-130601322D01*
X49906458Y-130618928D01*
X49965473Y-130800556D01*
X49968776Y-130806278D01*
X49968777Y-130806279D01*
X50002686Y-130865010D01*
X50060960Y-130965944D01*
X50188747Y-131107866D01*
X50343248Y-131220118D01*
X50349276Y-131222802D01*
X50349278Y-131222803D01*
X50397510Y-131244277D01*
X50517712Y-131297794D01*
X50611112Y-131317647D01*
X50698056Y-131336128D01*
X50698061Y-131336128D01*
X50704513Y-131337500D01*
X50895487Y-131337500D01*
X50901939Y-131336128D01*
X50901944Y-131336128D01*
X51067588Y-131300919D01*
X51138379Y-131306321D01*
X51195012Y-131349138D01*
X51211767Y-131379937D01*
X51257221Y-131501185D01*
X51260374Y-131509595D01*
X51347728Y-131626151D01*
X51464284Y-131713505D01*
X51600673Y-131764635D01*
X51662855Y-131771390D01*
X53009128Y-131771390D01*
X53077249Y-131791392D01*
X53109954Y-131821825D01*
X53153042Y-131879317D01*
X53191740Y-131930951D01*
X53308296Y-132018305D01*
X53444685Y-132069435D01*
X53506867Y-132076190D01*
X53668649Y-132076190D01*
X53736770Y-132096192D01*
X53783263Y-132149848D01*
X53793367Y-132220122D01*
X53763873Y-132284702D01*
X53757744Y-132291285D01*
X53709145Y-132339884D01*
X53646833Y-132373910D01*
X53620050Y-132376789D01*
X53480217Y-132376789D01*
X53476971Y-132377126D01*
X53476967Y-132377126D01*
X53383054Y-132386870D01*
X53383050Y-132386871D01*
X53376196Y-132387582D01*
X53369660Y-132389763D01*
X53369658Y-132389763D01*
X53278527Y-132420167D01*
X53211182Y-132442635D01*
X53063258Y-132534173D01*
X53058085Y-132539355D01*
X52945531Y-132652105D01*
X52945527Y-132652110D01*
X52940360Y-132657286D01*
X52936520Y-132663516D01*
X52936519Y-132663517D01*
X52858813Y-132789580D01*
X52849080Y-132805369D01*
X52794315Y-132970480D01*
X52793615Y-132977316D01*
X52793614Y-132977319D01*
X52789730Y-133015231D01*
X52783789Y-133073217D01*
X52783789Y-133672361D01*
X52794582Y-133776382D01*
X52849635Y-133941396D01*
X52941173Y-134089320D01*
X53048430Y-134196390D01*
X53082509Y-134258671D01*
X53077506Y-134329491D01*
X53048585Y-134374580D01*
X52945926Y-134477418D01*
X52936914Y-134488829D01*
X52853377Y-134624352D01*
X52847233Y-134637530D01*
X52796974Y-134789055D01*
X52794108Y-134802421D01*
X52784617Y-134895059D01*
X52784289Y-134901474D01*
X52784289Y-134925674D01*
X52788764Y-134940913D01*
X52790154Y-134942118D01*
X52797837Y-134943789D01*
X55419289Y-134943789D01*
X55487410Y-134963791D01*
X55533903Y-135017447D01*
X55545289Y-135069789D01*
X55545289Y-136175174D01*
X55549764Y-136190413D01*
X55551154Y-136191618D01*
X55558837Y-136193289D01*
X55575055Y-136193289D01*
X55581571Y-136192952D01*
X55675421Y-136183214D01*
X55688817Y-136180321D01*
X55840242Y-136129801D01*
X55853404Y-136123636D01*
X55986381Y-136041348D01*
X56054833Y-136022511D01*
X56118799Y-136041233D01*
X56146906Y-136058558D01*
X56194399Y-136111331D01*
X56206789Y-136165818D01*
X56206789Y-136983999D01*
X56186787Y-137052120D01*
X56174425Y-137068309D01*
X56076249Y-137177345D01*
X55980762Y-137342733D01*
X55921747Y-137524361D01*
X55901785Y-137714289D01*
X55921747Y-137904217D01*
X55980762Y-138085845D01*
X55984065Y-138091567D01*
X55984066Y-138091568D01*
X56017975Y-138150299D01*
X56076249Y-138251233D01*
X56080667Y-138256140D01*
X56080668Y-138256141D01*
X56110868Y-138289681D01*
X56204036Y-138393155D01*
X56358537Y-138505407D01*
X56364565Y-138508091D01*
X56364567Y-138508092D01*
X56526970Y-138580398D01*
X56533001Y-138583083D01*
X56626402Y-138602936D01*
X56713345Y-138621417D01*
X56713350Y-138621417D01*
X56719802Y-138622789D01*
X56910776Y-138622789D01*
X56917228Y-138621417D01*
X56917233Y-138621417D01*
X57004176Y-138602936D01*
X57097577Y-138583083D01*
X57103608Y-138580398D01*
X57266011Y-138508092D01*
X57266013Y-138508091D01*
X57272041Y-138505407D01*
X57426542Y-138393155D01*
X57519710Y-138289681D01*
X57549910Y-138256141D01*
X57549911Y-138256140D01*
X57554329Y-138251233D01*
X57612603Y-138150299D01*
X57646512Y-138091568D01*
X57646513Y-138091567D01*
X57649816Y-138085845D01*
X57708831Y-137904217D01*
X57728793Y-137714289D01*
X57708831Y-137524361D01*
X57649816Y-137342733D01*
X57554329Y-137177345D01*
X57456153Y-137068309D01*
X57425435Y-137004302D01*
X57423789Y-136983999D01*
X57423789Y-136610615D01*
X57443791Y-136542494D01*
X57497447Y-136496001D01*
X57567721Y-136485897D01*
X57632301Y-136515391D01*
X57643425Y-136526305D01*
X57681747Y-136568866D01*
X57836248Y-136681118D01*
X57842276Y-136683802D01*
X57842278Y-136683803D01*
X58004681Y-136756109D01*
X58010712Y-136758794D01*
X58104113Y-136778647D01*
X58191056Y-136797128D01*
X58191061Y-136797128D01*
X58197513Y-136798500D01*
X58388487Y-136798500D01*
X58394939Y-136797128D01*
X58394944Y-136797128D01*
X58481887Y-136778647D01*
X58575288Y-136758794D01*
X58581319Y-136756109D01*
X58743722Y-136683803D01*
X58743724Y-136683802D01*
X58749752Y-136681118D01*
X58904253Y-136568866D01*
X58908675Y-136563955D01*
X59027621Y-136431852D01*
X59027622Y-136431851D01*
X59032040Y-136426944D01*
X59127527Y-136261556D01*
X59145278Y-136206924D01*
X59185351Y-136148318D01*
X59250748Y-136120681D01*
X59307941Y-136129973D01*
X59308582Y-136128041D01*
X59467055Y-136180604D01*
X59480421Y-136183470D01*
X59573059Y-136192961D01*
X59579474Y-136193289D01*
X59591174Y-136193289D01*
X59606413Y-136188814D01*
X59607618Y-136187424D01*
X59609289Y-136179741D01*
X59609289Y-136175174D01*
X60117289Y-136175174D01*
X60121764Y-136190413D01*
X60123154Y-136191618D01*
X60130837Y-136193289D01*
X60147055Y-136193289D01*
X60153571Y-136192952D01*
X60247421Y-136183214D01*
X60260817Y-136180321D01*
X60412242Y-136129801D01*
X60425404Y-136123636D01*
X60558857Y-136041054D01*
X60627309Y-136022217D01*
X60691274Y-136040939D01*
X60826348Y-136124199D01*
X60839530Y-136130345D01*
X60991055Y-136180604D01*
X61004421Y-136183470D01*
X61097059Y-136192961D01*
X61103474Y-136193289D01*
X61115174Y-136193289D01*
X61130413Y-136188814D01*
X61131618Y-136187424D01*
X61133289Y-136179741D01*
X61133289Y-136175174D01*
X61641289Y-136175174D01*
X61645764Y-136190413D01*
X61647154Y-136191618D01*
X61654837Y-136193289D01*
X61671055Y-136193289D01*
X61677571Y-136192952D01*
X61771421Y-136183214D01*
X61784817Y-136180321D01*
X61936242Y-136129801D01*
X61949404Y-136123636D01*
X62084781Y-136039863D01*
X62096179Y-136030829D01*
X62208652Y-135918160D01*
X62217664Y-135906749D01*
X62301201Y-135771226D01*
X62307345Y-135758048D01*
X62357604Y-135606523D01*
X62360470Y-135593157D01*
X62369961Y-135500519D01*
X62370289Y-135494104D01*
X62370289Y-135469904D01*
X62365814Y-135454665D01*
X62364424Y-135453460D01*
X62356741Y-135451789D01*
X61659404Y-135451789D01*
X61644165Y-135456264D01*
X61642960Y-135457654D01*
X61641289Y-135465337D01*
X61641289Y-136175174D01*
X61133289Y-136175174D01*
X61133289Y-135469904D01*
X61128814Y-135454665D01*
X61127424Y-135453460D01*
X61119741Y-135451789D01*
X60135404Y-135451789D01*
X60120165Y-135456264D01*
X60118960Y-135457654D01*
X60117289Y-135465337D01*
X60117289Y-136175174D01*
X59609289Y-136175174D01*
X59609289Y-135069789D01*
X59629291Y-135001668D01*
X59682947Y-134955175D01*
X59735289Y-134943789D01*
X62352174Y-134943789D01*
X62367413Y-134939314D01*
X62368618Y-134937924D01*
X62370289Y-134930241D01*
X62370289Y-134901523D01*
X62369952Y-134895007D01*
X62360214Y-134801157D01*
X62357321Y-134787761D01*
X62306801Y-134636336D01*
X62300636Y-134623174D01*
X62216863Y-134487797D01*
X62207829Y-134476399D01*
X62106149Y-134374896D01*
X62072070Y-134312613D01*
X62077073Y-134241793D01*
X62105994Y-134196705D01*
X62106311Y-134196388D01*
X62214218Y-134088292D01*
X62257310Y-134018384D01*
X62310082Y-133970891D01*
X62364570Y-133958500D01*
X66001658Y-133958500D01*
X66069779Y-133978502D01*
X66116272Y-134032158D01*
X66126376Y-134102432D01*
X66096882Y-134167012D01*
X66075720Y-134186435D01*
X66063747Y-134195134D01*
X66059326Y-134200044D01*
X66059325Y-134200045D01*
X65942772Y-134329491D01*
X65935960Y-134337056D01*
X65914113Y-134374896D01*
X65848334Y-134488829D01*
X65840473Y-134502444D01*
X65781458Y-134684072D01*
X65780768Y-134690633D01*
X65780768Y-134690635D01*
X65770059Y-134792525D01*
X65761496Y-134874000D01*
X65762186Y-134880565D01*
X65768844Y-134943908D01*
X65781458Y-135063928D01*
X65840473Y-135245556D01*
X65935960Y-135410944D01*
X65940378Y-135415851D01*
X65940379Y-135415852D01*
X66034136Y-135519980D01*
X66064854Y-135583987D01*
X66066500Y-135604290D01*
X66066500Y-140453228D01*
X66046498Y-140521349D01*
X65992842Y-140567842D01*
X65922568Y-140577946D01*
X65914304Y-140576475D01*
X65887946Y-140570873D01*
X65887947Y-140570873D01*
X65881487Y-140569500D01*
X65690513Y-140569500D01*
X65684061Y-140570872D01*
X65684056Y-140570872D01*
X65597113Y-140589353D01*
X65503712Y-140609206D01*
X65497682Y-140611891D01*
X65497681Y-140611891D01*
X65335278Y-140684197D01*
X65335276Y-140684198D01*
X65329248Y-140686882D01*
X65174747Y-140799134D01*
X65170326Y-140804044D01*
X65170325Y-140804045D01*
X65127026Y-140852134D01*
X65046960Y-140941056D01*
X64951473Y-141106444D01*
X64892458Y-141288072D01*
X64891768Y-141294633D01*
X64891768Y-141294635D01*
X64873186Y-141471435D01*
X64872496Y-141478000D01*
X64873186Y-141484565D01*
X64890116Y-141645649D01*
X64877344Y-141715487D01*
X64843507Y-141756587D01*
X64840193Y-141758547D01*
X64722547Y-141876193D01*
X64718511Y-141883017D01*
X64718509Y-141883020D01*
X64658081Y-141985199D01*
X64637855Y-142019399D01*
X64591438Y-142179169D01*
X64588500Y-142216498D01*
X64588500Y-142448500D01*
X64568498Y-142516621D01*
X64514842Y-142563114D01*
X64462500Y-142574500D01*
X63305498Y-142574500D01*
X63303050Y-142574693D01*
X63303042Y-142574693D01*
X63274579Y-142576933D01*
X63274574Y-142576934D01*
X63268169Y-142577438D01*
X63168231Y-142606472D01*
X63116012Y-142621643D01*
X63116010Y-142621644D01*
X63108399Y-142623855D01*
X63101572Y-142627892D01*
X63101573Y-142627892D01*
X62972020Y-142704509D01*
X62972017Y-142704511D01*
X62965193Y-142708547D01*
X62847547Y-142826193D01*
X62843511Y-142833017D01*
X62843509Y-142833020D01*
X62779893Y-142940589D01*
X62762855Y-142969399D01*
X62716438Y-143129169D01*
X62713500Y-143166498D01*
X62713500Y-143599502D01*
X62716438Y-143636831D01*
X62762855Y-143796601D01*
X62766892Y-143803427D01*
X62843509Y-143932980D01*
X62843511Y-143932983D01*
X62847547Y-143939807D01*
X62965193Y-144057453D01*
X62972017Y-144061489D01*
X62972020Y-144061491D01*
X63079589Y-144125107D01*
X63108399Y-144142145D01*
X63116010Y-144144356D01*
X63116012Y-144144357D01*
X63168231Y-144159528D01*
X63268169Y-144188562D01*
X63274574Y-144189066D01*
X63274579Y-144189067D01*
X63303042Y-144191307D01*
X63303050Y-144191307D01*
X63305498Y-144191500D01*
X64462500Y-144191500D01*
X64530621Y-144211502D01*
X64577114Y-144265158D01*
X64588500Y-144317500D01*
X64588500Y-144549502D01*
X64591438Y-144586831D01*
X64620472Y-144686769D01*
X64633150Y-144730405D01*
X64637855Y-144746601D01*
X64641892Y-144753427D01*
X64718509Y-144882980D01*
X64718511Y-144882983D01*
X64722547Y-144889807D01*
X64840193Y-145007453D01*
X64847017Y-145011489D01*
X64847020Y-145011491D01*
X64855842Y-145016708D01*
X64983399Y-145092145D01*
X64991010Y-145094356D01*
X64991012Y-145094357D01*
X65043231Y-145109528D01*
X65143169Y-145138562D01*
X65149574Y-145139066D01*
X65149579Y-145139067D01*
X65178042Y-145141307D01*
X65178050Y-145141307D01*
X65180498Y-145141500D01*
X66488502Y-145141500D01*
X66490950Y-145141307D01*
X66490958Y-145141307D01*
X66519421Y-145139067D01*
X66519426Y-145139066D01*
X66525831Y-145138562D01*
X66667348Y-145097448D01*
X66738344Y-145097651D01*
X66797960Y-145136205D01*
X66827268Y-145200870D01*
X66828500Y-145218445D01*
X66828500Y-147525864D01*
X66827422Y-147542307D01*
X66823250Y-147574000D01*
X66828500Y-147613880D01*
X66828500Y-147613885D01*
X66830404Y-147628342D01*
X66835329Y-147665750D01*
X66835329Y-147665753D01*
X66837468Y-147681998D01*
X66844162Y-147732851D01*
X66905476Y-147880876D01*
X66910503Y-147887427D01*
X66910504Y-147887429D01*
X66978520Y-147976069D01*
X66978526Y-147976075D01*
X67003013Y-148007987D01*
X67009568Y-148013017D01*
X67028379Y-148027452D01*
X67040770Y-148038319D01*
X68279356Y-149276905D01*
X68313382Y-149339217D01*
X68308317Y-149410032D01*
X68265770Y-149466868D01*
X68199250Y-149491679D01*
X68190261Y-149492000D01*
X64762611Y-149492000D01*
X64694490Y-149471998D01*
X64673516Y-149455095D01*
X50712475Y-135494055D01*
X52784289Y-135494055D01*
X52784626Y-135500571D01*
X52794364Y-135594421D01*
X52797257Y-135607817D01*
X52847777Y-135759242D01*
X52853942Y-135772404D01*
X52937715Y-135907781D01*
X52946749Y-135919179D01*
X53059418Y-136031652D01*
X53070829Y-136040664D01*
X53206352Y-136124201D01*
X53219530Y-136130345D01*
X53371055Y-136180604D01*
X53384421Y-136183470D01*
X53477059Y-136192961D01*
X53483474Y-136193289D01*
X53495174Y-136193289D01*
X53510413Y-136188814D01*
X53511618Y-136187424D01*
X53513289Y-136179741D01*
X53513289Y-136175174D01*
X54021289Y-136175174D01*
X54025764Y-136190413D01*
X54027154Y-136191618D01*
X54034837Y-136193289D01*
X54051055Y-136193289D01*
X54057571Y-136192952D01*
X54151421Y-136183214D01*
X54164817Y-136180321D01*
X54316242Y-136129801D01*
X54329404Y-136123636D01*
X54462857Y-136041054D01*
X54531309Y-136022217D01*
X54595274Y-136040939D01*
X54730348Y-136124199D01*
X54743530Y-136130345D01*
X54895055Y-136180604D01*
X54908421Y-136183470D01*
X55001059Y-136192961D01*
X55007474Y-136193289D01*
X55019174Y-136193289D01*
X55034413Y-136188814D01*
X55035618Y-136187424D01*
X55037289Y-136179741D01*
X55037289Y-135469904D01*
X55032814Y-135454665D01*
X55031424Y-135453460D01*
X55023741Y-135451789D01*
X54039404Y-135451789D01*
X54024165Y-135456264D01*
X54022960Y-135457654D01*
X54021289Y-135465337D01*
X54021289Y-136175174D01*
X53513289Y-136175174D01*
X53513289Y-135469904D01*
X53508814Y-135454665D01*
X53507424Y-135453460D01*
X53499741Y-135451789D01*
X52802404Y-135451789D01*
X52787165Y-135456264D01*
X52785960Y-135457654D01*
X52784289Y-135465337D01*
X52784289Y-135494055D01*
X50712475Y-135494055D01*
X48044905Y-132826485D01*
X48010879Y-132764173D01*
X48008000Y-132737390D01*
X48008000Y-123698000D01*
X49759496Y-123698000D01*
X49760186Y-123704565D01*
X49776187Y-123856803D01*
X49779458Y-123887928D01*
X49838473Y-124069556D01*
X49933960Y-124234944D01*
X49938378Y-124239851D01*
X49938379Y-124239852D01*
X50041875Y-124354796D01*
X50061747Y-124376866D01*
X50160843Y-124448864D01*
X50199202Y-124476733D01*
X50216248Y-124489118D01*
X50222276Y-124491802D01*
X50222278Y-124491803D01*
X50384679Y-124564108D01*
X50390712Y-124566794D01*
X50484113Y-124586647D01*
X50571056Y-124605128D01*
X50571061Y-124605128D01*
X50577513Y-124606500D01*
X50768487Y-124606500D01*
X50774939Y-124605128D01*
X50774944Y-124605128D01*
X50861887Y-124586647D01*
X50955288Y-124566794D01*
X50961315Y-124564111D01*
X50961323Y-124564108D01*
X50992477Y-124550237D01*
X51062844Y-124540803D01*
X51102888Y-124554368D01*
X51108676Y-124558706D01*
X51117073Y-124561854D01*
X51117075Y-124561855D01*
X51133910Y-124568166D01*
X51245065Y-124609836D01*
X51307247Y-124616591D01*
X52952915Y-124616591D01*
X53015097Y-124609836D01*
X53151486Y-124558706D01*
X53268042Y-124471352D01*
X53355396Y-124354796D01*
X53406526Y-124218407D01*
X53413281Y-124156225D01*
X53413281Y-123221757D01*
X53406526Y-123159575D01*
X53403754Y-123152179D01*
X53403752Y-123152173D01*
X53379890Y-123088522D01*
X53374707Y-123017715D01*
X53408628Y-122955346D01*
X53453642Y-122926311D01*
X53498602Y-122909456D01*
X53507010Y-122906304D01*
X53623566Y-122818950D01*
X53710920Y-122702394D01*
X53762050Y-122566005D01*
X53768805Y-122503823D01*
X53768805Y-121366155D01*
X53762050Y-121303973D01*
X53710920Y-121167584D01*
X53623566Y-121051028D01*
X53507010Y-120963674D01*
X53370621Y-120912544D01*
X53308439Y-120905789D01*
X51662771Y-120905789D01*
X51600589Y-120912544D01*
X51464200Y-120963674D01*
X51457015Y-120969059D01*
X51457013Y-120969060D01*
X51390740Y-121018729D01*
X51324233Y-121043577D01*
X51288979Y-121041150D01*
X51264933Y-121036039D01*
X51155944Y-121012872D01*
X51155939Y-121012872D01*
X51149487Y-121011500D01*
X50958513Y-121011500D01*
X50952061Y-121012872D01*
X50952056Y-121012872D01*
X50884279Y-121027279D01*
X50771712Y-121051206D01*
X50765682Y-121053891D01*
X50765681Y-121053891D01*
X50603278Y-121126197D01*
X50603276Y-121126198D01*
X50597248Y-121128882D01*
X50442747Y-121241134D01*
X50438326Y-121246044D01*
X50438325Y-121246045D01*
X50360257Y-121332749D01*
X50314960Y-121383056D01*
X50283679Y-121437237D01*
X50248016Y-121499007D01*
X50219473Y-121548444D01*
X50160458Y-121730072D01*
X50159768Y-121736633D01*
X50159768Y-121736635D01*
X50142941Y-121896740D01*
X50140496Y-121920000D01*
X50141186Y-121926565D01*
X50147049Y-121982344D01*
X50160458Y-122109928D01*
X50219473Y-122291556D01*
X50314960Y-122456944D01*
X50442747Y-122598866D01*
X50448091Y-122602749D01*
X50452998Y-122607167D01*
X50452002Y-122608273D01*
X50490651Y-122658399D01*
X50496722Y-122729136D01*
X50463586Y-122791925D01*
X50403270Y-122825232D01*
X50403452Y-122825792D01*
X50400546Y-122826736D01*
X50399429Y-122827353D01*
X50397170Y-122827833D01*
X50397167Y-122827834D01*
X50390712Y-122829206D01*
X50384682Y-122831891D01*
X50384681Y-122831891D01*
X50222278Y-122904197D01*
X50222276Y-122904198D01*
X50216248Y-122906882D01*
X50061747Y-123019134D01*
X49933960Y-123161056D01*
X49838473Y-123326444D01*
X49779458Y-123508072D01*
X49759496Y-123698000D01*
X48008000Y-123698000D01*
X48008000Y-63381385D01*
X48544250Y-63381385D01*
X48548725Y-63396624D01*
X48550115Y-63397829D01*
X48557798Y-63399500D01*
X49255135Y-63399500D01*
X49270374Y-63395025D01*
X49271579Y-63393635D01*
X49273250Y-63385952D01*
X49273250Y-63381385D01*
X49781250Y-63381385D01*
X49785725Y-63396624D01*
X49787115Y-63397829D01*
X49794798Y-63399500D01*
X50492135Y-63399500D01*
X50507374Y-63395025D01*
X50508579Y-63393635D01*
X50510250Y-63385952D01*
X50510250Y-63307234D01*
X50509913Y-63300718D01*
X50509279Y-63294605D01*
X50910311Y-63294605D01*
X50910351Y-63308706D01*
X50917620Y-63312000D01*
X51800635Y-63312000D01*
X51815874Y-63307525D01*
X51817079Y-63306135D01*
X51818750Y-63298452D01*
X51818750Y-62776116D01*
X51814275Y-62760877D01*
X51812885Y-62759672D01*
X51805202Y-62758001D01*
X51496267Y-62758001D01*
X51491330Y-62758195D01*
X51462914Y-62760430D01*
X51450319Y-62762730D01*
X51304460Y-62805107D01*
X51290029Y-62811352D01*
X51160572Y-62887911D01*
X51148146Y-62897551D01*
X51041801Y-63003896D01*
X51032161Y-63016322D01*
X50955602Y-63145779D01*
X50949357Y-63160210D01*
X50910311Y-63294605D01*
X50509279Y-63294605D01*
X50500175Y-63206868D01*
X50497282Y-63193472D01*
X50446762Y-63042047D01*
X50440597Y-63028885D01*
X50356824Y-62893508D01*
X50347790Y-62882110D01*
X50235121Y-62769637D01*
X50223710Y-62760625D01*
X50088187Y-62677088D01*
X50075009Y-62670944D01*
X49923484Y-62620685D01*
X49910118Y-62617819D01*
X49817480Y-62608328D01*
X49811065Y-62608000D01*
X49799365Y-62608000D01*
X49784126Y-62612475D01*
X49782921Y-62613865D01*
X49781250Y-62621548D01*
X49781250Y-63381385D01*
X49273250Y-63381385D01*
X49273250Y-62626115D01*
X49268775Y-62610876D01*
X49267385Y-62609671D01*
X49259702Y-62608000D01*
X49243484Y-62608000D01*
X49236968Y-62608337D01*
X49143118Y-62618075D01*
X49129722Y-62620968D01*
X48978297Y-62671488D01*
X48965135Y-62677653D01*
X48829758Y-62761426D01*
X48818360Y-62770460D01*
X48705887Y-62883129D01*
X48696875Y-62894540D01*
X48613338Y-63030063D01*
X48607194Y-63043241D01*
X48556935Y-63194766D01*
X48554069Y-63208132D01*
X48544578Y-63300770D01*
X48544250Y-63307185D01*
X48544250Y-63381385D01*
X48008000Y-63381385D01*
X48008000Y-58634000D01*
X48028002Y-58565879D01*
X48081658Y-58519386D01*
X48134000Y-58508000D01*
X82866000Y-58508000D01*
X82934121Y-58528002D01*
G37*
%TD.AperFunction*%
%TA.AperFunction,Conductor*%
G36*
X70211621Y-129152502D02*
G01*
X70258114Y-129206158D01*
X70269500Y-129258500D01*
X70269500Y-129422134D01*
X70276255Y-129484316D01*
X70327385Y-129620705D01*
X70414739Y-129737261D01*
X70531295Y-129824615D01*
X70667684Y-129875745D01*
X70729866Y-129882500D01*
X71598826Y-129882500D01*
X71603443Y-129882585D01*
X71684673Y-129885564D01*
X71684677Y-129885564D01*
X71689837Y-129885753D01*
X71694957Y-129885097D01*
X71694959Y-129885097D01*
X71707261Y-129883521D01*
X71723271Y-129882500D01*
X72526134Y-129882500D01*
X72588316Y-129875745D01*
X72724705Y-129824615D01*
X72822436Y-129751370D01*
X72888941Y-129726522D01*
X72958324Y-129741575D01*
X72973562Y-129751368D01*
X73071295Y-129824615D01*
X73207684Y-129875745D01*
X73269866Y-129882500D01*
X74138826Y-129882500D01*
X74143443Y-129882585D01*
X74224673Y-129885564D01*
X74224677Y-129885564D01*
X74229837Y-129885753D01*
X74234957Y-129885097D01*
X74234959Y-129885097D01*
X74247261Y-129883521D01*
X74263271Y-129882500D01*
X75066134Y-129882500D01*
X75128316Y-129875745D01*
X75264705Y-129824615D01*
X75362436Y-129751370D01*
X75428941Y-129726522D01*
X75498324Y-129741575D01*
X75513562Y-129751368D01*
X75611295Y-129824615D01*
X75747684Y-129875745D01*
X75809866Y-129882500D01*
X77606134Y-129882500D01*
X77668316Y-129875745D01*
X77804705Y-129824615D01*
X77902436Y-129751370D01*
X77968941Y-129726522D01*
X78038324Y-129741575D01*
X78053562Y-129751368D01*
X78151295Y-129824615D01*
X78287684Y-129875745D01*
X78349866Y-129882500D01*
X79218826Y-129882500D01*
X79223443Y-129882585D01*
X79304673Y-129885564D01*
X79304677Y-129885564D01*
X79309837Y-129885753D01*
X79314957Y-129885097D01*
X79314959Y-129885097D01*
X79327261Y-129883521D01*
X79343271Y-129882500D01*
X80146134Y-129882500D01*
X80208316Y-129875745D01*
X80344705Y-129824615D01*
X80442436Y-129751370D01*
X80508941Y-129726522D01*
X80578324Y-129741575D01*
X80593562Y-129751368D01*
X80691295Y-129824615D01*
X80827684Y-129875745D01*
X80889866Y-129882500D01*
X81758826Y-129882500D01*
X81763443Y-129882585D01*
X81844673Y-129885564D01*
X81844677Y-129885564D01*
X81849837Y-129885753D01*
X81854957Y-129885097D01*
X81854959Y-129885097D01*
X81867261Y-129883521D01*
X81883271Y-129882500D01*
X82686134Y-129882500D01*
X82748316Y-129875745D01*
X82884705Y-129824615D01*
X82982436Y-129751370D01*
X83048941Y-129726522D01*
X83118324Y-129741575D01*
X83133562Y-129751368D01*
X83231295Y-129824615D01*
X83367684Y-129875745D01*
X83429866Y-129882500D01*
X84298826Y-129882500D01*
X84303443Y-129882585D01*
X84384673Y-129885564D01*
X84384677Y-129885564D01*
X84389837Y-129885753D01*
X84394957Y-129885097D01*
X84394959Y-129885097D01*
X84407261Y-129883521D01*
X84423271Y-129882500D01*
X85226134Y-129882500D01*
X85288316Y-129875745D01*
X85424705Y-129824615D01*
X85522436Y-129751370D01*
X85588941Y-129726522D01*
X85658324Y-129741575D01*
X85673562Y-129751368D01*
X85771295Y-129824615D01*
X85907684Y-129875745D01*
X85969866Y-129882500D01*
X86838826Y-129882500D01*
X86843443Y-129882585D01*
X86924673Y-129885564D01*
X86924677Y-129885564D01*
X86929837Y-129885753D01*
X86934957Y-129885097D01*
X86934959Y-129885097D01*
X86947261Y-129883521D01*
X86963271Y-129882500D01*
X87766134Y-129882500D01*
X87828316Y-129875745D01*
X87964705Y-129824615D01*
X88062436Y-129751370D01*
X88128941Y-129726522D01*
X88198324Y-129741575D01*
X88213562Y-129751368D01*
X88311295Y-129824615D01*
X88447684Y-129875745D01*
X88509866Y-129882500D01*
X90306134Y-129882500D01*
X90368316Y-129875745D01*
X90504705Y-129824615D01*
X90602436Y-129751370D01*
X90668941Y-129726522D01*
X90738324Y-129741575D01*
X90753562Y-129751368D01*
X90851295Y-129824615D01*
X90987684Y-129875745D01*
X91049866Y-129882500D01*
X91918826Y-129882500D01*
X91923443Y-129882585D01*
X92004673Y-129885564D01*
X92004677Y-129885564D01*
X92009837Y-129885753D01*
X92014957Y-129885097D01*
X92014959Y-129885097D01*
X92027261Y-129883521D01*
X92043271Y-129882500D01*
X92846134Y-129882500D01*
X92908316Y-129875745D01*
X93044705Y-129824615D01*
X93142436Y-129751370D01*
X93208941Y-129726522D01*
X93278324Y-129741575D01*
X93293562Y-129751368D01*
X93391295Y-129824615D01*
X93527684Y-129875745D01*
X93589866Y-129882500D01*
X94458826Y-129882500D01*
X94463443Y-129882585D01*
X94544673Y-129885564D01*
X94544677Y-129885564D01*
X94549837Y-129885753D01*
X94554957Y-129885097D01*
X94554959Y-129885097D01*
X94567261Y-129883521D01*
X94583271Y-129882500D01*
X95386134Y-129882500D01*
X95448316Y-129875745D01*
X95584705Y-129824615D01*
X95682436Y-129751370D01*
X95748941Y-129726522D01*
X95818324Y-129741575D01*
X95833562Y-129751368D01*
X95931295Y-129824615D01*
X96067684Y-129875745D01*
X96129866Y-129882500D01*
X96998826Y-129882500D01*
X97003443Y-129882585D01*
X97084673Y-129885564D01*
X97084677Y-129885564D01*
X97089837Y-129885753D01*
X97094957Y-129885097D01*
X97094959Y-129885097D01*
X97107261Y-129883521D01*
X97123271Y-129882500D01*
X97926134Y-129882500D01*
X97988316Y-129875745D01*
X98124705Y-129824615D01*
X98222436Y-129751370D01*
X98288941Y-129726522D01*
X98358324Y-129741575D01*
X98373562Y-129751368D01*
X98471295Y-129824615D01*
X98607684Y-129875745D01*
X98669866Y-129882500D01*
X99538826Y-129882500D01*
X99543443Y-129882585D01*
X99624673Y-129885564D01*
X99624677Y-129885564D01*
X99629837Y-129885753D01*
X99634957Y-129885097D01*
X99634959Y-129885097D01*
X99647261Y-129883521D01*
X99663271Y-129882500D01*
X100466134Y-129882500D01*
X100528316Y-129875745D01*
X100664705Y-129824615D01*
X100762436Y-129751370D01*
X100828941Y-129726522D01*
X100898324Y-129741575D01*
X100913562Y-129751368D01*
X101011295Y-129824615D01*
X101147684Y-129875745D01*
X101209866Y-129882500D01*
X103006134Y-129882500D01*
X103068316Y-129875745D01*
X103204705Y-129824615D01*
X103302436Y-129751370D01*
X103368941Y-129726522D01*
X103438324Y-129741575D01*
X103453562Y-129751368D01*
X103551295Y-129824615D01*
X103687684Y-129875745D01*
X103749866Y-129882500D01*
X104618826Y-129882500D01*
X104623443Y-129882585D01*
X104704673Y-129885564D01*
X104704677Y-129885564D01*
X104709837Y-129885753D01*
X104714957Y-129885097D01*
X104714959Y-129885097D01*
X104727261Y-129883521D01*
X104743271Y-129882500D01*
X105546134Y-129882500D01*
X105608316Y-129875745D01*
X105744705Y-129824615D01*
X105842436Y-129751370D01*
X105908941Y-129726522D01*
X105978324Y-129741575D01*
X105993562Y-129751368D01*
X106091295Y-129824615D01*
X106227684Y-129875745D01*
X106289866Y-129882500D01*
X107158826Y-129882500D01*
X107163443Y-129882585D01*
X107244673Y-129885564D01*
X107244677Y-129885564D01*
X107249837Y-129885753D01*
X107254957Y-129885097D01*
X107254959Y-129885097D01*
X107267261Y-129883521D01*
X107283271Y-129882500D01*
X108086134Y-129882500D01*
X108148316Y-129875745D01*
X108284705Y-129824615D01*
X108382436Y-129751370D01*
X108448941Y-129726522D01*
X108518324Y-129741575D01*
X108533562Y-129751368D01*
X108631295Y-129824615D01*
X108767684Y-129875745D01*
X108829866Y-129882500D01*
X109698826Y-129882500D01*
X109703443Y-129882585D01*
X109784673Y-129885564D01*
X109784677Y-129885564D01*
X109789837Y-129885753D01*
X109794957Y-129885097D01*
X109794959Y-129885097D01*
X109807261Y-129883521D01*
X109823271Y-129882500D01*
X110626134Y-129882500D01*
X110688316Y-129875745D01*
X110824705Y-129824615D01*
X110922436Y-129751370D01*
X110988941Y-129726522D01*
X111058324Y-129741575D01*
X111073562Y-129751368D01*
X111171295Y-129824615D01*
X111307684Y-129875745D01*
X111369866Y-129882500D01*
X112238826Y-129882500D01*
X112243443Y-129882585D01*
X112324673Y-129885564D01*
X112324677Y-129885564D01*
X112329837Y-129885753D01*
X112334957Y-129885097D01*
X112334959Y-129885097D01*
X112347261Y-129883521D01*
X112363271Y-129882500D01*
X113166134Y-129882500D01*
X113228316Y-129875745D01*
X113364705Y-129824615D01*
X113462436Y-129751370D01*
X113528941Y-129726522D01*
X113598324Y-129741575D01*
X113613562Y-129751368D01*
X113711295Y-129824615D01*
X113847684Y-129875745D01*
X113909866Y-129882500D01*
X115706134Y-129882500D01*
X115768316Y-129875745D01*
X115904705Y-129824615D01*
X116002436Y-129751370D01*
X116068941Y-129726522D01*
X116138324Y-129741575D01*
X116153562Y-129751368D01*
X116251295Y-129824615D01*
X116387684Y-129875745D01*
X116449866Y-129882500D01*
X117318826Y-129882500D01*
X117323443Y-129882585D01*
X117404673Y-129885564D01*
X117404677Y-129885564D01*
X117409837Y-129885753D01*
X117414957Y-129885097D01*
X117414959Y-129885097D01*
X117427261Y-129883521D01*
X117443271Y-129882500D01*
X118246134Y-129882500D01*
X118308316Y-129875745D01*
X118444705Y-129824615D01*
X118542436Y-129751370D01*
X118608941Y-129726522D01*
X118678324Y-129741575D01*
X118693562Y-129751368D01*
X118791295Y-129824615D01*
X118927684Y-129875745D01*
X118989866Y-129882500D01*
X119858826Y-129882500D01*
X119863443Y-129882585D01*
X119944673Y-129885564D01*
X119944677Y-129885564D01*
X119949837Y-129885753D01*
X119954957Y-129885097D01*
X119954959Y-129885097D01*
X119967261Y-129883521D01*
X119983271Y-129882500D01*
X120786134Y-129882500D01*
X120848316Y-129875745D01*
X120984705Y-129824615D01*
X121101261Y-129737261D01*
X121188615Y-129620705D01*
X121190224Y-129616412D01*
X121238922Y-129567826D01*
X121308313Y-129552814D01*
X121374805Y-129577702D01*
X121417286Y-129634586D01*
X121425180Y-129678680D01*
X121423489Y-130751987D01*
X121420394Y-132716199D01*
X121400284Y-132784288D01*
X121346556Y-132830696D01*
X121294394Y-132842000D01*
X106680000Y-132842000D01*
X106680000Y-141859000D01*
X121279792Y-141859000D01*
X121347913Y-141879002D01*
X121394406Y-141932658D01*
X121405792Y-141985199D01*
X121400865Y-145112480D01*
X121380755Y-145180569D01*
X121327027Y-145226977D01*
X121256737Y-145236970D01*
X121192203Y-145207375D01*
X121174039Y-145187846D01*
X121106643Y-145097920D01*
X121106642Y-145097919D01*
X121101261Y-145090739D01*
X120984705Y-145003385D01*
X120848316Y-144952255D01*
X120786134Y-144945500D01*
X119902985Y-144945500D01*
X119901446Y-144945491D01*
X119798081Y-144944228D01*
X119798079Y-144944228D01*
X119792911Y-144944165D01*
X119787797Y-144944948D01*
X119784289Y-144945193D01*
X119775496Y-144945500D01*
X118989866Y-144945500D01*
X118927684Y-144952255D01*
X118791295Y-145003385D01*
X118753049Y-145032049D01*
X118693565Y-145076630D01*
X118627059Y-145101478D01*
X118557676Y-145086425D01*
X118542435Y-145076630D01*
X118482951Y-145032049D01*
X118444705Y-145003385D01*
X118308316Y-144952255D01*
X118246134Y-144945500D01*
X117362985Y-144945500D01*
X117361446Y-144945491D01*
X117258081Y-144944228D01*
X117258079Y-144944228D01*
X117252911Y-144944165D01*
X117247797Y-144944948D01*
X117244289Y-144945193D01*
X117235496Y-144945500D01*
X116449866Y-144945500D01*
X116387684Y-144952255D01*
X116251295Y-145003385D01*
X116213049Y-145032049D01*
X116153565Y-145076630D01*
X116087059Y-145101478D01*
X116017676Y-145086425D01*
X116002435Y-145076630D01*
X115942951Y-145032049D01*
X115904705Y-145003385D01*
X115768316Y-144952255D01*
X115706134Y-144945500D01*
X113909866Y-144945500D01*
X113847684Y-144952255D01*
X113711295Y-145003385D01*
X113673049Y-145032049D01*
X113613565Y-145076630D01*
X113547059Y-145101478D01*
X113477676Y-145086425D01*
X113462435Y-145076630D01*
X113402951Y-145032049D01*
X113364705Y-145003385D01*
X113228316Y-144952255D01*
X113166134Y-144945500D01*
X112282985Y-144945500D01*
X112281446Y-144945491D01*
X112178081Y-144944228D01*
X112178079Y-144944228D01*
X112172911Y-144944165D01*
X112167797Y-144944948D01*
X112164289Y-144945193D01*
X112155496Y-144945500D01*
X111369866Y-144945500D01*
X111307684Y-144952255D01*
X111171295Y-145003385D01*
X111133049Y-145032049D01*
X111073148Y-145076942D01*
X111006642Y-145101790D01*
X110937259Y-145086737D01*
X110922018Y-145076942D01*
X110831649Y-145009214D01*
X110816054Y-145000676D01*
X110695606Y-144955522D01*
X110680351Y-144951895D01*
X110629486Y-144946369D01*
X110622672Y-144946000D01*
X110000115Y-144946000D01*
X109984876Y-144950475D01*
X109983671Y-144951865D01*
X109982000Y-144959548D01*
X109982000Y-147576000D01*
X109961998Y-147644121D01*
X109908342Y-147690614D01*
X109856000Y-147702000D01*
X109600000Y-147702000D01*
X109531879Y-147681998D01*
X109485386Y-147628342D01*
X109474000Y-147576000D01*
X109474000Y-144964116D01*
X109469525Y-144948877D01*
X109468135Y-144947672D01*
X109460452Y-144946001D01*
X108833331Y-144946001D01*
X108826510Y-144946371D01*
X108775648Y-144951895D01*
X108760396Y-144955521D01*
X108639946Y-145000676D01*
X108624351Y-145009214D01*
X108533982Y-145076942D01*
X108467475Y-145101790D01*
X108398093Y-145086737D01*
X108382852Y-145076942D01*
X108322951Y-145032049D01*
X108284705Y-145003385D01*
X108148316Y-144952255D01*
X108086134Y-144945500D01*
X107202985Y-144945500D01*
X107201446Y-144945491D01*
X107098081Y-144944228D01*
X107098079Y-144944228D01*
X107092911Y-144944165D01*
X107087797Y-144944948D01*
X107084289Y-144945193D01*
X107075496Y-144945500D01*
X106289866Y-144945500D01*
X106227684Y-144952255D01*
X106091295Y-145003385D01*
X106053049Y-145032049D01*
X105993565Y-145076630D01*
X105927059Y-145101478D01*
X105857676Y-145086425D01*
X105842435Y-145076630D01*
X105782951Y-145032049D01*
X105744705Y-145003385D01*
X105608316Y-144952255D01*
X105546134Y-144945500D01*
X104662985Y-144945500D01*
X104661446Y-144945491D01*
X104558081Y-144944228D01*
X104558079Y-144944228D01*
X104552911Y-144944165D01*
X104547797Y-144944948D01*
X104544289Y-144945193D01*
X104535496Y-144945500D01*
X103749866Y-144945500D01*
X103687684Y-144952255D01*
X103551295Y-145003385D01*
X103513049Y-145032049D01*
X103453565Y-145076630D01*
X103387059Y-145101478D01*
X103317676Y-145086425D01*
X103302435Y-145076630D01*
X103242951Y-145032049D01*
X103204705Y-145003385D01*
X103068316Y-144952255D01*
X103006134Y-144945500D01*
X101209866Y-144945500D01*
X101147684Y-144952255D01*
X101011295Y-145003385D01*
X100973049Y-145032049D01*
X100913565Y-145076630D01*
X100847059Y-145101478D01*
X100777676Y-145086425D01*
X100762435Y-145076630D01*
X100702951Y-145032049D01*
X100664705Y-145003385D01*
X100528316Y-144952255D01*
X100466134Y-144945500D01*
X99582985Y-144945500D01*
X99581446Y-144945491D01*
X99478081Y-144944228D01*
X99478079Y-144944228D01*
X99472911Y-144944165D01*
X99467797Y-144944948D01*
X99464289Y-144945193D01*
X99455496Y-144945500D01*
X98669866Y-144945500D01*
X98607684Y-144952255D01*
X98471295Y-145003385D01*
X98433049Y-145032049D01*
X98373565Y-145076630D01*
X98307059Y-145101478D01*
X98237676Y-145086425D01*
X98222435Y-145076630D01*
X98162951Y-145032049D01*
X98124705Y-145003385D01*
X97988316Y-144952255D01*
X97926134Y-144945500D01*
X97042985Y-144945500D01*
X97041446Y-144945491D01*
X96938081Y-144944228D01*
X96938079Y-144944228D01*
X96932911Y-144944165D01*
X96927797Y-144944948D01*
X96924289Y-144945193D01*
X96915496Y-144945500D01*
X96582239Y-144945500D01*
X96514118Y-144925498D01*
X96493144Y-144908595D01*
X82379315Y-130794766D01*
X82368448Y-130782375D01*
X82354013Y-130763563D01*
X82348987Y-130757013D01*
X82317075Y-130732526D01*
X82317072Y-130732523D01*
X82221876Y-130659476D01*
X82073851Y-130598162D01*
X82065664Y-130597084D01*
X82065663Y-130597084D01*
X82054458Y-130595609D01*
X82023262Y-130591502D01*
X81954885Y-130582500D01*
X81954882Y-130582500D01*
X81954874Y-130582499D01*
X81923189Y-130578328D01*
X81915000Y-130577250D01*
X81883307Y-130581422D01*
X81866864Y-130582500D01*
X67360239Y-130582500D01*
X67292118Y-130562498D01*
X67271144Y-130545595D01*
X66073144Y-129347595D01*
X66039118Y-129285283D01*
X66044183Y-129214468D01*
X66086730Y-129157632D01*
X66153250Y-129132821D01*
X66162239Y-129132500D01*
X70143500Y-129132500D01*
X70211621Y-129152502D01*
G37*
%TD.AperFunction*%
%TD*%
M02*
