M48
; DRILL file {KiCad (6.0.2-0)} date Saturday, May 28, 2022 at 10:41:14 PM
; FORMAT={-:-/ absolute / inch / decimal}
; #@! TF.CreationDate,2022-05-28T22:41:14-04:00
; #@! TF.GenerationSoftware,Kicad,Pcbnew,(6.0.2-0)
; #@! TF.FileFunction,Plated,1,2,PTH
FMAT,2
INCH
; #@! TA.AperFunction,Plated,PTH,ViaDrill
T1C0.0157
; #@! TA.AperFunction,Plated,PTH,ComponentDrill
T2C0.0394
; #@! TA.AperFunction,Plated,PTH,ComponentDrill
T3C0.0402
%
G90
G05
T1
X1.95Y-2.615
X1.995Y-4.87
X2.0Y-5.135
X2.01Y-4.8
X2.06Y-2.69
X2.11Y-3.09
X2.175Y-5.055
X2.205Y-5.2
X2.215Y-2.615
X2.2368Y-5.4218
X2.2398Y-2.6474
X2.295Y-5.35
X2.34Y-5.065
X2.355Y-2.7
X2.405Y-2.735
X2.4174Y-2.5424
X2.47Y-3.01
X2.47Y-3.085
X2.505Y-5.195
X2.53Y-5.77
X2.555Y-4.75
X2.56Y-5.8
X2.58Y-4.845
X2.59Y-5.57
X2.59Y-5.83
X2.625Y-5.31
X2.625Y-5.86
X2.763Y-3.078
X2.9448Y-5.271
X3.0958Y-5.4442
T2
X2.8Y-2.52
X2.8Y-2.62
X2.8Y-2.72
X2.8Y-2.82
X3.005Y-2.52
X3.005Y-2.62
X3.005Y-2.72
X3.005Y-2.82
T3
X2.82Y-5.06
X2.82Y-5.76
X2.8291Y-5.31
X2.8291Y-5.41
X2.8291Y-5.51
X2.92Y-5.06
X2.92Y-5.76
X3.02Y-5.06
X3.02Y-5.76
X3.12Y-5.06
X3.12Y-5.76
X3.22Y-5.06
X3.22Y-5.76
X3.32Y-5.06
X3.32Y-5.76
X3.42Y-5.06
X3.42Y-5.76
X3.52Y-5.06
X3.52Y-5.76
X3.62Y-5.06
X3.62Y-5.76
X3.72Y-5.06
X3.72Y-5.76
X3.82Y-5.06
X3.82Y-5.76
X3.92Y-5.06
X3.92Y-5.76
X4.02Y-5.06
X4.02Y-5.76
X4.12Y-5.06
X4.12Y-5.76
X4.22Y-5.06
X4.22Y-5.76
X4.32Y-5.06
X4.32Y-5.76
X4.42Y-5.06
X4.42Y-5.76
X4.52Y-5.06
X4.52Y-5.76
X4.62Y-5.06
X4.62Y-5.76
X4.72Y-5.06
X4.72Y-5.76
T0
M30
