%TF.GenerationSoftware,KiCad,Pcbnew,(6.0.2-0)*%
%TF.CreationDate,2022-05-28T22:41:11-04:00*%
%TF.ProjectId,memory-phone-pcb,6d656d6f-7279-42d7-9068-6f6e652d7063,rev?*%
%TF.SameCoordinates,Original*%
%TF.FileFunction,Legend,Top*%
%TF.FilePolarity,Positive*%
%FSLAX46Y46*%
G04 Gerber Fmt 4.6, Leading zero omitted, Abs format (unit mm)*
G04 Created by KiCad (PCBNEW (6.0.2-0)) date 2022-05-28 22:41:11*
%MOMM*%
%LPD*%
G01*
G04 APERTURE LIST*
%ADD10C,0.150000*%
%ADD11C,0.120000*%
G04 APERTURE END LIST*
D10*
%TO.C,U4*%
X95210380Y-138175904D02*
X96019904Y-138175904D01*
X96115142Y-138128285D01*
X96162761Y-138080666D01*
X96210380Y-137985428D01*
X96210380Y-137794952D01*
X96162761Y-137699714D01*
X96115142Y-137652095D01*
X96019904Y-137604476D01*
X95210380Y-137604476D01*
X95543714Y-136699714D02*
X96210380Y-136699714D01*
X95162761Y-136937809D02*
X95877047Y-137175904D01*
X95877047Y-136556857D01*
%TO.C,C3*%
X58696431Y-137118955D02*
X58744050Y-137166574D01*
X58791669Y-137309431D01*
X58791669Y-137404669D01*
X58744050Y-137547527D01*
X58648812Y-137642765D01*
X58553574Y-137690384D01*
X58363098Y-137738003D01*
X58220241Y-137738003D01*
X58029765Y-137690384D01*
X57934527Y-137642765D01*
X57839289Y-137547527D01*
X57791669Y-137404669D01*
X57791669Y-137309431D01*
X57839289Y-137166574D01*
X57886908Y-137118955D01*
X57791669Y-136785622D02*
X57791669Y-136166574D01*
X58172622Y-136499908D01*
X58172622Y-136357050D01*
X58220241Y-136261812D01*
X58267860Y-136214193D01*
X58363098Y-136166574D01*
X58601193Y-136166574D01*
X58696431Y-136214193D01*
X58744050Y-136261812D01*
X58791669Y-136357050D01*
X58791669Y-136642765D01*
X58744050Y-136738003D01*
X58696431Y-136785622D01*
%TO.C,C4*%
X69445142Y-80176666D02*
X69492761Y-80224285D01*
X69540380Y-80367142D01*
X69540380Y-80462380D01*
X69492761Y-80605238D01*
X69397523Y-80700476D01*
X69302285Y-80748095D01*
X69111809Y-80795714D01*
X68968952Y-80795714D01*
X68778476Y-80748095D01*
X68683238Y-80700476D01*
X68588000Y-80605238D01*
X68540380Y-80462380D01*
X68540380Y-80367142D01*
X68588000Y-80224285D01*
X68635619Y-80176666D01*
X68873714Y-79319523D02*
X69540380Y-79319523D01*
X68492761Y-79557619D02*
X69207047Y-79795714D01*
X69207047Y-79176666D01*
%TO.C,R2*%
X61839669Y-137118955D02*
X61363479Y-137452289D01*
X61839669Y-137690384D02*
X60839669Y-137690384D01*
X60839669Y-137309431D01*
X60887289Y-137214193D01*
X60934908Y-137166574D01*
X61030146Y-137118955D01*
X61173003Y-137118955D01*
X61268241Y-137166574D01*
X61315860Y-137214193D01*
X61363479Y-137309431D01*
X61363479Y-137690384D01*
X60934908Y-136738003D02*
X60887289Y-136690384D01*
X60839669Y-136595146D01*
X60839669Y-136357050D01*
X60887289Y-136261812D01*
X60934908Y-136214193D01*
X61030146Y-136166574D01*
X61125384Y-136166574D01*
X61268241Y-136214193D01*
X61839669Y-136785622D01*
X61839669Y-136166574D01*
%TO.C,U3*%
X52448345Y-61568380D02*
X52448345Y-62377904D01*
X52495964Y-62473142D01*
X52543583Y-62520761D01*
X52638821Y-62568380D01*
X52829297Y-62568380D01*
X52924535Y-62520761D01*
X52972154Y-62473142D01*
X53019773Y-62377904D01*
X53019773Y-61568380D01*
X53400726Y-61568380D02*
X54019773Y-61568380D01*
X53686440Y-61949333D01*
X53829297Y-61949333D01*
X53924535Y-61996952D01*
X53972154Y-62044571D01*
X54019773Y-62139809D01*
X54019773Y-62377904D01*
X53972154Y-62473142D01*
X53924535Y-62520761D01*
X53829297Y-62568380D01*
X53543583Y-62568380D01*
X53448345Y-62520761D01*
X53400726Y-62473142D01*
%TO.C,U5*%
X64135095Y-145235380D02*
X64135095Y-146044904D01*
X64182714Y-146140142D01*
X64230333Y-146187761D01*
X64325571Y-146235380D01*
X64516047Y-146235380D01*
X64611285Y-146187761D01*
X64658904Y-146140142D01*
X64706523Y-146044904D01*
X64706523Y-145235380D01*
X65658904Y-145235380D02*
X65182714Y-145235380D01*
X65135095Y-145711571D01*
X65182714Y-145663952D01*
X65277952Y-145616333D01*
X65516047Y-145616333D01*
X65611285Y-145663952D01*
X65658904Y-145711571D01*
X65706523Y-145806809D01*
X65706523Y-146044904D01*
X65658904Y-146140142D01*
X65611285Y-146187761D01*
X65516047Y-146235380D01*
X65277952Y-146235380D01*
X65182714Y-146187761D01*
X65135095Y-146140142D01*
%TO.C,C2*%
X62698333Y-71858142D02*
X62650714Y-71905761D01*
X62507857Y-71953380D01*
X62412619Y-71953380D01*
X62269761Y-71905761D01*
X62174523Y-71810523D01*
X62126904Y-71715285D01*
X62079285Y-71524809D01*
X62079285Y-71381952D01*
X62126904Y-71191476D01*
X62174523Y-71096238D01*
X62269761Y-71001000D01*
X62412619Y-70953380D01*
X62507857Y-70953380D01*
X62650714Y-71001000D01*
X62698333Y-71048619D01*
X63079285Y-71048619D02*
X63126904Y-71001000D01*
X63222142Y-70953380D01*
X63460238Y-70953380D01*
X63555476Y-71001000D01*
X63603095Y-71048619D01*
X63650714Y-71143857D01*
X63650714Y-71239095D01*
X63603095Y-71381952D01*
X63031666Y-71953380D01*
X63650714Y-71953380D01*
%TO.C,C6*%
X49360583Y-62587142D02*
X49312964Y-62634761D01*
X49170107Y-62682380D01*
X49074869Y-62682380D01*
X48932011Y-62634761D01*
X48836773Y-62539523D01*
X48789154Y-62444285D01*
X48741535Y-62253809D01*
X48741535Y-62110952D01*
X48789154Y-61920476D01*
X48836773Y-61825238D01*
X48932011Y-61730000D01*
X49074869Y-61682380D01*
X49170107Y-61682380D01*
X49312964Y-61730000D01*
X49360583Y-61777619D01*
X50217726Y-61682380D02*
X50027250Y-61682380D01*
X49932011Y-61730000D01*
X49884392Y-61777619D01*
X49789154Y-61920476D01*
X49741535Y-62110952D01*
X49741535Y-62491904D01*
X49789154Y-62587142D01*
X49836773Y-62634761D01*
X49932011Y-62682380D01*
X50122488Y-62682380D01*
X50217726Y-62634761D01*
X50265345Y-62587142D01*
X50312964Y-62491904D01*
X50312964Y-62253809D01*
X50265345Y-62158571D01*
X50217726Y-62110952D01*
X50122488Y-62063333D01*
X49932011Y-62063333D01*
X49836773Y-62110952D01*
X49789154Y-62158571D01*
X49741535Y-62253809D01*
%TO.C,R5*%
X62825333Y-73985380D02*
X62492000Y-73509190D01*
X62253904Y-73985380D02*
X62253904Y-72985380D01*
X62634857Y-72985380D01*
X62730095Y-73033000D01*
X62777714Y-73080619D01*
X62825333Y-73175857D01*
X62825333Y-73318714D01*
X62777714Y-73413952D01*
X62730095Y-73461571D01*
X62634857Y-73509190D01*
X62253904Y-73509190D01*
X63730095Y-72985380D02*
X63253904Y-72985380D01*
X63206285Y-73461571D01*
X63253904Y-73413952D01*
X63349142Y-73366333D01*
X63587238Y-73366333D01*
X63682476Y-73413952D01*
X63730095Y-73461571D01*
X63777714Y-73556809D01*
X63777714Y-73794904D01*
X63730095Y-73890142D01*
X63682476Y-73937761D01*
X63587238Y-73985380D01*
X63349142Y-73985380D01*
X63253904Y-73937761D01*
X63206285Y-73890142D01*
%TO.C,U1*%
X59690095Y-61682380D02*
X59690095Y-62491904D01*
X59737714Y-62587142D01*
X59785333Y-62634761D01*
X59880571Y-62682380D01*
X60071047Y-62682380D01*
X60166285Y-62634761D01*
X60213904Y-62587142D01*
X60261523Y-62491904D01*
X60261523Y-61682380D01*
X61261523Y-62682380D02*
X60690095Y-62682380D01*
X60975809Y-62682380D02*
X60975809Y-61682380D01*
X60880571Y-61825238D01*
X60785333Y-61920476D01*
X60690095Y-61968095D01*
%TO.C,R3*%
X60315669Y-137118955D02*
X59839479Y-137452289D01*
X60315669Y-137690384D02*
X59315669Y-137690384D01*
X59315669Y-137309431D01*
X59363289Y-137214193D01*
X59410908Y-137166574D01*
X59506146Y-137118955D01*
X59649003Y-137118955D01*
X59744241Y-137166574D01*
X59791860Y-137214193D01*
X59839479Y-137309431D01*
X59839479Y-137690384D01*
X59315669Y-136785622D02*
X59315669Y-136166574D01*
X59696622Y-136499908D01*
X59696622Y-136357050D01*
X59744241Y-136261812D01*
X59791860Y-136214193D01*
X59887098Y-136166574D01*
X60125193Y-136166574D01*
X60220431Y-136214193D01*
X60268050Y-136261812D01*
X60315669Y-136357050D01*
X60315669Y-136642765D01*
X60268050Y-136738003D01*
X60220431Y-136785622D01*
%TO.C,R9*%
X82978880Y-69244666D02*
X82502690Y-69578000D01*
X82978880Y-69816095D02*
X81978880Y-69816095D01*
X81978880Y-69435142D01*
X82026500Y-69339904D01*
X82074119Y-69292285D01*
X82169357Y-69244666D01*
X82312214Y-69244666D01*
X82407452Y-69292285D01*
X82455071Y-69339904D01*
X82502690Y-69435142D01*
X82502690Y-69816095D01*
X82978880Y-68768476D02*
X82978880Y-68578000D01*
X82931261Y-68482761D01*
X82883642Y-68435142D01*
X82740785Y-68339904D01*
X82550309Y-68292285D01*
X82169357Y-68292285D01*
X82074119Y-68339904D01*
X82026500Y-68387523D01*
X81978880Y-68482761D01*
X81978880Y-68673238D01*
X82026500Y-68768476D01*
X82074119Y-68816095D01*
X82169357Y-68863714D01*
X82407452Y-68863714D01*
X82502690Y-68816095D01*
X82550309Y-68768476D01*
X82597928Y-68673238D01*
X82597928Y-68482761D01*
X82550309Y-68387523D01*
X82502690Y-68339904D01*
X82407452Y-68292285D01*
%TO.C,J3*%
X57751955Y-130118370D02*
X57751955Y-130832656D01*
X57704336Y-130975513D01*
X57609098Y-131070751D01*
X57466241Y-131118370D01*
X57371003Y-131118370D01*
X58132908Y-130118370D02*
X58751955Y-130118370D01*
X58418622Y-130499323D01*
X58561479Y-130499323D01*
X58656717Y-130546942D01*
X58704336Y-130594561D01*
X58751955Y-130689799D01*
X58751955Y-130927894D01*
X58704336Y-131023132D01*
X58656717Y-131070751D01*
X58561479Y-131118370D01*
X58275765Y-131118370D01*
X58180527Y-131070751D01*
X58132908Y-131023132D01*
X58085289Y-124847669D02*
X58085289Y-125085765D01*
X57847193Y-124990527D02*
X58085289Y-125085765D01*
X58323384Y-124990527D01*
X57942431Y-125276241D02*
X58085289Y-125085765D01*
X58228146Y-125276241D01*
%TO.C,RV1*%
X64555761Y-61793380D02*
X64222428Y-61317190D01*
X63984333Y-61793380D02*
X63984333Y-60793380D01*
X64365285Y-60793380D01*
X64460523Y-60841000D01*
X64508142Y-60888619D01*
X64555761Y-60983857D01*
X64555761Y-61126714D01*
X64508142Y-61221952D01*
X64460523Y-61269571D01*
X64365285Y-61317190D01*
X63984333Y-61317190D01*
X64841476Y-60793380D02*
X65174809Y-61793380D01*
X65508142Y-60793380D01*
X66365285Y-61793380D02*
X65793857Y-61793380D01*
X66079571Y-61793380D02*
X66079571Y-60793380D01*
X65984333Y-60936238D01*
X65889095Y-61031476D01*
X65793857Y-61079095D01*
%TO.C,R1*%
X57267669Y-137118955D02*
X56791479Y-137452289D01*
X57267669Y-137690384D02*
X56267669Y-137690384D01*
X56267669Y-137309431D01*
X56315289Y-137214193D01*
X56362908Y-137166574D01*
X56458146Y-137118955D01*
X56601003Y-137118955D01*
X56696241Y-137166574D01*
X56743860Y-137214193D01*
X56791479Y-137309431D01*
X56791479Y-137690384D01*
X57267669Y-136166574D02*
X57267669Y-136738003D01*
X57267669Y-136452289D02*
X56267669Y-136452289D01*
X56410527Y-136547527D01*
X56505765Y-136642765D01*
X56553384Y-136738003D01*
%TO.C,R4*%
X55743669Y-137118955D02*
X55267479Y-137452289D01*
X55743669Y-137690384D02*
X54743669Y-137690384D01*
X54743669Y-137309431D01*
X54791289Y-137214193D01*
X54838908Y-137166574D01*
X54934146Y-137118955D01*
X55077003Y-137118955D01*
X55172241Y-137166574D01*
X55219860Y-137214193D01*
X55267479Y-137309431D01*
X55267479Y-137690384D01*
X55077003Y-136261812D02*
X55743669Y-136261812D01*
X54696050Y-136499908D02*
X55410336Y-136738003D01*
X55410336Y-136118955D01*
%TO.C,C8*%
X56237142Y-67476666D02*
X56284761Y-67524285D01*
X56332380Y-67667142D01*
X56332380Y-67762380D01*
X56284761Y-67905238D01*
X56189523Y-68000476D01*
X56094285Y-68048095D01*
X55903809Y-68095714D01*
X55760952Y-68095714D01*
X55570476Y-68048095D01*
X55475238Y-68000476D01*
X55380000Y-67905238D01*
X55332380Y-67762380D01*
X55332380Y-67667142D01*
X55380000Y-67524285D01*
X55427619Y-67476666D01*
X55760952Y-66905238D02*
X55713333Y-67000476D01*
X55665714Y-67048095D01*
X55570476Y-67095714D01*
X55522857Y-67095714D01*
X55427619Y-67048095D01*
X55380000Y-67000476D01*
X55332380Y-66905238D01*
X55332380Y-66714761D01*
X55380000Y-66619523D01*
X55427619Y-66571904D01*
X55522857Y-66524285D01*
X55570476Y-66524285D01*
X55665714Y-66571904D01*
X55713333Y-66619523D01*
X55760952Y-66714761D01*
X55760952Y-66905238D01*
X55808571Y-67000476D01*
X55856190Y-67048095D01*
X55951428Y-67095714D01*
X56141904Y-67095714D01*
X56237142Y-67048095D01*
X56284761Y-67000476D01*
X56332380Y-66905238D01*
X56332380Y-66714761D01*
X56284761Y-66619523D01*
X56237142Y-66571904D01*
X56141904Y-66524285D01*
X55951428Y-66524285D01*
X55856190Y-66571904D01*
X55808571Y-66619523D01*
X55760952Y-66714761D01*
%TO.C,C1*%
X62825333Y-68683142D02*
X62777714Y-68730761D01*
X62634857Y-68778380D01*
X62539619Y-68778380D01*
X62396761Y-68730761D01*
X62301523Y-68635523D01*
X62253904Y-68540285D01*
X62206285Y-68349809D01*
X62206285Y-68206952D01*
X62253904Y-68016476D01*
X62301523Y-67921238D01*
X62396761Y-67826000D01*
X62539619Y-67778380D01*
X62634857Y-67778380D01*
X62777714Y-67826000D01*
X62825333Y-67873619D01*
X63777714Y-68778380D02*
X63206285Y-68778380D01*
X63492000Y-68778380D02*
X63492000Y-67778380D01*
X63396761Y-67921238D01*
X63301523Y-68016476D01*
X63206285Y-68064095D01*
%TO.C,C7*%
X50376583Y-67413142D02*
X50328964Y-67460761D01*
X50186107Y-67508380D01*
X50090869Y-67508380D01*
X49948011Y-67460761D01*
X49852773Y-67365523D01*
X49805154Y-67270285D01*
X49757535Y-67079809D01*
X49757535Y-66936952D01*
X49805154Y-66746476D01*
X49852773Y-66651238D01*
X49948011Y-66556000D01*
X50090869Y-66508380D01*
X50186107Y-66508380D01*
X50328964Y-66556000D01*
X50376583Y-66603619D01*
X50709916Y-66508380D02*
X51376583Y-66508380D01*
X50948011Y-67508380D01*
%TO.C,J2*%
X75993666Y-60690380D02*
X75993666Y-61404666D01*
X75946047Y-61547523D01*
X75850809Y-61642761D01*
X75707952Y-61690380D01*
X75612714Y-61690380D01*
X76422238Y-60785619D02*
X76469857Y-60738000D01*
X76565095Y-60690380D01*
X76803190Y-60690380D01*
X76898428Y-60738000D01*
X76946047Y-60785619D01*
X76993666Y-60880857D01*
X76993666Y-60976095D01*
X76946047Y-61118952D01*
X76374619Y-61690380D01*
X76993666Y-61690380D01*
%TO.C,U2*%
X64897095Y-80224380D02*
X64897095Y-81033904D01*
X64944714Y-81129142D01*
X64992333Y-81176761D01*
X65087571Y-81224380D01*
X65278047Y-81224380D01*
X65373285Y-81176761D01*
X65420904Y-81129142D01*
X65468523Y-81033904D01*
X65468523Y-80224380D01*
X65897095Y-80319619D02*
X65944714Y-80272000D01*
X66039952Y-80224380D01*
X66278047Y-80224380D01*
X66373285Y-80272000D01*
X66420904Y-80319619D01*
X66468523Y-80414857D01*
X66468523Y-80510095D01*
X66420904Y-80652952D01*
X65849476Y-81224380D01*
X66468523Y-81224380D01*
%TO.C,C5*%
X57745333Y-69064142D02*
X57697714Y-69111761D01*
X57554857Y-69159380D01*
X57459619Y-69159380D01*
X57316761Y-69111761D01*
X57221523Y-69016523D01*
X57173904Y-68921285D01*
X57126285Y-68730809D01*
X57126285Y-68587952D01*
X57173904Y-68397476D01*
X57221523Y-68302238D01*
X57316761Y-68207000D01*
X57459619Y-68159380D01*
X57554857Y-68159380D01*
X57697714Y-68207000D01*
X57745333Y-68254619D01*
X58650095Y-68159380D02*
X58173904Y-68159380D01*
X58126285Y-68635571D01*
X58173904Y-68587952D01*
X58269142Y-68540333D01*
X58507238Y-68540333D01*
X58602476Y-68587952D01*
X58650095Y-68635571D01*
X58697714Y-68730809D01*
X58697714Y-68968904D01*
X58650095Y-69064142D01*
X58602476Y-69111761D01*
X58507238Y-69159380D01*
X58269142Y-69159380D01*
X58173904Y-69111761D01*
X58126285Y-69064142D01*
%TO.C,R7*%
X59650333Y-61412380D02*
X59317000Y-60936190D01*
X59078904Y-61412380D02*
X59078904Y-60412380D01*
X59459857Y-60412380D01*
X59555095Y-60460000D01*
X59602714Y-60507619D01*
X59650333Y-60602857D01*
X59650333Y-60745714D01*
X59602714Y-60840952D01*
X59555095Y-60888571D01*
X59459857Y-60936190D01*
X59078904Y-60936190D01*
X59983666Y-60412380D02*
X60650333Y-60412380D01*
X60221761Y-61412380D01*
%TO.C,J1*%
X70786666Y-60793380D02*
X70786666Y-61507666D01*
X70739047Y-61650523D01*
X70643809Y-61745761D01*
X70500952Y-61793380D01*
X70405714Y-61793380D01*
X71786666Y-61793380D02*
X71215238Y-61793380D01*
X71500952Y-61793380D02*
X71500952Y-60793380D01*
X71405714Y-60936238D01*
X71310476Y-61031476D01*
X71215238Y-61079095D01*
%TO.C,R6*%
X54219669Y-137118955D02*
X53743479Y-137452289D01*
X54219669Y-137690384D02*
X53219669Y-137690384D01*
X53219669Y-137309431D01*
X53267289Y-137214193D01*
X53314908Y-137166574D01*
X53410146Y-137118955D01*
X53553003Y-137118955D01*
X53648241Y-137166574D01*
X53695860Y-137214193D01*
X53743479Y-137309431D01*
X53743479Y-137690384D01*
X53219669Y-136261812D02*
X53219669Y-136452289D01*
X53267289Y-136547527D01*
X53314908Y-136595146D01*
X53457765Y-136690384D01*
X53648241Y-136738003D01*
X54029193Y-136738003D01*
X54124431Y-136690384D01*
X54172050Y-136642765D01*
X54219669Y-136547527D01*
X54219669Y-136357050D01*
X54172050Y-136261812D01*
X54124431Y-136214193D01*
X54029193Y-136166574D01*
X53791098Y-136166574D01*
X53695860Y-136214193D01*
X53648241Y-136261812D01*
X53600622Y-136357050D01*
X53600622Y-136547527D01*
X53648241Y-136642765D01*
X53695860Y-136690384D01*
X53791098Y-136738003D01*
%TO.C,R8*%
X82977380Y-64164666D02*
X82501190Y-64498000D01*
X82977380Y-64736095D02*
X81977380Y-64736095D01*
X81977380Y-64355142D01*
X82025000Y-64259904D01*
X82072619Y-64212285D01*
X82167857Y-64164666D01*
X82310714Y-64164666D01*
X82405952Y-64212285D01*
X82453571Y-64259904D01*
X82501190Y-64355142D01*
X82501190Y-64736095D01*
X82405952Y-63593238D02*
X82358333Y-63688476D01*
X82310714Y-63736095D01*
X82215476Y-63783714D01*
X82167857Y-63783714D01*
X82072619Y-63736095D01*
X82025000Y-63688476D01*
X81977380Y-63593238D01*
X81977380Y-63402761D01*
X82025000Y-63307523D01*
X82072619Y-63259904D01*
X82167857Y-63212285D01*
X82215476Y-63212285D01*
X82310714Y-63259904D01*
X82358333Y-63307523D01*
X82405952Y-63402761D01*
X82405952Y-63593238D01*
X82453571Y-63688476D01*
X82501190Y-63736095D01*
X82596428Y-63783714D01*
X82786904Y-63783714D01*
X82882142Y-63736095D01*
X82929761Y-63688476D01*
X82977380Y-63593238D01*
X82977380Y-63402761D01*
X82929761Y-63307523D01*
X82882142Y-63259904D01*
X82786904Y-63212285D01*
X82596428Y-63212285D01*
X82501190Y-63259904D01*
X82453571Y-63307523D01*
X82405952Y-63402761D01*
D11*
%TO.C,U4*%
X118591000Y-126914000D02*
X118591000Y-129921000D01*
X83258000Y-126914000D02*
X82858000Y-126914000D01*
X73058000Y-126914000D02*
X72658000Y-126914000D01*
X88358000Y-147914000D02*
X87958000Y-147914000D01*
X106158000Y-147914000D02*
X105758000Y-147914000D01*
X78158000Y-147914000D02*
X77758000Y-147914000D01*
X116258000Y-126914000D02*
X115858000Y-126914000D01*
X103558000Y-126914000D02*
X103158000Y-126914000D01*
X111158000Y-147914000D02*
X110758000Y-147914000D01*
X98458000Y-126914000D02*
X98058000Y-126914000D01*
X85758000Y-126914000D02*
X85358000Y-126914000D01*
X88358000Y-126914000D02*
X87958000Y-126914000D01*
X80658000Y-126914000D02*
X80258000Y-126914000D01*
X116258000Y-147914000D02*
X115858000Y-147914000D01*
X121258000Y-147914000D02*
X120958000Y-147914000D01*
X118858000Y-147914000D02*
X118458000Y-147914000D01*
X85758000Y-147914000D02*
X85358000Y-147914000D01*
X78158000Y-126914000D02*
X77758000Y-126914000D01*
X80658000Y-147914000D02*
X80258000Y-147914000D01*
X90858000Y-126914000D02*
X90458000Y-126914000D01*
X111158000Y-126914000D02*
X110758000Y-126914000D01*
X108658000Y-147914000D02*
X108258000Y-147914000D01*
X113758000Y-147914000D02*
X113358000Y-147914000D01*
X70258000Y-147914000D02*
X70258000Y-141114000D01*
X93458000Y-126914000D02*
X93058000Y-126914000D01*
X70258000Y-138514000D02*
X70258000Y-138914000D01*
X93458000Y-147914000D02*
X93058000Y-147914000D01*
X101058000Y-126914000D02*
X100658000Y-126914000D01*
X90858000Y-147914000D02*
X90458000Y-147914000D01*
X70258000Y-133714000D02*
X70258000Y-126914000D01*
X121258000Y-126914000D02*
X120958000Y-126914000D01*
X118858000Y-126914000D02*
X118458000Y-126914000D01*
X75658000Y-147914000D02*
X75258000Y-147914000D01*
X103558000Y-147914000D02*
X103158000Y-147914000D01*
X118591000Y-129921000D02*
X121258000Y-129921000D01*
X95958000Y-147914000D02*
X95558000Y-147914000D01*
X75658000Y-126914000D02*
X75258000Y-126914000D01*
X95958000Y-126914000D02*
X95558000Y-126914000D01*
X113758000Y-126914000D02*
X113358000Y-126914000D01*
X73058000Y-147914000D02*
X72658000Y-147914000D01*
X83258000Y-147914000D02*
X82858000Y-147914000D01*
X121258000Y-126914000D02*
X121258000Y-147914000D01*
X101058000Y-147914000D02*
X100658000Y-147914000D01*
X98458000Y-147914000D02*
X98058000Y-147914000D01*
X108658000Y-126914000D02*
X108258000Y-126914000D01*
X70258000Y-135914000D02*
X70258000Y-136314000D01*
X106158000Y-126914000D02*
X105758000Y-126914000D01*
%TO.C,C3*%
X57829289Y-134431556D02*
X57829289Y-134139022D01*
X58849289Y-134431556D02*
X58849289Y-134139022D01*
%TO.C,C4*%
X68578000Y-77489267D02*
X68578000Y-77196733D01*
X69598000Y-77489267D02*
X69598000Y-77196733D01*
%TO.C,R2*%
X60864789Y-134540013D02*
X60864789Y-134030565D01*
X61909789Y-134540013D02*
X61909789Y-134030565D01*
%TO.C,U3*%
X53210250Y-66076000D02*
X54010250Y-66076000D01*
X53210250Y-62956000D02*
X51410250Y-62956000D01*
X53210250Y-62956000D02*
X54010250Y-62956000D01*
X53210250Y-66076000D02*
X52410250Y-66076000D01*
%TO.C,U5*%
X64897000Y-141823000D02*
X64247000Y-141823000D01*
X64897000Y-144943000D02*
X64247000Y-144943000D01*
X64897000Y-141823000D02*
X65547000Y-141823000D01*
X64897000Y-144943000D02*
X66572000Y-144943000D01*
%TO.C,C2*%
X65805267Y-72011000D02*
X65512733Y-72011000D01*
X65805267Y-70991000D02*
X65512733Y-70991000D01*
%TO.C,C6*%
X50037250Y-64662267D02*
X50037250Y-64369733D01*
X49017250Y-64662267D02*
X49017250Y-64369733D01*
%TO.C,R5*%
X65404276Y-73010500D02*
X65913724Y-73010500D01*
X65404276Y-74055500D02*
X65913724Y-74055500D01*
%TO.C,U1*%
X59303500Y-63017000D02*
X60103500Y-63017000D01*
X59303500Y-63017000D02*
X58503500Y-63017000D01*
X59303500Y-66137000D02*
X58503500Y-66137000D01*
X59303500Y-66137000D02*
X61103500Y-66137000D01*
%TO.C,R3*%
X60385789Y-134540013D02*
X60385789Y-134030565D01*
X59340789Y-134540013D02*
X59340789Y-134030565D01*
%TO.C,R9*%
X80241224Y-68555500D02*
X79731776Y-68555500D01*
X80241224Y-69600500D02*
X79731776Y-69600500D01*
%TO.C,J3*%
X64282889Y-129431550D02*
X64282889Y-123790830D01*
X51887689Y-124440831D02*
X51887689Y-129431550D01*
X51887689Y-119438989D02*
X51887689Y-121081549D01*
X62349741Y-131351589D02*
X62640289Y-131351589D01*
X64282889Y-122287150D02*
X64282889Y-121698019D01*
X64282889Y-119438989D02*
X51887689Y-119438989D01*
X64970129Y-131043390D02*
G75*
G03*
X65298888Y-130665990I-52243J377403D01*
G01*
X65298889Y-130665990D02*
G75*
G03*
X64970129Y-130288588I-381000J0D01*
G01*
%TO.C,R1*%
X57337789Y-134030565D02*
X57337789Y-134540013D01*
X56292789Y-134030565D02*
X56292789Y-134540013D01*
%TO.C,R4*%
X55813789Y-134540013D02*
X55813789Y-134030565D01*
X54768789Y-134540013D02*
X54768789Y-134030565D01*
%TO.C,C8*%
X55748250Y-64662267D02*
X55748250Y-64369733D01*
X56768250Y-64662267D02*
X56768250Y-64369733D01*
%TO.C,C1*%
X65805267Y-67816000D02*
X65512733Y-67816000D01*
X65805267Y-68836000D02*
X65512733Y-68836000D01*
%TO.C,C7*%
X53063983Y-67566000D02*
X53356517Y-67566000D01*
X53063983Y-66546000D02*
X53356517Y-66546000D01*
%TO.C,J2*%
X77657000Y-62678000D02*
X77657000Y-64008000D01*
X74997000Y-65278000D02*
X74997000Y-72958000D01*
X76327000Y-62678000D02*
X77657000Y-62678000D01*
X74997000Y-65278000D02*
X77657000Y-65278000D01*
X74997000Y-72958000D02*
X77657000Y-72958000D01*
X77657000Y-65278000D02*
X77657000Y-72958000D01*
%TO.C,U2*%
X66559000Y-75860000D02*
X64109000Y-75860000D01*
X64759000Y-79080000D02*
X66559000Y-79080000D01*
%TO.C,C5*%
X59195767Y-66734000D02*
X58903233Y-66734000D01*
X59195767Y-67754000D02*
X58903233Y-67754000D01*
%TO.C,R7*%
X56768276Y-61326500D02*
X57277724Y-61326500D01*
X56768276Y-62371500D02*
X57277724Y-62371500D01*
%TO.C,J1*%
X69790000Y-65278000D02*
X69790000Y-72958000D01*
X69790000Y-65278000D02*
X72450000Y-65278000D01*
X71120000Y-62678000D02*
X72450000Y-62678000D01*
X69790000Y-72958000D02*
X72450000Y-72958000D01*
X72450000Y-65278000D02*
X72450000Y-72958000D01*
X72450000Y-62678000D02*
X72450000Y-64008000D01*
%TO.C,R6*%
X54289789Y-134540013D02*
X54289789Y-134030565D01*
X53244789Y-134540013D02*
X53244789Y-134030565D01*
%TO.C,R8*%
X80264724Y-63485500D02*
X79755276Y-63485500D01*
X80264724Y-64530500D02*
X79755276Y-64530500D01*
%TD*%
M02*
