%TF.GenerationSoftware,KiCad,Pcbnew,(6.0.2-0)*%
%TF.CreationDate,2022-05-28T22:41:11-04:00*%
%TF.ProjectId,memory-phone-pcb,6d656d6f-7279-42d7-9068-6f6e652d7063,rev?*%
%TF.SameCoordinates,Original*%
%TF.FileFunction,Soldermask,Top*%
%TF.FilePolarity,Negative*%
%FSLAX46Y46*%
G04 Gerber Fmt 4.6, Leading zero omitted, Abs format (unit mm)*
G04 Created by KiCad (PCBNEW (6.0.2-0)) date 2022-05-28 22:41:11*
%MOMM*%
%LPD*%
G01*
G04 APERTURE LIST*
G04 Aperture macros list*
%AMRoundRect*
0 Rectangle with rounded corners*
0 $1 Rounding radius*
0 $2 $3 $4 $5 $6 $7 $8 $9 X,Y pos of 4 corners*
0 Add a 4 corners polygon primitive as box body*
4,1,4,$2,$3,$4,$5,$6,$7,$8,$9,$2,$3,0*
0 Add four circle primitives for the rounded corners*
1,1,$1+$1,$2,$3*
1,1,$1+$1,$4,$5*
1,1,$1+$1,$6,$7*
1,1,$1+$1,$8,$9*
0 Add four rect primitives between the rounded corners*
20,1,$1+$1,$2,$3,$4,$5,0*
20,1,$1+$1,$4,$5,$6,$7,0*
20,1,$1+$1,$6,$7,$8,$9,0*
20,1,$1+$1,$8,$9,$2,$3,0*%
G04 Aperture macros list end*
%ADD10O,1.500000X1.500000*%
%ADD11O,1.800000X1.800000*%
%ADD12O,1.700000X1.700000*%
%ADD13R,1.700000X3.500000*%
%ADD14R,1.700000X1.700000*%
%ADD15R,3.500000X1.700000*%
%ADD16RoundRect,0.237500X0.237500X-0.300000X0.237500X0.300000X-0.237500X0.300000X-0.237500X-0.300000X0*%
%ADD17RoundRect,0.237500X0.237500X-0.250000X0.237500X0.250000X-0.237500X0.250000X-0.237500X-0.250000X0*%
%ADD18RoundRect,0.150000X-0.512500X-0.150000X0.512500X-0.150000X0.512500X0.150000X-0.512500X0.150000X0*%
%ADD19RoundRect,0.150000X0.587500X0.150000X-0.587500X0.150000X-0.587500X-0.150000X0.587500X-0.150000X0*%
%ADD20RoundRect,0.237500X0.300000X0.237500X-0.300000X0.237500X-0.300000X-0.237500X0.300000X-0.237500X0*%
%ADD21RoundRect,0.237500X-0.250000X-0.237500X0.250000X-0.237500X0.250000X0.237500X-0.250000X0.237500X0*%
%ADD22RoundRect,0.150000X0.512500X0.150000X-0.512500X0.150000X-0.512500X-0.150000X0.512500X-0.150000X0*%
%ADD23RoundRect,0.237500X0.250000X0.237500X-0.250000X0.237500X-0.250000X-0.237500X0.250000X-0.237500X0*%
%ADD24R,0.762000X1.803400*%
%ADD25R,1.498600X1.498600*%
%ADD26R,1.549400X0.838200*%
%ADD27R,1.549400X1.041400*%
%ADD28R,1.041400X1.549400*%
%ADD29RoundRect,0.300000X-0.300000X-0.300000X0.300000X-0.300000X0.300000X0.300000X-0.300000X0.300000X0*%
%ADD30RoundRect,0.375000X-0.425000X-0.375000X0.425000X-0.375000X0.425000X0.375000X-0.425000X0.375000X0*%
%ADD31RoundRect,0.237500X-0.237500X0.250000X-0.237500X-0.250000X0.237500X-0.250000X0.237500X0.250000X0*%
%ADD32RoundRect,0.237500X-0.300000X-0.237500X0.300000X-0.237500X0.300000X0.237500X-0.300000X0.237500X0*%
%ADD33R,1.560000X0.650000*%
G04 APERTURE END LIST*
D10*
%TO.C,U4*%
X116728000Y-139839000D03*
D11*
X119758000Y-134689000D03*
X119758000Y-140139000D03*
D10*
X116728000Y-134989000D03*
D12*
X119888000Y-128524000D03*
D13*
X119888000Y-127624000D03*
D12*
X117348000Y-128524000D03*
D13*
X117348000Y-127624000D03*
X114808000Y-127624000D03*
D14*
X114808000Y-128524000D03*
D13*
X112268000Y-127624000D03*
D12*
X112268000Y-128524000D03*
X109728000Y-128524000D03*
D13*
X109728000Y-127624000D03*
D12*
X107188000Y-128524000D03*
D13*
X107188000Y-127624000D03*
X104648000Y-127624000D03*
D12*
X104648000Y-128524000D03*
D13*
X102108000Y-127624000D03*
D14*
X102108000Y-128524000D03*
D13*
X99568000Y-127624000D03*
D12*
X99568000Y-128524000D03*
D13*
X97028000Y-127624000D03*
D12*
X97028000Y-128524000D03*
D13*
X94488000Y-127624000D03*
D12*
X94488000Y-128524000D03*
X91948000Y-128524000D03*
D13*
X91948000Y-127624000D03*
D14*
X89408000Y-128524000D03*
D13*
X89408000Y-127624000D03*
D12*
X86868000Y-128524000D03*
D13*
X86868000Y-127624000D03*
X84328000Y-127624000D03*
D12*
X84328000Y-128524000D03*
X81788000Y-128524000D03*
D13*
X81788000Y-127624000D03*
D12*
X79248000Y-128524000D03*
D13*
X79248000Y-127624000D03*
X76708000Y-127624000D03*
D14*
X76708000Y-128524000D03*
D12*
X74168000Y-128524000D03*
D13*
X74168000Y-127624000D03*
X71628000Y-127624000D03*
D12*
X71628000Y-128524000D03*
X71628000Y-146304000D03*
D13*
X71628000Y-147204000D03*
X74168000Y-147204000D03*
D12*
X74168000Y-146304000D03*
D13*
X76708000Y-147204000D03*
D14*
X76708000Y-146304000D03*
D12*
X79248000Y-146304000D03*
D13*
X79248000Y-147204000D03*
D12*
X81788000Y-146304000D03*
D13*
X81788000Y-147204000D03*
X84328000Y-147204000D03*
D12*
X84328000Y-146304000D03*
X86868000Y-146304000D03*
D13*
X86868000Y-147204000D03*
D14*
X89408000Y-146304000D03*
D13*
X89408000Y-147204000D03*
X91948000Y-147204000D03*
D12*
X91948000Y-146304000D03*
X94488000Y-146304000D03*
D13*
X94488000Y-147204000D03*
D12*
X97028000Y-146304000D03*
D13*
X97028000Y-147204000D03*
X99568000Y-147204000D03*
D12*
X99568000Y-146304000D03*
D14*
X102108000Y-146304000D03*
D13*
X102108000Y-147204000D03*
X104648000Y-147204000D03*
D12*
X104648000Y-146304000D03*
D13*
X107188000Y-147204000D03*
D12*
X107188000Y-146304000D03*
X109728000Y-146304000D03*
D13*
X109728000Y-147204000D03*
X112268000Y-147204000D03*
D12*
X112268000Y-146304000D03*
D14*
X114808000Y-146304000D03*
D13*
X114808000Y-147204000D03*
X117348000Y-147204000D03*
D12*
X117348000Y-146304000D03*
X119888000Y-146304000D03*
D13*
X119888000Y-147204000D03*
D12*
X71858000Y-134874000D03*
D15*
X70958000Y-134874000D03*
X70958000Y-137414000D03*
D14*
X71858000Y-137414000D03*
D12*
X71858000Y-139954000D03*
D15*
X70958000Y-139954000D03*
%TD*%
D16*
%TO.C,C3*%
X58339289Y-135147789D03*
X58339289Y-133422789D03*
%TD*%
%TO.C,C4*%
X69088000Y-78205500D03*
X69088000Y-76480500D03*
%TD*%
D17*
%TO.C,R2*%
X61387289Y-135197789D03*
X61387289Y-133372789D03*
%TD*%
D18*
%TO.C,U3*%
X52072750Y-63566000D03*
X52072750Y-64516000D03*
X52072750Y-65466000D03*
X54347750Y-65466000D03*
X54347750Y-63566000D03*
%TD*%
D19*
%TO.C,U5*%
X65834500Y-144333000D03*
X65834500Y-142433000D03*
X63959500Y-143383000D03*
%TD*%
D20*
%TO.C,C2*%
X66521500Y-71501000D03*
X64796500Y-71501000D03*
%TD*%
D16*
%TO.C,C6*%
X49527250Y-65378500D03*
X49527250Y-63653500D03*
%TD*%
D21*
%TO.C,R5*%
X64746500Y-73533000D03*
X66571500Y-73533000D03*
%TD*%
D22*
%TO.C,U1*%
X60441000Y-65527000D03*
X60441000Y-64577000D03*
X60441000Y-63627000D03*
X58166000Y-63627000D03*
X58166000Y-65527000D03*
%TD*%
D17*
%TO.C,R3*%
X59863289Y-135197789D03*
X59863289Y-133372789D03*
%TD*%
D23*
%TO.C,R9*%
X80899000Y-69078000D03*
X79074000Y-69078000D03*
%TD*%
D24*
%TO.C,J3*%
X61636001Y-130665990D03*
X60536000Y-130665990D03*
X59436000Y-130665990D03*
X58336000Y-130665990D03*
X57236002Y-130665990D03*
X56136002Y-130665990D03*
X55036001Y-130665990D03*
X53936001Y-130665990D03*
D25*
X52460289Y-130513590D03*
X63710289Y-130513590D03*
D26*
X52130081Y-123688991D03*
X64040497Y-123038990D03*
D27*
X52485605Y-121934989D03*
D28*
X63639583Y-120613991D03*
%TD*%
D29*
%TO.C,RV1*%
X63751000Y-66316000D03*
D30*
X65151000Y-63066000D03*
D29*
X66551000Y-66316000D03*
%TD*%
D31*
%TO.C,R1*%
X56815289Y-133372789D03*
X56815289Y-135197789D03*
%TD*%
D17*
%TO.C,R4*%
X55291289Y-135197789D03*
X55291289Y-133372789D03*
%TD*%
D16*
%TO.C,C8*%
X56258250Y-65378500D03*
X56258250Y-63653500D03*
%TD*%
D20*
%TO.C,C1*%
X66521500Y-68326000D03*
X64796500Y-68326000D03*
%TD*%
D32*
%TO.C,C7*%
X52347750Y-67056000D03*
X54072750Y-67056000D03*
%TD*%
D14*
%TO.C,J2*%
X76327000Y-64008000D03*
D12*
X76327000Y-66548000D03*
X76327000Y-69088000D03*
X76327000Y-71628000D03*
%TD*%
D33*
%TO.C,U2*%
X64309000Y-76520000D03*
X64309000Y-77470000D03*
X64309000Y-78420000D03*
X67009000Y-78420000D03*
X67009000Y-76520000D03*
%TD*%
D20*
%TO.C,C5*%
X59912000Y-67244000D03*
X58187000Y-67244000D03*
%TD*%
D21*
%TO.C,R7*%
X56110500Y-61849000D03*
X57935500Y-61849000D03*
%TD*%
D14*
%TO.C,J1*%
X71120000Y-64008000D03*
D12*
X71120000Y-66548000D03*
X71120000Y-69088000D03*
X71120000Y-71628000D03*
%TD*%
D17*
%TO.C,R6*%
X53767289Y-135197789D03*
X53767289Y-133372789D03*
%TD*%
D23*
%TO.C,R8*%
X80922500Y-64008000D03*
X79097500Y-64008000D03*
%TD*%
M02*
